<svg height="426.66667pt" viewBox="0 0 426.66667 426.66667" width="426.66667pt" xmlns="http://www.w3.org/2000/svg"><path d="m309.332031 64h-32v-32c-.019531-17.664062-14.332031-31.9804688-32-32h-64c-17.664062.0195312-31.980469 14.335938-32 32v32h-32c-29.441406.03125-53.300781 23.890625-53.332031 53.332031v64c.019531 17.667969 14.335938 31.980469 32 32h53.332031v-10.664062c0-5.890625 4.777344-10.667969 10.667969-10.667969s10.667969 4.777344 10.667969 10.667969v10.664062h85.332031v-10.664062c0-5.890625 4.777344-10.667969 10.667969-10.667969s10.664062 4.777344 10.664062 10.667969v10.664062h53.335938c17.664062-.019531 31.980469-14.332031 32-32v-64c-.03125-29.441406-23.890625-53.300781-53.335938-53.332031zm-53.332031 0h-85.332031v-32c.007812-5.886719 4.777343-10.660156 10.664062-10.667969h64c5.890625.007813 10.660157 4.78125 10.667969 10.667969zm0 0"/><path d="m394.667969 256h-10.667969v117.332031c-.109375 3.25-.4375 6.484375-.980469 9.6875 25.257813-4.667969 43.597657-26.671875 43.648438-52.351562v-42.667969c-.019531-17.664062-14.335938-31.980469-32-32zm0 0"/><path d="m42.667969 256h-10.667969c-17.664062.019531-31.9804688 14.335938-32 32v42.667969c.046875 25.679687 18.390625 47.683593 43.644531 52.351562-.539062-3.203125-.867187-6.4375-.976562-9.6875zm0 0"/><path d="m277.332031 234.667969v32c0 5.890625-4.773437 10.664062-10.664062 10.664062s-10.667969-4.773437-10.667969-10.664062v-32h-85.332031v32c0 5.890625-4.777344 10.664062-10.667969 10.664062s-10.667969-4.773437-10.667969-10.664062v-32h-53.332031c-11.578125-.039063-22.820312-3.882813-32-10.9375v149.601562c.03125 29.445313 23.890625 53.304688 53.332031 53.335938h192c29.445313-.03125 53.304688-23.890625 53.335938-53.335938v-149.601562c-9.179688 7.054687-20.425781 10.898437-32 10.9375zm0 0"/></svg>