<svg height="512" viewBox="0 0 96 96" width="512" xmlns="http://www.w3.org/2000/svg"><path d="m88.8327 26.2828-10.8361-4.9552c-1.7032-6.82-6.965-11.3283-13.36-11.3283-8.2931 0-13.8674 6.2032-13.8674 15.4378 0 4.1807-10.8193 16.7974-24.1342 26.9648 7.16 3.1688 14.4768 3.2376 20.74-.0366 5.7462-3 8.7541-7.7951 8.7541-10.9807a2 2 0 0 1 4 0c0 5.2033-4.4844 11.176-10.9025 14.5277a25.6466 25.6466 0 0 1 -11.9534 2.9258 31.0243 31.0243 0 0 1 -14.32-3.7374 79.1042 79.1042 0 0 1 -15.6962 8.8117 2.002 2.002 0 0 0 -.8165 3.1114l7.7463 9.6232a2.0034 2.0034 0 0 0 2.6524.4219l10.6056-6.9122a48.9557 48.9557 0 0 0 16.3744 3.128l2.41 8.7159h-13.03a2 2 0 1 0 0 4h39.1449a2 2 0 1 0 0-4h-10.24l-3.43-11.9443a31.7217 31.7217 0 0 0 5.2953-3.2239c9.6212-7.27 15.051-19.9633 14.3869-33.4167l10.2772-3.4157a2.0013 2.0013 0 0 0 .1992-3.7169zm-30.89 55.7178h-7.567l-2.4627-8.9061a33.0833 33.0833 0 0 0 7.0343-1.5237z"/></svg>