<svg id="Nesting_Bird" viewBox="0 0 96 96" xmlns="http://www.w3.org/2000/svg" data-name="Nesting Bird"><path d="m91.669 48.752-9.038-8.138c-8.659.722-24.818.905-27.729-7.809-1.283-3.955 1.106-8.615 5.962-11.79l-5.785-5.209c-4.931-4.538-13.044-.498-12.498 6.103l-3.258 5.75c-.388.635.132 1.518.87 1.493.074 0 .148-.008.223-.025l5.6-1.279.575.518c-3.219 7.112.088 16.424 7.143 20.633h17.602c1.133-.768 2.207-1.723 3.087-2.818l4.637 4.176c2.814 2.535 6.936 3.003 10.233 1.205 0 0 2.184-1.189 2.184-1.189.596-.304.701-1.188.191-1.622zm-42.718-26.302c-1.972-.034-1.971-2.967 0-3 1.972.034 1.971 2.967 0 3z"/><path d="m81.363 53.999c-4.85.234-9.276.981-13.312 2.25-1.277 1.465-.124 2.364-1.64 2.709-.986-.033-1.221-.74-.994-1.779-1.861.724-3.635 1.565-5.32 2.534 1.096.884 1.707 2.238 1.799 2.454.507 1.2-1.313 1.991-1.839.786-.277-.638-1.117-1.974-1.94-2.012-2.302 1.522-4.43 3.297-6.397 5.326 5.866 2.031 11.734 2.829 18.316 2.82 1.752-1.259 2.229-2.481 2.233-2.493.464-1.21 2.285-.582 1.889.656-.041.119-.305.836-1.087 1.765 2.443-.114 5.038-.356 7.791-.747.885-1.889 1.55-3.909 1.957-6.033-2.318.048-6.138-.608-6.29-.635-1.289-.249-.959-2.167.343-1.971 1.209.21 4.517.691 6.247.59.343-2.216-.265-4.504-1.672-6.242-.03.004-.055.02-.086.022z"/><path d="m53.748 55.966c-.46 1.23-2.32.542-1.879-.685.654-1.795 1.124-3.761 1.031-4.282h-5.577c-1.731 3.454-4.089 6.362-6.845 8.79 1.213 1.163 4.162 3.608 9.223 5.703 7.46-8.012 17.175-12.397 29.629-13.363-1.222-.728-2.628-1.13-4.074-1.13h-20.356c.048 1.479-.762 3.895-1.152 4.966z"/><path d="m4.895 60.829c1.267 1.625 3.93 2.147 3.953 2.129 1.195.19 1.041 1.995-.159 1.987-.331-.03-1.528-.214-3.197-1.097.404 1.562.949 3.06 1.62 4.483 7.215.364 15.547-1.084 22.437-4.095-3.486-1.019-7.076-2.678-10.22-4.635-2.079-.351-3.346.56-3.964.577-1.049.022-1.39-1.498-.406-1.914.054-.024.713-.31 1.643-.522-2.803-2.091-4.984-4.357-5.989-6.453-4.118 1.012-6.619 5.457-5.717 9.54z"/><path d="m69.92 71.073c-2.434 0-4.722-.127-6.873-.351.257.454.444.821.487.907.342.642-.173 1.463-.894 1.447-.367 0-.72-.202-.895-.553-.294-.588-.858-1.592-1.285-2.13-2.22-.328-4.271-.761-6.159-1.268-1.292 1.526-2.909 3.075-4.799 4.573 7.401-.046 14.681 1.861 20.671 5.993 3.945-2.176 7.244-5.372 9.548-9.264-3.486.436-6.763.645-9.802.645z"/><path d="m22.676 76.908c1.014-.82 2.274.707 1.272 1.543-.093.077-1.712 1.387-4.315 2.173 1.197.537 2.445.979 3.732 1.329 4.683-.241 9.354-1.457 13.64-3.235.363-1.18.532-3.295.567-4.074.09-1.304 2.034-1.226 1.998.089-.01.224-.079 1.6-.299 2.973 5.344-2.543 9.924-5.897 12.918-9.19-2.758-.874-5.09-1.897-7.052-2.943-1.019 1.04-1.196 1.611-1.198 1.617-.371 1.268-2.253.746-1.931-.523.082-.301.377-1.032 1.346-2.11-2.036-1.25-3.522-2.47-4.456-3.458-1.176.914-2.411 1.75-3.69 2.514-.389 1.161-.349 2.678-.292 3.209.119 1.306-1.823 1.521-1.988.214-.007-.064-.102-1.004.003-2.156-3.055 1.569-6.292 2.759-9.524 3.627 1.118.621 1.937 1.256 1.997 1.303.752.547.296 1.822-.617 1.787-.93-.075-2.185-1.778-4.718-2.27-4.233.74-8.079 1.189-11.873 1.06 2.123 3.601 5.096 6.609 8.644 8.767 3.469-.346 5.808-2.224 5.833-2.245z"/><path d="m57.403 76.456c-2.333 1.203-3.083 2.092-3.96 2.225-.949.036-1.381-1.323-.556-1.832.042-.028.599-.398 1.394-.888-2.43-.303-4.991-.303-7.623-.193-4.515 3.043-10.053 5.664-15.897 7.089h27.042c3.66 0 7.139-.762 10.286-2.137-3.232-2.039-6.802-3.466-10.688-4.263z"/><path d="m37.053 55.435c.09.009 2.037.243 3.497 1.514 1.698-1.697 3.229-3.676 4.488-5.948h-28.748c.004-.032-1.154-2.74-1.161-2.771 2.942-2.163 3.677-6.673 2.414-9.734-3.043-7.367-10.889-10.745-11.221-10.885-.568-.257-1.282.132-1.374.749-.08.458-1.937 11.243-.209 15.425 1.405 3.416 4.928 5.489 8.515 5.146l.872 2.07h-1.401c1.824 3.024 6.857 6.894 12.525 9.487 1.335-.676 1.807-1.025 2.624-1.666 1.032-.802 2.26.762 1.234 1.573-.547.429-.975.749-1.512 1.081 1.59.605 3.198 1.085 4.777 1.407 2.25-1.188 4.564-2.692 6.713-4.568-.958-.736-2.231-.889-2.245-.891-1.301-.172-1.089-2.091.213-1.989z"/><path d="m56.805 32.187c1.64 5.052 10.471 7.46 23.768 6.574l-18.167-16.358c-4.386 2.682-6.636 6.595-5.601 9.784z"/><path d="m37.141 49c1.717-2.065 2.209-5.354 1.103-7.87l1.707-4.357c.31-.721-.414-1.548-1.168-1.336 0 0-5.095 1.245-5.095 1.245-.032.008-.055.029-.086.04-7.415-2.627-13.651 6.147-8.801 12.278h12.341zm-6.17-8.435c1.972.034 1.971 2.967 0 3-1.972-.034-1.971-2.967 0-3z"/></svg>