<svg viewBox="0 0 64 64" xmlns="http://www.w3.org/2000/svg"><g id="Layer_3" data-name="Layer 3"><path d="m55 34h-24.259a18.1 18.1 0 0 1 -11.384 4.521 12.835 12.835 0 0 1 -2.7-.279l-.61.34a4 4 0 0 0 2.994 3.29 11.007 11.007 0 0 0 10.959 10.128h15a11.007 11.007 0 0 0 10.956-10.128 3.993 3.993 0 0 0 -.956-7.872z"/><path d="m30.671 31.34c.4-.412.78-.844 1.142-1.285.229-.275.45-.556.659-.842h-.006a16.41 16.41 0 0 0 3.1-7.478 4.974 4.974 0 0 0 2.425-1.735h4.009a.984.984 0 0 0 .93-.65 1 1 0 0 0 -.27-1.1l-4.47-3.96a4.988 4.988 0 0 0 -9.03 1.47l-23.869 24.28a.991.991 0 0 0 -.09 1.3 1.013 1.013 0 0 0 .8.4.973.973 0 0 0 .49-.13l9.89-5.5c4.48 1.31 10.16-.57 14.29-4.77zm-12.17.14c2.01.3 4.57-.8 6.5-2.76 1.91-1.94 2.98-4.58 2.66-6.56a1 1 0 1 1 1.98-.32c.42 2.62-.84 5.87-3.21 8.28a10.7 10.7 0 0 1 -7.28 3.4 7.186 7.186 0 0 1 -.94-.06 1 1 0 0 1 .29-1.98z"/><path d="m48.773 27.727a6.26 6.26 0 0 0 -5.661 4.273h11.322a6.26 6.26 0 0 0 -5.661-4.273z"/><path d="m35.7 27.779a20.58 20.58 0 0 1 -2.927 4.221h9.116a6.26 6.26 0 0 0 -5.661-4.273 5.11 5.11 0 0 0 -.528.052z"/></g></svg>