<?xml version="1.0"?>
<svg xmlns="http://www.w3.org/2000/svg" viewBox="0 0 64 64"><g id="Layer_3" data-name="Layer 3"><path d="M18.212,33.457a6.57,6.57,0,0,0,.942.066,10.677,10.677,0,0,0,7.274-3.4c2.373-2.414,3.632-5.664,3.209-8.282a1,1,0,0,0-1.7-.541L17.643,31.766a1,1,0,0,0,.569,1.691Zm9.239-8.812A9.915,9.915,0,0,1,25,28.719a9.712,9.712,0,0,1-4.042,2.526ZM59,38a4,4,0,0,0-4-4h-.066c-.42-3.538-3.019-6.273-6.162-6.273S43.031,30.462,42.612,34h-.224c-.419-3.538-3.018-6.273-6.161-6.273a5.641,5.641,0,0,0-3.756,1.486,16.372,16.372,0,0,0,3.1-7.476A4.974,4.974,0,0,0,37.995,20H42a1,1,0,0,0,.663-1.749l-4.472-3.96a4.988,4.988,0,0,0-9.03,1.468L5.287,40.036a1,1,0,0,0,1.2,1.575l9.894-5.5c.029.009.06.014.089.022a3.981,3.981,0,0,0,2.575,5.744A11.008,11.008,0,0,0,30,52H45A11.008,11.008,0,0,0,55.956,41.872,4,4,0,0,0,59,38ZM48.772,29.727c2.057,0,3.771,1.843,4.147,4.273H44.627C45,31.57,46.717,29.727,48.772,29.727Zm-12.545,0c2.056,0,3.77,1.843,4.146,4.273H32.081C32.457,31.57,34.171,29.727,36.227,29.727ZM30.066,34h-2.68a18.66,18.66,0,0,0,3.285-2.662c.16-.163.306-.336.459-.5A7.962,7.962,0,0,0,30.066,34Zm8.822-16c.025-.121.046-.242.061-.366l.413.366Zm-23.1,16.148-4.2,2.339L30.788,16.958a1.016,1.016,0,0,0,.27-.517A2.993,2.993,0,0,1,36.5,15.355l.014.026a2.979,2.979,0,0,1-2.037,4.568,1,1,0,0,0-.838.917,14.822,14.822,0,0,1-4.4,9.07c-3.739,3.8-8.821,5.465-12.646,4.142A1,1,0,0,0,15.785,34.148ZM45,50H30a9.01,9.01,0,0,1-8.941-8H53.941A9.011,9.011,0,0,1,45,50ZM55,40H20a2,2,0,0,1-2-2,1.97,1.97,0,0,1,.717-1.505A13.021,13.021,0,0,0,22.956,36H55a2,2,0,0,1,0,4Z"/></g></svg>
