<svg id="Nesting_Bird" viewBox="0 0 96 96" xmlns="http://www.w3.org/2000/svg" data-name="Nesting Bird"><path d="m91.67 48.39-36.59-32.95c-1.48-1.34-3.4-2.02-5.42-1.93-2 .12-3.84 1-5.17 2.48-1.42 1.57-2.04 3.59-1.91 5.55l-3.26 5.75c-.2.34-.17.77.07 1.09.19.26.49.4.8.4.07 0 .15 0 .22-.02l5.6-1.28.58.52c-2.7 6.22-.88 13.81 4.57 18.71 2.13 1.92 4.59 3.22 7.14 3.92h-21.16c1.08-1.36 1.69-3.06 1.69-4.87 0-1.06-.21-2.07-.6-3l1.71-4.36c.14-.35.07-.74-.18-1.02s-.63-.4-.99-.31l-5.1 1.24s-.05.03-.09.04c-.82-.29-1.71-.46-2.63-.46-4.34 0-7.87 3.53-7.87 7.87 0 1.81.62 3.51 1.7 4.87h-8.51s0-.02 0-.03l-1.16-2.74c2.94-2.16 3.68-6.67 2.41-9.73-3.04-7.37-10.89-10.74-11.22-10.88-.28-.12-.6-.1-.87.04-.27.15-.45.41-.51.71-.08.46-1.94 11.24-.21 15.42 1.31 3.17 4.42 5.18 7.75 5.18.25 0 .51-.01.76-.04l.87 2.07h-1.44c-2.23 0-4.37.94-5.88 2.59-1.5 1.65-2.25 3.87-2.05 6.09 1.2 13.21 12.11 23.18 25.38 23.18h27.66c13.27 0 24.18-9.96 25.38-23.18.2-2.22-.54-4.44-2.05-6.09-1.5-1.65-3.65-2.59-5.88-2.59h-8.24c2.62-.74 5.03-2.15 6.94-4.27.16-.18.32-.36.47-.55l4.64 4.18c1.67 1.51 3.81 2.29 5.97 2.29 1.46 0 2.92-.36 4.26-1.08l2.18-1.19c.29-.16.48-.44.52-.76s-.08-.64-.32-.86zm-85.09-5.73c-1.1-2.65-.41-9.38.12-12.99 2.2 1.19 6.92 4.23 8.99 9.23.88 2.14.41 5.36-1.38 7.04l-2.4-5.69c-.21-.51-.8-.75-1.31-.53-.51.21-.75.8-.53 1.31l2.35 5.58c-2.77-.01-4.98-1.86-5.84-3.95zm60.37 11.67c-.05.02-.1.03-.15.06-7.46 2.61-13.35 6.78-17.08 10.73-4.8-1.98-7.89-4.32-9.31-5.79 2.2-1.96 4.12-4.18 5.64-6.69h6.85c-.17.6-.53 1.41-.95 2.11-.28.47-.13 1.09.35 1.37.16.1.34.14.51.14.34 0 .67-.17.86-.49.29-.49 1.06-1.87 1.28-3.14h18.35c-2.22.43-4.34 1-6.34 1.7zm-34.54 8.2c-1.68-.34-3.29-.81-4.83-1.4.57-.36.99-.69 1.52-1.1.43-.34.51-.97.17-1.4s-.97-.51-1.4-.17c-.83.65-1.3 1.02-2.62 1.69-4.32-2.05-7.72-4.88-9.47-7.51h13.11c.88.67 1.12 1.13 1.12 1.13t0 0c.14.42.53.68.95.68.11 0 .21-.02.32-.05.52-.18.8-.75.63-1.27-.02-.07-.09-.24-.25-.49h12.02c-.94 1.39-2.01 2.69-3.2 3.89-1.45-1.22-3.35-1.45-3.43-1.46-.54-.05-1.04.34-1.1.89s.34 1.04.88 1.1c.01 0 1.24.15 2.19.85-2 1.78-4.23 3.31-6.62 4.62zm4.97-23.06-.46 1.17c-.26-.3-.54-.59-.85-.85zm-12.28 6.3c0-3.24 2.63-5.87 5.87-5.87s5.87 2.63 5.87 5.87c0 1.99-.98 3.78-2.62 4.87h-6.49c-1.65-1.09-2.63-2.89-2.63-4.87zm-16.81 8.81c1.14-1.25 2.71-1.94 4.4-1.94h.78c.84 1.63 2.17 3.23 3.85 4.72-1.23.17-2.2.49-2.27.51-.52.17-.81.74-.63 1.26.14.42.53.69.95.69.1 0 .21-.02.31-.05.71-.23 2.8-.74 4.2-.42 1.49 1.02 3.12 1.96 4.86 2.76.08.05.17.09.27.12 1.49.67 3.04 1.24 4.63 1.69-3.08 1.39-6.32 2.42-9.55 3.09-.05 0-.09.02-.14.03-3.68.75-7.32 1.02-10.65.83-.56-1.09-1.03-2.24-1.42-3.43.44.13.74.15.81.15.54 0 .96-.42.98-.96s-.41-1-.95-1.04c-.03 0-.7-.07-1.59-.89-.17-.84-.3-1.69-.38-2.56-.15-1.69.39-3.31 1.53-4.56zm2.19 15.31c.29 0 .56.03.85.03 2.83 0 5.83-.32 8.85-.93 1.82.36 3.96 2.01 3.99 2.03.18.14.4.21.61.21.3 0 .59-.13.79-.38.34-.44.26-1.06-.17-1.4-.06-.05-.82-.64-1.88-1.24 3.19-.88 6.35-2.11 9.31-3.68.03-.01.07-.02.1-.04-.11 1.16-.01 2.11 0 2.18.06.51.49.89.99.89h.11c.55-.06.95-.55.89-1.1-.06-.54-.1-2.12.32-3.3 1.26-.78 2.47-1.63 3.62-2.54 1.02 1.11 2.56 2.36 4.59 3.59-.64.68-1.27 1.47-1.44 2.09-.14.52.16 1.02.67 1.18.09.03.19.04.28.04.42 0 .82-.28.97-.69.05-.14.4-.7 1.31-1.61 1.27.67 2.7 1.33 4.27 1.93.07.04.14.06.21.08.8.31 1.63.6 2.5.88-2.33 2.64-6.58 6.57-12.96 9.24.22-1.38.29-2.77.3-2.99.02-.55-.4-1.02-.95-1.04-.54-.01-1.02.4-1.04.95-.03.75-.19 2.72-.52 3.92-3.07 1.05-6.56 1.8-10.51 1.99-1.48-.22-2.91-.58-4.28-1.07.85-.44 1.51-.91 1.64-1.01.45-.32.55-.95.22-1.4-.32-.45-.95-.55-1.4-.22-.77.55-2.26 1.41-3.19 1.49-3.69-1.85-6.8-4.66-9.05-8.11zm25.98 10.6c.52-.16 1.03-.33 1.53-.5.14-.02.28-.07.4-.15 3.36-1.23 6.22-2.79 8.59-4.43 2.57-.15 4.98-.07 7.27.2-.78.48-1.33.85-1.37.87-.46.31-.58.93-.28 1.39.19.29.51.45.83.45.19 0 .38-.05.55-.17.02-.01 1.65-1.1 3.37-2.03 2.94.63 5.66 1.65 8.17 3.07-2.42.84-5.02 1.31-7.73 1.31h-21.34zm31.39-2.24c-3.1-1.97-6.5-3.34-10.23-4.12-.13-.05-.27-.08-.41-.08-2.36-.46-4.84-.72-7.49-.72 2.05-1.71 3.58-3.34 4.62-4.59 1.89.51 3.92.95 6.11 1.27.43.53 1 1.55 1.3 2.15.18.35.53.55.9.55.15 0 .3-.03.45-.11.49-.25.69-.85.45-1.34-.04-.09-.24-.47-.5-.93 1.99.2 4.09.32 6.29.32.35 0 .72-.01 1.07-.02.03 0 .05.02.08.02.05 0 .1-.01.15-.02 2.13-.04 4.34-.19 6.65-.45-2.35 3.49-5.59 6.28-9.41 8.07zm13.34-19.11c-.02.27-.08.53-.11.8-1.82-.02-4.08-.64-4.11-.64-.53-.15-1.08.16-1.23.69s.16 1.08.69 1.23c.11.03 2.29.63 4.32.7-.45 2.16-1.19 4.2-2.18 6.08-1.87.26-3.68.44-5.41.54.71-.87.96-1.54 1-1.65.18-.52-.1-1.08-.61-1.26-.52-.18-1.08.09-1.27.6 0 .01-.47 1.19-2.15 2.43-3.26.05-6.26-.15-8.99-.53-.06 0-.11-.03-.17-.03-2.43-.35-4.66-.84-6.67-1.41-.04-.01-.07-.02-.11-.03-.85-.25-1.66-.51-2.43-.78 1.78-1.78 4.01-3.59 6.64-5.24.73.26 1.43 1.38 1.68 1.95.16.38.53.61.92.61.13 0 .26-.03.39-.08.51-.22.74-.8.53-1.31-.09-.2-.64-1.42-1.62-2.3 1.58-.89 3.29-1.71 5.1-2.44-.05.35-.03.59-.03.64.05.52.48.89.99.89h.07c.54-.04.95-.51.93-1.06 0-.03-.02-.65.54-1.42 3.37-1.14 7.07-1.93 11.03-2.22.26.21.51.43.74.68 1.14 1.25 1.69 2.87 1.53 4.56zm-3.79-20.91c-11.69-.37-19.34-3.16-20.64-7.64-.72-2.48.75-5.39 3.77-7.54l16.86 15.18zm-34.09-13.92c.26.54.59 1.04.99 1.52l-2.12.48zm45.02 25.13c-2.57 1.4-5.76 1.03-7.94-.93l-5.46-4.91c-.18-.17-.42-.26-.67-.26-.04 0-.08 0-.12 0-.29.04-.55.19-.71.44-.29.43-.62.85-.98 1.25-4.98 5.53-13.94 5.62-19.97.2-4.99-4.49-6.55-11.49-3.8-17.03.2-.4.11-.89-.23-1.19l-2.11-1.9c-2.25-2.03-2.43-5.52-.4-7.78.98-1.09 2.33-1.74 3.79-1.82 1.48-.07 2.89.43 3.97 1.41l5.28 4.76c-3.53 2.66-5.13 6.2-4.18 9.47.98 3.38 5.53 9.04 24.82 9.12l9.61 8.65-.94.51z"/><circle cx="48.95" cy="20.59" r="1.5"/><circle cx="30.97" cy="43.7" r="1.5"/></svg>