<svg id="Glyph_Icon" height="512" viewBox="0 0 64 64" width="512" xmlns="http://www.w3.org/2000/svg" data-name="Glyph Icon"><path d="m15.218 16.596c-.394 0-.715.321-.715.714s.321.714.715.714.714-.321.714-.714-.321-.714-.714-.714z"/><path d="m57.831 48.472c-5.873-4.131-21.405-16.292-27.217-22.071-2.991-2.974-3.332-3.772-3.953-5.222-.428-1.001-1.015-2.373-2.576-4.825-3.787-5.944-11.521-4.324-13.246-3.874-1.943-.713-3.636.113-3.712.151l-1.795.898 1.838.806c3.199 1.402 3.334 8.619 3.126 11.206-.975 5.937 1.82 12.43 7.12 16.542 4.408 3.42 9.559 4.404 13.866 2.683-13.187-3.732-13.434-17.554-13.435-17.71-.003-.536.403-.972.906-.975h.006c.501 0 .908.43.912.964.005.634.318 15.359 16.527 16.613 6.815-.117 13.666 4.959 16.234 6.864.248.184.462.343.64.471.977.704 2.109 1.069 3.302 1.069.158 0 .317-.006.478-.02.838-.067 1.523-.634 1.745-1.446.221-.809-.08-1.643-.765-2.125zm-42.613-28.566c-1.431 0-2.596-1.165-2.596-2.596s1.165-2.596 2.596-2.596 2.596 1.165 2.596 2.596-1.164 2.596-2.596 2.596zm18.32 19.394c-.123.407-.496.671-.901.671-.089 0-.18-.013-.271-.04-9.958-2.993-11.23-13.589-11.28-14.039-.056-.516.316-.979.831-1.037.508-.061.981.315 1.039.831.045.4 1.202 9.814 9.951 12.444.497.149.779.674.63 1.171z"/></svg>