<svg id="Capa_1" enable-background="new 0 0 512 512" height="512" viewBox="0 0 512 512" width="512" xmlns="http://www.w3.org/2000/svg"><g><g id="Page-1_49_"><g id="_x30_50---Full-Leaving-Box"><path id="Shape_446_" d="m77.714 164.571h-8.53c.82 6.28 2.452 12.426 4.855 18.286h135.333c2.403-5.859 4.035-12.006 4.855-18.286h-8.512c-5.049 0-9.143-4.093-9.143-9.143s4.093-9.143 9.143-9.143h8.512c-1.631-13.002-6.745-25.322-14.802-35.657l-5.989 5.989c-2.296 2.377-5.695 3.33-8.891 2.493-3.197-.837-5.693-3.333-6.53-6.53s.117-6.596 2.493-8.892l5.989-5.989c-10.332-8.047-22.645-13.155-35.639-14.784v8.512c0 5.049-4.093 9.143-9.143 9.143-5.049 0-9.143-4.093-9.143-9.143v-8.512c-13.002 1.631-25.322 6.745-35.657 14.802l5.989 5.989c2.377 2.296 3.33 5.695 2.493 8.891-.837 3.197-3.333 5.693-6.53 6.53s-6.596-.116-8.892-2.493l-5.989-5.989c-8.047 10.332-13.155 22.645-14.784 35.639h8.512c5.049 0 9.143 4.093 9.143 9.143s-4.094 9.144-9.143 9.144zm54.857-36.571c0-5.049 4.093-9.143 9.143-9.143 5.049 0 9.143 4.093 9.143 9.143v18.286h9.143c5.049 0 9.143 4.093 9.143 9.143s-4.093 9.143-9.143 9.143h-18.286c-5.049 0-9.143-4.093-9.143-9.143z"/><path id="Rectangle-path_20_" d="m105.143 429.714h45.714c5.049 0 9.143 4.093 9.143 9.143v27.429c0 5.049-4.093 9.143-9.143 9.143h-45.714c-5.049 0-9.143-4.093-9.143-9.143v-27.429c0-5.049 4.093-9.143 9.143-9.143z"/><path id="Shape_445_" d="m178.285 27.429v-18.286h-45.714c-5.049 0-9.143 4.093-9.143 9.143v47.543c6.018-1.223 12.144-1.836 18.286-1.829v-18.286c0-10.099 8.187-18.286 18.286-18.286h18.285z"/><path id="Rectangle-path_19_" d="m196.571 0h73.152v36.571h-73.152z"/><path id="Shape_444_" d="m342.857 30.053v-11.767c0-5.049-4.093-9.143-9.143-9.143h-45.714v18.286h18.286c10.099 0 18.286 8.187 18.286 18.286v64.795z"/><path id="Shape_443_" d="m160 274.286h182.857c10.099 0 18.286-8.187 18.286-18.286s-8.187-18.286-18.286-18.286h-182.857c-10.099 0-18.286 8.187-18.286 18.286s8.187 18.286 18.286 18.286z"/><path id="Shape_442_" d="m306.285 182.857v-137.143h-20.827c-3.24 5.639-9.24 9.123-15.744 9.143h-73.143c-6.504-.02-12.504-3.504-15.744-9.143h-20.827v20.114c17.456 3.576 33.484 12.183 46.107 24.759.073.073.183.091.256.174.073.082.101.183.174.256 24.088 23.999 32.682 59.479 22.245 91.84zm-27.428-18.286h-18.286c-5.049 0-9.143-4.093-9.143-9.143s4.093-9.143 9.143-9.143h18.286c5.049 0 9.143 4.093 9.143 9.143s-4.094 9.143-9.143 9.143zm0-36.571h-27.429c-5.049 0-9.143-4.093-9.143-9.143s4.093-9.143 9.143-9.143h27.429c5.049 0 9.143 4.093 9.143 9.143s-4.094 9.143-9.143 9.143zm-54.857-45.714c0-5.049 4.093-9.143 9.143-9.143h45.714c5.049 0 9.143 4.093 9.143 9.143 0 5.049-4.093 9.143-9.143 9.143h-45.714c-5.05 0-9.143-4.094-9.143-9.143z"/><path id="Shape_441_" d="m59.428 210.286v292.571c0 5.049 4.093 9.143 9.143 9.143h365.714c5.049 0 9.143-4.093 9.143-9.143v-292.571c0-5.049-4.093-9.143-9.143-9.143h-365.714c-5.049 0-9.143 4.093-9.143 9.143zm289.893 235.035c-3.57 3.569-9.358 3.569-12.928 0l-2.679-2.679v41.929c0 5.049-4.093 9.143-9.143 9.143-5.049 0-9.143-4.093-9.143-9.143v-41.929l-2.679 2.679c-3.587 3.465-9.29 3.415-12.817-.111-3.527-3.527-3.576-9.229-.111-12.817l18.286-18.286c3.57-3.569 9.358-3.569 12.928 0l18.286 18.286c3.569 3.57 3.569 9.358 0 12.928zm54.857-31.214 18.286 18.286c2.377 2.296 3.33 5.695 2.493 8.892s-3.333 5.693-6.53 6.53-6.596-.116-8.891-2.493l-2.679-2.679v41.929c0 5.049-4.093 9.143-9.143 9.143-5.049 0-9.143-4.093-9.143-9.143v-41.929l-2.679 2.679c-3.587 3.465-9.29 3.415-12.817-.111-3.527-3.527-3.576-9.229-.111-12.817l18.286-18.286c3.57-3.57 9.358-3.57 12.928-.001zm-244.178-194.678h182.857c20.198 0 36.571 16.374 36.571 36.571s-16.374 36.571-36.571 36.571h-182.857c-20.198 0-36.571-16.374-36.571-36.571s16.373-36.571 36.571-36.571zm-82.286 219.428c0-15.148 12.28-27.429 27.429-27.429h45.714c15.148 0 27.429 12.28 27.429 27.429v27.429c0 15.148-12.28 27.429-27.429 27.429h-45.714c-15.148 0-27.429-12.28-27.429-27.429z"/><path id="Shape_440_" d="m402.285 182.857h18.871l31.195-137.335c1.095-4.925-2.006-9.807-6.93-10.907l-71.707-16.101c-2.376-.553-4.875-.14-6.947 1.15-2.071 1.289-3.546 3.349-4.098 5.726l-35.785 157.467h18.944l12.571-55.323c2.26-9.862 12.076-16.033 21.943-13.797l17.92 4.032c4.738 1.059 8.86 3.958 11.458 8.059s3.459 9.066 2.393 13.802zm-2.87-84.27c-9.444.012-18.235-4.82-23.287-12.8-3.905-6.133-5.19-13.576-3.566-20.663 2.487-10.839 11.247-19.12 22.21-20.994 10.962-1.873 21.975 3.028 27.921 12.427 3.906 6.13 5.19 13.569 3.566 20.654-2.879 12.51-14.015 21.375-26.853 21.376z"/><path id="Shape_439_" d="m364.599 182.857h18.916l10.725-47.268-17.948-4.005z"/><path id="Shape_438_" d="m401.444 62.245c-4.955-1.124-9.889 1.957-11.054 6.903-.533 2.352-.109 4.819 1.179 6.857 1.999 3.151 5.694 4.794 9.372 4.169 3.679-.625 6.623-3.397 7.469-7.031.541-2.351.116-4.822-1.179-6.857-1.31-2.068-3.394-3.523-5.787-4.041z"/></g></g></g></svg>