<svg clip-rule="evenodd" fill-rule="evenodd" height="512" stroke-linejoin="round" stroke-miterlimit="2" viewBox="0 0 101 101" width="512" xmlns="http://www.w3.org/2000/svg"><path d="m94.531 49.935c0-1.702-1.098-3.209-2.717-3.732s-3.391.058-4.386 1.438l-6.475 8.98-1.32-2.001c-.953-1.446-2.742-2.095-4.401-1.598-1.658.498-2.794 2.025-2.794 3.757v15.219c0 1.205-.495 2.357-1.367 3.187-1.031.981-1.977 1.881-1.977 1.881-1.162 1.106-1.534 2.808-.939 4.297.596 1.49 2.038 2.466 3.642 2.466h23.375c1.603 0 3.046-.976 3.641-2.466.595-1.489.224-3.191-.938-4.297 0 0-.947-.9-1.977-1.881-.873-.83-1.367-1.982-1.367-3.187zm-58.484-11.89-12.032-5.402c-.388-.174-.822-.218-1.237-.124l-15.016 3.4c-1.056.239-1.719 1.29-1.48 2.346.239 1.055 1.29 1.718 2.346 1.479l14.378-3.255 18.886 8.479-8.09 5.682-15.687.725-11.588-7.868c-.895-.607-2.116-.374-2.724.521-.608.896-.374 2.116.521 2.724l9.185 6.236-5.685 3.328c-.934.546-1.249 1.748-.702 2.682s1.749 1.249 2.683.702l7.503-4.39c.111.014.223.018.336.013l10.174-.471-22.641 15.901c-3.769 2.647-4.552 7.156-2.753 10.016.005.007.009.014.013.02 1.8 2.861 6.203 4.106 10.221 1.854l33.938-19.027 2.897 4.12-5.209 3.153c-.233.141-.435.33-.591.553l-3.368 4.811c-.62.886-.404 2.11.482 2.731.887.62 2.111.404 2.731-.482l3.13-4.472 5.086-3.078 2.821 4.012c.47.668 1.304.975 2.094.771l8.628-2.226c1.048-.27 1.68-1.34 1.409-2.388-.27-1.048-1.34-1.679-2.388-1.409l-7.315 1.887-6.968-9.911 25.996-14.574c1.438-.806 2.218-2.426 1.952-4.054-.266-1.627-1.522-2.914-3.143-3.22l-7.104-1.341 2.53-4.305c.936-1.591.635-3.619-.722-4.87s-3.402-1.387-4.912-.327l-19.007 13.349-5.697-2.558.26-10.692c.014-.555-.209-1.09-.612-1.472l-10.484-9.917c-.786-.743-2.028-.709-2.772.077-.743.786-.709 2.028.077 2.772l9.85 9.317zm60.639-3.721-6.499 3.142c-.974.471-1.383 1.644-.912 2.619.471.974 1.645 1.383 2.619.912l6.499-3.142c.974-.471 1.383-1.644.912-2.619-.471-.974-1.645-1.383-2.619-.912zm-8.671-9.47-4.191 5.876c-.628.882-.423 2.107.458 2.735.882.629 2.107.423 2.735-.458l4.191-5.877c.629-.881.423-2.106-.458-2.734-.881-.629-2.106-.424-2.735.458zm-12.48-3.299-.853 7.168c-.128 1.074.641 2.051 1.716 2.178 1.074.128 2.051-.64 2.178-1.715l.853-7.167c.128-1.075-.64-2.051-1.715-2.179s-2.051.641-2.179 1.715z"/></svg>