<svg id="Layer_1" enable-background="new 0 0 512 512" viewBox="0 0 512 512" xmlns="http://www.w3.org/2000/svg"><path clip-rule="evenodd" d="m23.644 270.975 102.797-.001v-49.268c-11.583-8.426-25.84-13.399-41.259-13.399-33.221 0-61.052 23.07-68.352 54.062-1.042 4.419 2.276 8.606 6.814 8.606zm376.724 225.024 23.822-.359c4.184-.063 7.554-3.537 7.491-7.721l-.963-64.025c-.062-4.183-3.538-7.555-7.721-7.493l-.639.01-.181-35.918c41.261-5.163 73.184-40.366 73.184-83.026 0-46.215-37.465-83.68-83.68-83.68s-83.68 37.465-83.68 83.68c0 42.618 31.86 77.794 73.062 83.012l.183 36.25-2.072.031c-4.183.063-7.555 3.538-7.492 7.721l.963 64.025c.066 4.184 3.539 7.556 7.723 7.493zm11.315-256.031c31.756 0 57.5 25.744 57.5 57.5s-25.743 57.5-57.5 57.5c-31.756 0-57.5-25.744-57.5-57.5.001-31.756 25.744-57.5 57.5-57.5zm50.209-223.968c5.508 0 10 4.492 10 10v192.031c-11.133-8.452-24.096-14.616-38.189-17.796 1.739-1.467 2.845-3.663 2.845-6.117 0-4.418-3.582-8-8-8h-125.976c-4.418 0-8 3.582-8 8s3.582 8 8 8h79.984c-15.794 4.82-29.925 13.453-41.316 24.83h-38.668c-4.418 0-8 3.582-8 8s3.582 8 8 8h25.661c-10.259 15.668-16.23 34.397-16.23 54.521 0 .448.008.895.014 1.342h-9.446c-4.401 0-7.969 3.568-7.969 7.969s3.568 7.969 7.969 7.969h10.937c1.527 8.708 4.19 17.052 7.838 24.861h-18.776c-4.418 0-8 3.582-8 8s3.582 8 8 8h28.155c13.038 18.15 32.058 31.818 54.405 37.965l.06 11.872c-2.718 2.031-4.983 4.632-6.62 7.62h-226.13c-5.508 0-10-4.492-10-10v-377.067c0-5.508 4.492-10 10-10zm-17.866 397.066c-1.433-2.728-3.384-5.141-5.719-7.109l-.063-12.387c12.389-3.409 23.754-9.134 33.647-16.649v26.145c0 5.508-4.492 10-10 10zm-243.21-194.344 12.44 12.44c3.383 3.383 8.94 3.052 11.912-.671l17.715-21.9c2.779-3.434 2.247-8.471-1.187-11.25-3.435-2.778-8.471-2.247-11.25 1.187l-12.162 15.035-6.155-6.155c-3.124-3.124-8.189-3.124-11.312 0-3.125 3.125-3.125 8.19-.001 11.314zm0 112.661 12.44 12.44c3.383 3.383 8.94 3.052 11.912-.671l17.715-21.9c2.779-3.434 2.247-8.471-1.187-11.25-3.434-2.778-8.471-2.247-11.25 1.187l-12.162 15.035-6.155-6.156c-3.124-3.124-8.189-3.124-11.312 0-3.125 3.126-3.125 8.191-.001 11.315zm0-225.323 12.44 12.44c3.385 3.385 8.937 3.05 11.912-.671l17.715-21.899c2.779-3.435 2.247-8.471-1.187-11.25-3.435-2.779-8.471-2.247-11.25 1.187l-12.162 15.035-6.155-6.155c-3.124-3.124-8.189-3.124-11.312 0-3.125 3.125-3.125 8.189-.001 11.313zm-7.623-39.972c-4.074 0-7.408 3.334-7.408 7.408v56.75c0 4.075 3.334 7.408 7.408 7.408h56.751c4.074 0 7.408-3.333 7.408-7.408v-56.75c0-4.075-3.334-7.408-7.408-7.408zm0 112.662c-4.074 0-7.408 3.333-7.408 7.408v56.75c0 4.075 3.334 7.408 7.408 7.408h56.751c4.074 0 7.408-3.333 7.408-7.408v-56.75c0-4.075-3.334-7.408-7.408-7.408zm0 112.661c-4.074 0-7.408 3.333-7.408 7.408v56.75c0 4.074 3.334 7.408 7.408 7.408h56.751c4.074 0 7.408-3.334 7.408-7.408v-56.75c0-4.075-3.334-7.408-7.408-7.408zm109.379-161.124h125.975c4.418 0 8-3.582 8-8s-3.582-8-8-8h-125.975c-4.418 0-8 3.582-8 8s3.582 8 8 8zm0-40.83h125.975c4.418 0 8-3.582 8-8s-3.582-8-8-8h-125.975c-4.418 0-8 3.582-8 8s3.582 8 8 8zm-171.625 356.745h170.619v49.798h-170.619zm-16 45.179-35.126-20.28 35.126-20.28zm202.557-45.179h16.252c11.428 0 20.749 9.321 20.749 20.749v8.3c0 11.428-9.321 20.749-20.749 20.749h-16.253v-49.798zm-232.323-318.904c19.609 0 35.505 15.896 35.505 35.505s-15.896 35.505-35.505 35.505-35.505-15.896-35.505-35.505 15.896-35.505 35.505-35.505z" fill-rule="evenodd"/></svg>