<svg id="Capa_1" enable-background="new 0 0 512 512" height="512" viewBox="0 0 512 512" width="512" xmlns="http://www.w3.org/2000/svg"><g><g><g><path d="m437.378 263.41c3.678 0 6.67-2.992 6.67-6.669 0-3.678-2.992-6.669-6.67-6.669s-6.669 2.992-6.669 6.669 2.992 6.669 6.669 6.669z"/><path d="m437.378 176.076c7.298 0 13.236-5.938 13.236-13.236v-18.84h-26.472v18.839c0 7.299 5.938 13.237 13.236 13.237z"/><path d="m437.378 285.41c-7.298 0-13.236 5.938-13.236 13.236s5.938 13.236 13.236 13.236 13.236-5.938 13.236-13.236-5.937-13.236-13.236-13.236z"/><path d="m472.614 144v18.839c0 19.429-15.807 35.236-35.236 35.236s-35.236-15.807-35.236-35.236v-18.839h-46.432v224.344h156.29v-224.344zm-35.236 189.882c-19.429 0-35.236-15.807-35.236-35.236 0-10.259 4.409-19.505 11.429-25.95-3.069-4.564-4.862-10.054-4.862-15.955 0-15.808 12.861-28.669 28.669-28.669 15.809 0 28.669 12.861 28.669 28.669 0 5.902-1.794 11.391-4.863 15.956 7.02 6.445 11.429 15.691 11.429 25.95.001 19.428-15.805 35.235-35.235 35.235z"/></g><g><path d="m73.645 223.556c-7.298 0-13.236 5.938-13.236 13.236v38.76c0 7.298 5.938 13.236 13.236 13.236s13.236-5.938 13.236-13.236v-38.76c0-7.298-5.938-13.236-13.236-13.236z"/><path d="m0 144v224.344h154.823v-224.344zm108.881 131.552c0 19.429-15.807 35.236-35.236 35.236s-35.236-15.807-35.236-35.236v-38.76c0-19.429 15.807-35.236 35.236-35.236s35.236 15.807 35.236 35.236z"/></g><g><path d="m184.823 144v224.344h140.887v-224.344zm106.413 131.552c0 19.429-15.807 35.236-35.236 35.236s-35.236-15.807-35.236-35.236v-38.76c0-19.429 15.807-35.236 35.236-35.236s35.236 15.807 35.236 35.236z"/><path d="m256 223.556c-7.298 0-13.236 5.938-13.236 13.236v38.76c0 7.298 5.938 13.236 13.236 13.236s13.236-5.938 13.236-13.236v-38.76c0-7.298-5.937-13.236-13.236-13.236z"/></g></g><g><path d="m497 444h-482c-8.284 0-15-6.716-15-15v-30.656h512v30.656c0 8.284-6.716 15-15 15z"/><path d="m512 114h-512v-31c0-8.284 6.716-15 15-15h482c8.284 0 15 6.716 15 15z"/></g></g></svg>