<svg id="Capa_1" enable-background="new 0 0 512 512" height="512" viewBox="0 0 512 512" width="512" xmlns="http://www.w3.org/2000/svg"><g><path d="m377 136v53.807c14.015-5.643 29.193-8.807 45-8.807 5.136 0 10.032.886 15 1.516v-16.516c0-24.853-20.147-45-45-45-8.284 0-15 6.714-15 15z"/><path d="m422 211c-37.134 0-70.005 22.91-83.511 56.353l-64.552-21.18c-36.046-57.614-100.937-95.173-171.911-95.173h-27.026c-5.405 0-10.386 2.9-13.052 7.603s-2.593 10.474.19 15.117l59.905 99.842c-6.233 6.735-11.708 14.068-16.415 21.855l-50.023-50.023c-5.859-5.859-15.352-5.859-21.211 0l-30 30c-5.859 5.859-5.859 15.352 0 21.211s15.352 5.859 21.211 0l19.395-19.394 24.36 24.36c-38.679 2.941-69.36 35.008-69.36 74.429 0 8.291 6.709 15 15 15h407c49.629 0 90-40.371 90-90s-40.371-90-90-90zm25.605 85.605-30 30c-5.859 5.859-15.352 5.859-21.211 0s-5.859-15.352 0-21.211l30-30c5.859-5.859 15.352-5.859 21.211 0s5.86 15.352 0 21.211z"/></g></svg>