<svg id="Layer_1" viewBox="0 0 64 64" xmlns="http://www.w3.org/2000/svg" data-name="Layer 1"><path d="m25.64 18.85c2.14 0 3.87-1.74 3.87-3.88s-1.73-3.87-3.87-3.87-3.87 1.74-3.87 3.87 1.73 3.88 3.87 3.88z"/><path d="m6.54 38.61h16.62l9.32 17.3c.82 1.53 2.39 2.39 4.01 2.39.72 0 1.46-.17 2.14-.54l20.98-11.31c2.2-1.19 3.03-3.95 1.85-6.15l-11.3-20.98c-1.2-2.21-3.96-3.04-6.16-1.85l-9.08 4.89v-12.12c0-2.5-2.04-4.54-4.55-4.54h-23.83c-2.5 0-4.54 2.04-4.54 4.54v23.83c0 2.51 2.04 4.54 4.54 4.54zm33.98-10.38c.3-.99.97-1.81 1.88-2.3s1.96-.6 2.95-.3 1.8.96 2.29 1.87.6 1.96.3 2.95c-.29.99-.96 1.81-1.87 2.3-.57.31-1.2.47-1.83.47-.37 0-.75-.06-1.12-.17-.99-.3-1.81-.96-2.3-1.87s-.59-1.96-.3-2.95zm-5.83 16.38c.3-1 .96-1.81 1.87-2.3.92-.49 1.96-.6 2.95-.3.99.29 1.81.96 2.3 1.87 1.01 1.88.31 4.24-1.57 5.25-.58.31-1.21.46-1.83.46-1.38 0-2.72-.74-3.42-2.03v-.01c-.49-.91-.6-1.95-.3-2.94zm-30.69-34.37c0-1.4 1.14-2.54 2.54-2.54h23.83c1.4 0 2.55 1.14 2.55 2.54v23.83c0 1.21-.86 2.23-2 2.48-.01 0-.03.01-.04.01-.16.03-.34.05-.51.05h-23.83c-1.4 0-2.54-1.14-2.54-2.54z"/><path d="m11.27 18.85c2.14 0 3.88-1.74 3.88-3.88s-1.74-3.87-3.88-3.87-3.87 1.74-3.87 3.87 1.74 3.88 3.87 3.88z"/><path d="m11.27 33.21c2.14 0 3.88-1.73 3.88-3.87s-1.74-3.87-3.88-3.87-3.87 1.74-3.87 3.87 1.74 3.87 3.87 3.87z"/><circle cx="25.64" cy="29.34" r="3.87"/></svg>