<svg id="Layer_1" enable-background="new 0 0 500 500" viewBox="0 0 500 500" xmlns="http://www.w3.org/2000/svg"><path clip-rule="evenodd" d="m367.475 373.055c-15.41-19.319-32.12-43.497-44.032-68.915-10.469-22.337-17.228-45.654-16.236-67.608.506-11.186 3.127-21.791 7.448-31.375.125-.278.103-.576-.062-.833-.166-.256-.428-.399-.733-.399h-12.905c-.186 0-.346.05-.499.156l-13.084 9.096c-.008.006-.015.011-.023.017-24.903 18.565-24.852 22.436-24.755 29.858.082 6.254.187 14.268-5.827 28.428-2.024 4.765-4.663 9.243-7.993 13.396-2.868 3.575-7.985 8.642-12.176 11.436l-22.338 14.892-.012-.018c-1.876 1.254-3.04 2.689-3.882 4.793l-7.168 17.855c-.01.025-.019.046-.031.07-5.299 10.443-13.71 17.223-25.07 19.979-9.079 2.203-12.9.989-21.545 1.216-2.995.079-6.081.294-9.254.64-18.107 1.977-20.485 3.76-33.418 16.701-12.49 12.498-23.285 31.952-31.876 48.604-.144.278-.133.587.03.854.163.268.432.419.746.419h366.826c.285 0 .53-.123.7-.351s.218-.498.136-.771l-23.169-77.616c-.099-.331-.364-.562-.706-.613-.342-.052-.663.089-.856.377-7.166 10.674-14.806 20.676-22.384 29.697-.224.266-.27.615-.123.93s.444.504.791.504h17.38c3.617 0 6.549 2.932 6.549 6.549s-2.932 6.549-6.549 6.549c-24.142 0-48.284 0-72.426 0-3.617 0-6.549-2.932-6.549-6.549s2.932-6.549 6.549-6.549h17.842c.344 0 .638-.185.787-.494.15-.311.111-.656-.103-.925zm-47.221-135.96c1.615-35.729 29.204-65.866 64.91-65.866 36.174 0 63.951 30.897 64.961 67.173 1.339 48.066-34.311 101.496-64.308 134.849-.174.194-.4.292-.661.288-.261-.003-.484-.108-.653-.306-16.313-19.149-36.521-47.473-49.243-74.618-9.652-20.597-15.894-41.876-15.006-61.52zm64.91 31.923c-18.954 0-34.319-15.365-34.319-34.319s15.365-34.319 34.319-34.319 34.319 15.365 34.319 34.319-15.365 34.319-34.319 34.319zm-224.292-3.936c-.175.195-.403.294-.665.29-.262-.005-.486-.112-.654-.313-15.426-18.459-33.384-43.182-45.532-69.102-8.982-19.165-14.792-38.958-13.966-57.216 1.497-33.114 27.056-61.057 60.148-61.057 33.528 0 59.26 28.649 60.196 62.27 1.24 44.517-31.69 94.07-59.527 125.128zm31.362-128.595c0-17.69-14.341-32.031-32.031-32.031s-32.031 14.341-32.031 32.031 14.341 32.031 32.031 32.031 32.031-14.341 32.031-32.031zm-.815 191.685c-.011.028-.022.051-.036.078-2.241 4.314-5.251 7.763-9.368 10.165-4.298 2.508-10.38 3.904-15.499 3.792-.006 0-.01 0-.016-.001-7.556-.305-13.01-.291-20.584.536-21.333 2.33-26.336 5.516-41.297 20.487-15.202 15.211-27.706 38.875-37.691 58.608-.152.301-.442.479-.779.479h-15.755c-.285 0-.53-.123-.7-.352s-.218-.499-.136-.772l60.377-201.585c.102-.342.383-.576.738-.617.355-.04.681.125.857.436 9.524 16.738 20.656 32.396 31.186 45.663.213.269.251.613.102.922s-.443.493-.786.493h-15.627c-3.617 0-6.549 2.932-6.549 6.549s2.932 6.549 6.549 6.549h67.598c3.617 0 6.549-2.932 6.549-6.549s-2.932-6.549-6.549-6.549h-15.163c-.347 0-.644-.189-.791-.503s-.102-.663.12-.929c14.438-17.296 28.991-38.295 39.556-60.648.148-.313.444-.5.789-.5h56.836c.381 0 .705.232.827.593s.006.742-.297.973c-41.604 31.816-17.584 28.968-31.137 60.872-3.093 7.281-8.517 14.239-15.157 18.889-.006.004-.011.007-.017.011l-22.575 15.042.012.018c-4.008 2.589-7.002 6.383-8.766 10.794z" fill-rule="evenodd"/></svg>