<svg id="Capa_1" enable-background="new 0 0 512 512" height="512" viewBox="0 0 512 512" width="512" xmlns="http://www.w3.org/2000/svg"><path d="m511.975 183.41c-.515-30.622-9.202-53.728-25.819-68.676-23.422-21.07-61.934-24.884-111.368-11.027-25.603 7.176-54.184 19.172-82.263 34.316 26.723 57.569 44.665 127.583 44.665 174.36 0 61.871-30.853 116.666-77.976 149.827 14.974 4.733 30.647 7.184 46.484 7.184 5.998 0 12.02-.349 18.034-1.054 37.195-4.362 71.487-22.114 96.558-49.984 28.339-31.501 60.154-92.776 77.367-149.009 9.916-32.389 14.733-61.302 14.318-85.937z"/><path d="m266.052 149.86c-14.29-30.709-30.047-55.427-46.831-73.464-20.863-22.42-42.774-33.789-65.125-33.789s-44.263 11.369-65.126 33.789c-16.784 18.038-32.54 42.755-46.831 73.464-24.811 53.319-42.139 120.15-42.139 162.523 0 84.969 69.127 154.096 154.096 154.096s154.096-69.127 154.096-154.096c-.001-42.373-17.329-109.205-42.14-162.523z"/></svg>