<svg id="Capa_1" enable-background="new 0 0 510.917 510.917" height="512" viewBox="0 0 510.917 510.917" width="512" xmlns="http://www.w3.org/2000/svg"><g><path d="m228.138 151.391c-13.198-48.837-64.056-120.708-109.249-119.399-25.385-.001-55.179 21.606-79.696 57.798-61.71 89.827-58.696 226.251 68.319 244.788 6.48-69.512 55.96-160.758 120.626-183.187z"/><path d="m255.457 176.591c-68.106 4.111-122.32 117.29-119.431 183.699 5.99 158.2 232.875 158.209 238.865 0 2.952-66.33-51.376-179.679-119.434-183.699z"/><path d="m471.722 89.79c-24.517-36.192-54.311-57.8-79.698-57.8-45.216-1.282-96.034 70.536-109.248 119.401 64.702 22.479 114.113 113.623 120.627 183.187 127.06-18.573 130.005-154.97 68.319-244.788z"/></g></svg>