<svg enable-background="new 0 0 512 512" viewBox="0 0 512 512" xmlns="http://www.w3.org/2000/svg"><g id="_x32_7_x2C__Eggs_x2C__basket_x2C__food_and_restaurant_x2C__farming_and_gardening_x2C__farm_x2C__bakery"><g><g><g><path d="m208.557 201.241c-11.805 14.698-19.158 33.906-21.099 54.759h137.084c-1.941-20.853-9.294-40.061-21.099-54.759-26.684-33.225-68.172-33.262-94.886 0z"/><path d="m178.925 222.012c4.197-11.327 9.974-21.746 17.206-30.752 14.395-17.923 32.658-28.048 51.423-30.381-3.825-40.672-29.85-80.192-68.575-80.192-38.947 0-64.948 39.92-68.614 80.649 30.468 3.715 56.142 27.349 68.56 60.676z"/><path d="m315.869 191.26c7.233 9.006 13.009 19.425 17.206 30.752 12.414-33.318 38.078-56.949 68.536-60.672-3.79-40.562-29.757-80.216-68.57-80.216-38.72 0-64.59 39.426-68.528 79.765 18.742 2.348 36.977 12.468 51.356 30.371z"/><path d="m362.723 201.543c-11.779 14.605-19.151 33.705-21.155 54.457h136.989c-2.004-20.752-9.376-39.853-21.155-54.457-26.649-33.043-67.997-33.084-94.679 0z"/><path d="m1 271.938h510v23.906h-510z"/><path d="m149.277 201.543c-26.649-33.043-67.997-33.084-94.679 0-11.779 14.604-19.151 33.705-21.155 54.457h136.989c-2.004-20.752-9.376-39.853-21.155-54.457z"/><path d="m55.124 431.313h83.003l17.307-73.544c.848-3.599 4.059-6.144 7.757-6.144h26.243c3.698 0 6.909 2.544 7.757 6.144l17.307 73.544h83.004l17.307-73.544c.848-3.599 4.059-6.144 7.757-6.144h26.243c3.698 0 6.909 2.544 7.757 6.144l17.307 73.544h83.003l28.125-119.531h-458.002z"/></g></g></g></g><g id="Layer_1"/></svg>