<svg id="Capa_1" enable-background="new 0 0 512.019 512.019" height="512" viewBox="0 0 512.019 512.019" width="512" xmlns="http://www.w3.org/2000/svg"><g><path d="m509.805 172.84v130.27c0 10.16-8.24 18.4-18.4 18.4s-18.4-8.24-18.4-18.4v-120.92c0-8.08-6.2-15.03-14.27-15.41-8.61-.41-15.73 6.46-15.73 14.98v88.88h-110.7v-88.88c0-8.52-7.12-15.39-15.73-14.98-8.07.38-14.27 7.33-14.27 15.41v120.92c0 10.16-8.24 18.4-18.4 18.4s-18.4-8.24-18.4-18.4v-130.27c0-36.49 29.58-66.08 66.08-66.08h5.05c13.68 11.88 31.52 19.08 51.02 19.08s37.34-7.2 51.02-19.08h5.05c36.5 0 66.08 29.59 66.08 66.08z"/><path d="m443.005 300.64h-110.65v190.616c-.572 13.389 10.062 21.314 20.591 20.734 9.938-.301 19.739-7.122 19.739-20.167v-146.183c0-8.28 6.71-15 15-15 4.14 0 7.89 1.68 10.61 4.4 2.71 2.71 4.39 6.46 4.39 10.6v146.017c0 13.245 10.133 20.074 20.239 20.178 10.334.344 20.612-7.426 20.081-20.579z"/><path d="m435.571 47.916c0-26.418-21.49-47.916-47.916-47.916-26.427 0-47.916 21.498-47.916 47.916 0 26.427 21.49 47.925 47.916 47.925s47.916-21.498 47.916-47.925z"/><path d="m191.915 229.855c-11.81.04-21.47 10.33-21.47 22.15v98.34c0 9.41-7.54 17.07-16.92 17.26-9.68.19-17.61-8.03-17.61-17.72v-98.48c0-16.04 6.77-30.52 17.61-40.75 9.07-8.56 20.98-14.13 34.15-15.14v-168.98c0-6.77-2.63-13.14-7.43-17.93-4.8-4.82-11.17-7.45-17.95-7.45-3.06 0-6.02.55-8.77 1.57-7.96 2.95-14.17 9.8-16.06 18.43l-46.55 255.43c-.01.05-.01.09-.02.14-6.98 47.48-36.6 87.81-80.64 111.12-4.93 2.61-8.04 7.71-8.04 13.28v94.72c0 8.28 6.72 15 15 15h68.8c24.78 0 47.92-7.1 67.51-19.37 36.03-22.56 60.04-62.62 60.04-108.17v-131.42c0-5.66-2.03-11.21-5.93-15.31-4.141-4.35-9.74-6.75-15.72-6.72z"/></g></svg>