<svg id="Layer_1" height="512" viewBox="0 0 64 64" width="512" xmlns="http://www.w3.org/2000/svg"><path d="m18.27 20.786 1.73-7.786s-6-1-9 6c-6 0-7 3-7 3l4.12 3.296 10.15-4.511z"/><path d="m9.244 26.986.515 2.089 9.045-3.014-.605-3.055z"/><path d="m16 44.38c0-5.428 2.147-10.619 5.919-14.447l-2.122-2.095-4.654 1.552c.087 1.894-.138 5.277-2.344 8.212-.197.262-.629.674-1.4.199-.441-.332-.53-.959-.199-1.4 1.639-2.18 1.961-4.689 1.958-6.349l-3.84 1.28-7.309 13.739c-1.31 1.91-2.01 4.17-2.01 6.48 0 6.33 5.12 11.45 11.45 11.45h1.673c-3.305-3.295-4.072-7.617-4.109-7.836-.091-.544.276-1.058.82-1.149.543-.085 1.06.275 1.152.819.009.055.975 5.405 5.315 8.166h5.799c1.546 0 3.026-.237 4.422-.675-1.632-.921-3.157-2.044-4.472-3.366-3.901-3.878-6.05-9.056-6.05-14.578z"/><path d="m39.316 20.051 8.017 2.674c.016.005.031.009.046.015l3.863 1.288.506-2.026-11.071-6.039-1.362 4.087z"/><path d="m44.626 15.839-.613-3.675c-.091-.544.277-1.06.822-1.15.547-.095 1.061.277 1.15.822l.87 5.22 5.851 3.192 5.213-5.547s-1.92-3.7-6.92-2.7c-4-7-12.54-7-12.54-7l2.204 8.678 3.962 2.161z"/><path d="m61.7 41.31-9.814-14.959-3.755-1.252c.238 2.341.888 5.931 2.668 8.301.331.441.242 1.068-.199 1.4-.546.393-1.204.062-1.4-.199-2.315-3.083-2.957-7.75-3.136-10.192l-2.441-.814c-.811 1.636-1.623 3.897-1.623 6.405 0 .553-.447 1-1 1s-1-.447-1-1c0-2.757.841-5.218 1.713-7.042l-3.819-1.274-11.075 6.856c-.92.57-1.77 1.21-2.56 1.92-3.94 3.49-6.26 8.54-6.26 13.92 0 5.14 2.08 9.8 5.46 13.16 1.83 1.84 4.05 3.3 6.53 4.24h.01c1.86.713 3.864 1.114 5.95 1.189-4.692-4.467-3.98-10.787-3.942-11.093.068-.548.562-.935 1.116-.868.548.068.937.567.868 1.115-.038.32-.772 7.237 5.301 10.877h8.181c2.479-3.674 2.526-8.946 2.526-9.001 0-.552.448-.999 1-.999.552 0 .999.448.999 1 0 .228-.03 4.987-2.187 9h.177c7.74 0 14.01-6.27 14.01-14.01 0-2.73-.8-5.4-2.3-7.68zm-31.723-7.669c-3.742 2.315-5.977 6.33-5.977 10.739 0 .553-.447 1-1 1s-1-.447-1-1c0-5.106 2.589-9.757 6.924-12.44.47-.291 1.086-.146 1.377.324.29.47.146 1.086-.324 1.377zm3.023-1.641c-.552 0-1-.448-1-1s.448-1 1-1 1 .448 1 1-.448 1-1 1z"/></svg>