<svg id="Layer_1" enable-background="new 0 0 512 512" viewBox="0 0 512 512" xmlns="http://www.w3.org/2000/svg"><g id="Layer_2_00000124132528900259322310000015100939307933841572_"><g id="Layer_2_copy_11"><g id="_1"><path d="m50.3 83h90.3c12.4 0 22.4 10 22.4 22.3v1.3c0 12.3-10 22.3-22.4 22.3h-90.3c-12.3.1-22.3-9.9-22.3-22.2v-1.3c0-12.4 10-22.4 22.3-22.4z"/><path d="m50.3 183h90.3c12.3 0 22.4 10 22.4 22.4v1.3c0 12.3-10 22.4-22.4 22.4h-90.3c-12.3-.1-22.3-10.1-22.3-22.5v-1.3c0-12.3 10-22.3 22.3-22.3z"/><path d="m50.3 283h90.3c12.3 0 22.4 10 22.4 22.4v1.3c0 12.3-10 22.4-22.4 22.4h-90.3c-12.3-.1-22.3-10.1-22.3-22.5v-1.3c0-12.3 10-22.3 22.3-22.3z"/><path d="m50.3 383h90.3c12.3 0 22.4 10 22.4 22.4v1.3c0 12.3-10 22.4-22.4 22.4h-90.3c-12.3-.1-22.3-10.1-22.3-22.5v-1.3c0-12.3 10-22.3 22.3-22.3z"/><path d="m394 0h-222c-40.7 0-76.3 27.3-86.9 66.6h55.5c21.4 0 38.7 17.4 38.8 38.8v1.3c0 21.4-17.4 38.7-38.8 38.8h-58.6v21.2h58.6c21.4 0 38.7 17.4 38.8 38.8v1.3c0 21.4-17.4 38.7-38.8 38.8h-58.6v21.2h58.6c21.4 0 38.7 17.4 38.8 38.8v1.3c0 21.4-17.4 38.7-38.8 38.8h-58.6v21.2h58.6c21.4 0 38.7 17.4 38.8 38.8v1.3c0 21.4-17.4 38.7-38.8 38.8h-55.5c10.6 38.9 46.2 66.2 86.9 66.2h222c49.7 0 90-40.3 90-90v-332c0-49.7-40.3-90-90-90zm-102.1 384.2c-16.6-.4-28.3-12.3-27.9-28.6.3-15.3 13-27.4 28.3-27h.1c16.2.3 27.8 12.5 27.4 28.8-.2 15-12.6 27-27.6 26.8-.1.1-.2.1-.3 0zm67.7-149.5c-8.6 8.9-18 17-27 25.5-4.1 3.9-8.3 7.7-11.7 12.1-2.4 3.1-4 7.1-5.3 10.9-1.6 4.8-2.3 9.9-4 14.6-5.8 16.3-25.9 16.2-35.2 9.4-7.5-5.5-9.6-13.1-9.6-21.8 0-17.9 6.4-33.1 19.4-45.4 9.4-8.8 18.9-17.5 28.2-26.3 2.3-2.2 4.4-4.7 6.1-7.4 8.2-12.6 2.5-28.8-12.1-34.4-8.8-3.4-17.8-3-26.7 0-5.3 1.8-8.8 5.7-11.8 10.2-4.3 6.6-7 13.9-9.6 21.2-1.8 5.6-5.4 10.5-10.2 14-7.7 5.4-20.7 4.9-28.1-1-9-7.1-11.8-16.2-9.7-27.2 3.8-19.7 14.5-34.7 30.8-46 15.8-11 33.5-15.4 54.6-15.5 15.6.1 32.3 3.5 47.4 13.1 19.1 12.2 30 29.4 30.9 52.3.7 16.3-5.4 30.2-16.4 41.7z"/></g></g></g></svg>