<svg clip-rule="evenodd" fill-rule="evenodd" stroke-linejoin="round" stroke-miterlimit="2" viewBox="0 0 512 512" xmlns="http://www.w3.org/2000/svg" xmlns:serif="http://www.serif.com/"><g transform="translate(0 -562)"><g id="Icons"><path d="m84.949 785.761c.6-1.762 1.248-3.704 1.853-5.588.7-2.181 1.309-4.151 1.713-5.679.395-1.495.558-2.455.558-2.455.257-2.192-1.315-4.181-3.507-4.438-2.193-.257-4.182 1.315-4.438 3.508 0 0-.063.972-.024 2.517.04 1.58.177 3.638.354 5.921.161 2.077.355 4.228.54 6.158-4.36.189-7.908 1.613-10.48 3.84-.767.665-1.459 1.406-2.067 2.218-1.548-1.831-3.535-4.154-5.463-6.333-1.518-1.714-2.902-3.243-4.01-4.371-1.084-1.102-1.826-1.733-1.826-1.733-1.754-1.339-4.267-1.003-5.607.752-1.339 1.754-1.003 4.267.752 5.607 0 0 .804.549 2.152 1.305 1.38.772 3.219 1.704 5.273 2.717 2.665 1.314 5.493 2.648 7.687 3.668-1.632 2.946-2.309 6.625-1.735 10.865-2.263.425-5.022.959-7.649 1.51-2.241.47-4.255.916-5.783 1.321-1.494.396-2.409.729-2.409.729-2.033.862-2.984 3.211-2.122 5.244.861 2.032 3.211 2.983 5.244 2.122 0 0 .875-.427 2.199-1.225 1.354-.816 3.074-1.953 4.971-3.237 2.062-1.395 4.192-2.883 5.989-4.153.95 3.725 2.916 6.27 5.346 7.861.859.562 1.799 1 2.802 1.316-.713 1.695-1.483 3.557-2.208 5.366-.851 2.126-1.596 4.049-2.106 5.545-.499 1.463-.73 2.409-.73 2.409-.41 2.169 1.019 4.263 3.188 4.673s4.263-1.018 4.673-3.188c0 0 .131-.965.2-2.509.072-1.579.079-3.641.063-5.931-.014-1.947-.052-3.96-.097-5.797 2.967.233 6.242-.416 9.42-1.924.953 1.488 1.996 3.097 3.023 4.643 1.267 1.908 2.427 3.613 3.369 4.882.921 1.242 1.569 1.969 1.569 1.969 1.553 1.569 4.088 1.581 5.657.028s1.582-4.088.029-5.657c0 0-.721-.655-1.952-1.589-1.26-.955-2.953-2.132-4.848-3.418-1.273-.865-2.589-1.74-3.843-2.566 1.219-.814 2.403-1.763 3.526-2.844 9.439-5.402 18.132-12.561 26.12-21.355 2.456-2.703 4.192-6.35 5.441-10.332 14.647 29.239 31.028 53.703 49.726 71.61-4.907-.575-9.814-.724-14.721-.409-4.963.32-10.172 2.608-15.509 5.185-4.247 2.05-8.598 4.284-13.055 5.287-.745-.189-1.487-.349-2.221-.481.691-2.015 1.477-4.353 2.202-6.609.699-2.18 1.308-4.151 1.712-5.679.395-1.494.559-2.454.559-2.454.256-2.193-1.315-4.182-3.508-4.438-2.193-.257-4.181 1.314-4.438 3.507 0 0-.063.972-.024 2.517.04 1.58.177 3.638.354 5.921.182 2.344.405 4.781.611 6.89-5.702-.525-10.793.753-13.899 3.816-1.291-1.513-2.753-3.208-4.182-4.822-1.518-1.715-2.902-3.244-4.01-4.371-1.084-1.103-1.826-1.733-1.826-1.733-1.754-1.34-4.266-1.003-5.606.751-1.34 1.755-1.003 4.267.751 5.607 0 0 .804.55 2.153 1.305 1.379.772 3.218 1.704 5.272 2.717 1.921.947 3.926 1.905 5.718 2.748-1.213 2.004-1.909 4.525-1.815 7.652.049 1.624.256 3.089.599 4.408-1.94.37-4.111.797-6.199 1.235-2.241.471-4.255.916-5.783 1.321-1.494.397-2.409.729-2.409.729-2.033.862-2.983 3.212-2.122 5.244.862 2.033 3.211 2.983 5.244 2.122 0 0 .876-.427 2.199-1.225 1.354-.816 3.074-1.953 4.971-3.237 1.72-1.163 3.487-2.392 5.068-3.504.981 2.056 2.369 3.649 4.026 4.866 1.567 1.15 3.45 1.95 5.564 2.428-.846 1.997-1.823 4.34-2.728 6.6-.851 2.126-1.597 4.049-2.107 5.545-.499 1.463-.729 2.409-.729 2.409-.41 2.169 1.018 4.263 3.187 4.673 2.17.41 4.264-1.018 4.674-3.187 0 0 .13-.965.2-2.51.071-1.579.079-3.641.062-5.931-.018-2.457-.074-5.019-.134-7.201 2.89.312 6.102.12 9.459-.516.953 1.487 1.995 3.094 3.021 4.64 1.267 1.907 2.427 3.613 3.369 4.882.922 1.241 1.57 1.968 1.57 1.968 1.553 1.569 4.087 1.582 5.656.029 1.569-1.554 1.582-4.088.029-5.657 0 0-.72-.656-1.952-1.589-1.26-.955-2.953-2.133-4.848-3.419-.848-.576-1.716-1.157-2.571-1.725 7.649-1.697 15.315-4.263 22.98-7.715 11.024 8.721 22.416 14.437 34.18 16.883-.574 11.65-5.366 29.375-7.916 48.809-2.939 22.4-2.946 46.929 8.483 67.555 13.635 24.6 34.203 42.56 69.151 49.55 10.315 2.07 23.123.41 36.766-4.91 19.763-7.7 41.4-23.08 59.547-45.25 16.424-20.074 31.992-37.766 48.296-48.765 15.49-10.45 31.62-14.697 49.863-8.486 4.248 1.447 7.08-.798 8.093-3.418.959-2.478.422-5.983-3.204-8-23.745-13.208-45.034-8.908-65.362 3.312-12.939 7.777-25.489 18.834-38.044 30.415-15.255 14.072-30.524 28.932-46.653 39.232-15.389 9.82-31.546 15.47-49.314 11.57-23.181-5.09-34.106-22.83-36.045-45.338-1.973-22.913 5.158-50.625 18.431-75.895 9.466 1.435 19.2 1.711 29.185.897 3.522 7.911 7.943 15.374 13.449 22.293.305.587.617 1.154.935 1.698-1.779.623-3.738 1.322-5.622 2.019-2.148.795-4.074 1.532-5.526 2.157-1.42.612-2.276 1.075-2.276 1.075-1.884 1.151-2.479 3.615-1.328 5.499s3.615 2.479 5.499 1.328c0 0 .804-.551 1.995-1.535 1.219-1.006 2.754-2.384 4.441-3.932 1.498-1.375 3.033-2.818 4.412-4.129 2.921 4.124 6.266 6.684 9.698 7.747.806.25 1.625.426 2.456.525-.378 1.875-.786 3.957-1.155 5.973-.413 2.252-.762 4.285-.965 5.852-.198 1.533-.237 2.506-.237 2.506.029 2.208 1.844 3.977 4.052 3.948 2.207-.028 3.976-1.844 3.948-4.051 0 0-.064-.972-.302-2.499-.244-1.562-.645-3.585-1.116-5.826-.416-1.983-.872-4.031-1.295-5.88 3.383-.347 6.888-1.991 10.357-5.188.274-.253.537-.507.788-.763 1.225 1.062 2.537 2.187 3.821 3.266 1.754 1.473 3.347 2.783 4.609 3.735 1.233.931 2.06 1.446 2.06 1.446 1.932 1.068 4.368.366 5.436-1.566 1.067-1.933.365-4.368-1.567-5.436 0 0-.876-.426-2.321-.975-1.477-.561-3.434-1.213-5.614-1.914-1.388-.445-2.815-.89-4.183-1.308 1.792-2.723 2.47-5.55 2.254-8.29-.131-1.669-.626-3.354-1.485-5 1.382-.383 2.824-.79 4.227-1.2 2.198-.643 4.171-1.243 5.663-1.765 1.459-.51 2.346-.912 2.346-.912 1.96-1.017 2.726-3.433 1.71-5.393s-3.432-2.726-5.392-1.71c0 0-.84.493-2.098 1.391-1.287.919-2.914 2.186-4.706 3.612-1.251.996-2.528 2.033-3.73 3.019-1.876-2.268-4.505-4.385-7.892-6.184.522-1.5 1.067-3.095 1.582-4.651.719-2.174 1.345-4.139 1.762-5.664.408-1.491.58-2.449.58-2.449.276-2.19-1.278-4.193-3.468-4.469s-4.193 1.278-4.469 3.468c0 0-.071.972-.046 2.517.026 1.581.145 3.64.302 5.924.009.13.018.261.027.392-2.42-4.139-4.515-8.894-6.677-12.983-2.584-4.887-5.378-8.89-8.457-10.826-11.388-7.163-24.146-12.077-38.395-14.539 7.389-28.604 6.343-54.539-8.077-81.208-5.153-9.529-14.209-18.573-24.678-26.965-15.063-12.073-33.05-22.853-45.537-32.115-4.994-3.704-9.075-7.115-11.563-10.285-.746-.949-1.354-1.833-1.71-2.689 3.651-3.775 7.23-6.401 10.602-9.127 4.267-3.449 8.231-7.046 11.756-12.703 2.27-3.644 2.918-7.142 2.911-11.196-.009-4.497-.958-9.831-.452-17.453.92-.834 1.701-1.79 2.343-2.833 1.733 1.165 3.731 2.491 5.668 3.74 1.925 1.24 3.67 2.338 5.042 3.124 1.341.768 2.226 1.174 2.226 1.174 2.052.816 4.379-.187 5.195-2.239.816-2.051-.188-4.379-2.239-5.195 0 0-.923-.312-2.426-.674-1.536-.371-3.559-.771-5.811-1.191-2.188-.408-4.468-.802-6.479-1.137 1.706-4.507 1.194-9.897-1.74-13.844 2.089-.987 4.641-2.21 7.058-3.416 2.049-1.023 3.885-1.964 5.26-2.742 1.345-.762 2.147-1.315 2.147-1.315 1.748-1.348 2.073-3.862.725-5.61-1.348-1.749-3.862-2.074-5.61-.726 0 0-.739.635-1.818 1.742-1.103 1.132-2.48 2.668-3.989 4.39-1.819 2.073-3.69 4.278-5.191 6.067-2.388-2.3-5.814-3.896-10.4-3.92.178-2.323.383-5.196.533-7.939.126-2.287.217-4.347.221-5.928.004-1.546-.08-2.516-.08-2.516-.306-2.186-2.33-3.713-4.516-3.406-2.187.306-3.713 2.329-3.407 4.516 0 0 .185.956.614 2.441.438 1.519 1.091 3.475 1.84 5.639.88 2.545 1.844 5.195 2.646 7.358-4.01.66-7.203 3.238-9.187 6.535-1.879-1.474-4.274-3.33-6.582-5.059-1.834-1.372-3.498-2.59-4.811-3.47-1.284-.86-2.139-1.328-2.139-1.328-1.989-.957-4.381-.12-5.339 1.87-.957 1.989-.119 4.381 1.87 5.339 0 0 .898.376 2.372.842 1.507.478 3.497 1.019 5.713 1.596 2.767.72 5.685 1.427 7.999 1.974-.647 1.46-1.073 3.008-1.249 4.559-.151 1.332-.122 2.648.089 3.904-2.127.667-4.654 1.475-7.062 2.285-2.17.73-4.118 1.409-5.588 1.99-1.437.569-2.307 1.007-2.307 1.007-1.917 1.094-2.586 3.539-1.492 5.456 1.094 1.918 3.54 2.586 5.457 1.492 0 0 .819-.526 2.04-1.474 1.249-.969 2.824-2.301 4.557-3.798 1.74-1.503 3.528-3.091 5.08-4.485.542 1.363 1.338 2.601 2.39 3.637-.126 2.924-.178 5.997-.647 8.875-.447 2.742-1.235 5.322-3.347 7.099-8.283 6.967-12.663 11.945-15.646 15.187-1.02 1.109-1.84 1.989-2.616 2.636-.516.43-.944.716-1.559.719-.813.003-1.482-.453-2.103-1.122-.934-1.006-1.708-2.417-2.386-4.148 8.461-27.971-8.21-65.09-30.918-89.803-15.715-17.103-34.286-28.041-48.908-26.894-1.075.084-2.071.599-2.761 1.428-4.14 4.971-7.302 13.084-9.115 23.092-2.568 14.172-2.56 32.265.44 49.99 3.025 17.874 9.106 35.355 18.501 48.164 6.293 8.579 14.072 15.094 23.363 18.46 3.93 5.299 5.923 12.408 7.839 19.32 2.113 7.629 4.147 15.051 7.609 20.381-2.817 14.103-8.608 24.523-17.678 31.045-.623-.091-1.235-.159-1.834-.206zm227.995 135.598c-1.425-1.751-3.763-3.326-6.728-4.734-.51-.243-.963-.59-1.329-1.02-4.445-5.218-7.84-13.173-11.267-19.654-1.81-3.423-3.487-6.437-5.644-7.793-11.635-7.319-24.824-12.081-39.702-14.071-1.151-.154-2.178-.801-2.815-1.773-.636-.971-.819-2.171-.501-3.288 8.042-28.217 7.854-53.529-6.233-79.582-4.705-8.703-13.083-16.864-22.644-24.527-14.982-12.009-32.879-22.72-45.299-31.932-5.681-4.214-10.259-8.165-13.09-11.771-2.389-3.042-3.621-5.978-3.746-8.662-.049-1.051.318-2.078 1.022-2.86 4.447-4.946 8.79-8.148 12.879-11.455 3.612-2.92 7.012-5.923 9.996-10.712 1.83-2.939 1.816-5.773 1.626-9.293-.248-4.567-.898-10.06-.207-17.572.113-1.236.794-2.349 1.843-3.013 3.071-1.945 3.468-6.645.979-9.281-1.123-1.189-2.86-1.869-5.157-1.865-3.213.006-5.108 3.116-5.427 5.926-.168 1.486.039 3.044 1.313 3.776 1.325.762 2.1 2.213 1.997 3.738-.255 3.77-.221 7.924-.846 11.758-.763 4.682-2.488 8.901-6.093 11.934-9.555 8.038-13.697 13.334-16.61 16.283-2.94 2.977-5.179 4.123-8.324 4.138-5.205.024-9.827-3.944-12.537-11.895-.284-.83-.286-1.731-.007-2.563 3.381-10.073 2.847-21.53-.234-33.092-4.783-17.955-15.718-36.138-28.557-50.11-13.148-14.309-28.179-24.403-40.661-24.398-2.916 4.219-4.999 10.526-6.36 18.037-2.426 13.39-2.378 30.483.456 47.229 2.809 16.598 8.34 32.873 17.064 44.768 5.523 7.53 12.324 13.278 20.589 15.999.726.238 1.367.679 1.85 1.271 5.038 6.178 7.697 14.717 10.021 23.105 2.023 7.301 3.719 14.478 7.318 19.164.686.894.964 2.037.764 3.146-3.268 18.134-10.924 31.047-22.743 38.816-.884.581-1.963.788-2.999.576-4.386-.898-7.921-.441-10.146 1.486-2.041 1.767-2.672 4.685-2.056 8.201 1.247 7.117 9.02 5.218 14.229-.014.257-.258.549-.481.867-.66 8.907-5.031 17.082-11.76 24.599-20.034 3.826-4.211 5.049-11.436 5.878-17.774.231-1.762 1.596-3.16 3.351-3.433 1.756-.273 3.481.644 4.236 2.253 18.221 38.82 39.101 70.03 64.263 89.414 1.522 1.173 1.996 3.262 1.128 4.976s-2.832 2.569-4.678 2.036c-9.1-2.627-18.198-3.826-27.297-3.24-4.035.26-8.205 2.31-12.545 4.405-5.156 2.49-10.491 5.105-15.92 6.124-.611.115-1.24.086-1.838-.085-3.086-.883-6.121-1.227-8.643-.751-1.339.253-2.516.72-3.301 1.624-.772.888-1.08 2.154-1.031 3.773.064 2.14.519 3.776 1.464 4.93 1.041 1.273 2.621 1.86 4.437 2.125 2.471.36 5.336.089 8.341-.541.028-.006.056-.011.084-.017 8.948-1.678 17.894-4.625 26.842-8.861 1.403-.665 3.064-.457 4.26.532 11.47 9.483 23.332 15.462 35.695 17.351 1.91.292 3.338 1.906 3.395 3.837.344 11.719-5.158 31.467-8.023 53.302-2.723 20.756-3.042 43.524 7.549 62.634 12.557 22.66 31.536 39.15 63.723 45.59 9.068 1.81 20.299.15 32.291-4.52 18.69-7.29 39.099-21.9 56.26-42.87 16.98-20.749 33.159-38.956 50.014-50.327 11.772-7.942 23.887-12.631 36.82-12.778-13.646-2.003-26.44 2.224-38.834 9.674-12.507 7.518-24.606 18.245-36.742 29.439-15.608 14.398-31.269 29.552-47.772 40.092-17.244 11.01-35.424 17.01-55.334 12.64-26.973-5.92-40.045-26.28-42.3-52.462-2.155-25.019 5.779-55.498 20.713-82.906.823-1.51 2.519-2.325 4.212-2.024 10.572 1.877 21.509 2.171 32.781 1.018 1.758-.18 3.426.815 4.102 2.447 3.461 8.352 7.947 16.191 13.721 23.385.174.216.324.45.449.697 2.593 5.121 5.467 8.322 8.972 8.518 2.166.12 4.355-1.021 6.635-3.122 1.866-1.72 2.872-3.478 2.729-5.295-.097-1.233-.62-2.396-1.499-3.49-.087.022-.132.034-.132.034s.032-.028.094-.081z" stroke="black" stroke-width="5"/></g></g></svg>