<svg id="Layer_2" enable-background="new 0 0 512 512" viewBox="0 0 512 512" xmlns="http://www.w3.org/2000/svg"><g transform="translate(0 -562)"><g transform="translate(.221)"><g id="Icons_00000065753037501177858730000014519152267723683771_"><path clip-rule="evenodd" d="m83.593 789.69c1.293.039 2.665.202 4.11.498 10.991-7.225 17.965-19.318 21.003-36.182-7.731-10.068-7.846-30.626-17.266-42.178-45.197-14.878-51.549-110.933-32.543-133.753 34.282-2.69 90.352 67.902 75.288 112.794 1.987 5.831 4.915 9.202 8.732 9.185 5.276-.024 6.2-5.873 22.378-19.482 5.716-4.808 5.029-13.601 5.523-20.901-1.806-1.039-2.838-2.774-3.207-4.751-2.603 2.386-9.336 8.47-12.924 11.264-2.837 2.521-5.451 2.861-7.497-.018-1.436-3.229.187-5.298 3.799-6.463 4.25-1.676 13.297-4.495 16.522-5.471-.224-2.077.236-4.353 1.261-6.345-2.347-.52-13.39-3.111-17.685-4.492-3.687-.903-5.449-2.864-4.242-6.181 1.845-3.016 4.468-2.855 7.478-.542 3.755 2.494 12.693 9.525 14.549 11.025 1.492-2.773 4.093-4.95 7.476-5.177-1.058-2.76-4.67-12.46-5.931-16.851-1.292-3.569-.638-6.124 2.793-6.957 3.531-.138 4.854 2.135 4.596 5.922-.006 4.566-.822 14.965-1.078 17.869 3.555-.068 6.379 1.159 8.155 3.005 1.828-2.23 8.559-10.279 11.749-13.544 2.463-2.889 5.005-3.586 7.428-1.016 1.867 3.001.546 5.274-2.872 6.925-3.97 2.254-13.395 6.684-16.053 7.903 2.798 3.102 3.218 7.815 1.461 11.446 3.727.59 11.952 1.943 16.304 2.981 3.741.642 5.638 2.475 4.665 5.869-1.627 3.138-4.257 3.161-7.421 1.065-3.895-2.244-10.912-6.982-13.996-9.092-.717 1.181-1.688 2.211-2.904 2.981-1.336 14.526 2.586 21.241-2.007 28.614-6.509 10.446-14.729 13.199-23.296 22.726.772 16.601 66.7 42.62 84.302 75.175 14.619 27.038 14.906 53.299 6.561 82.581 15.479 2.071 29.196 7.036 41.301 14.65 6.585 4.099 10.679 20.017 17.907 28.278-.355-3.937-.892-10.218-.973-14.171-.313-3.782.985-6.077 4.515-5.985 3.444.79 4.126 3.331 2.888 6.918-1.106 3.981-3.35 10.372-4.69 14.133 2.639 1.46 4.72 3.119 6.188 4.892 3.06-2.552 8.177-6.772 11.486-9.157 2.936-2.405 5.562-2.639 7.49.319 1.305 3.284-.399 5.289-4.056 6.305-3.791 1.309-10 3.009-13.837 4.039 2.162 3.525 1.998 7.39-.879 10.996 3.814 1.131 10.069 3.022 13.854 4.442 3.63 1.11 5.28 3.166 3.888 6.411-2.01 2.907-4.623 2.599-7.496.12-3.301-2.513-8.451-7.001-11.447-9.64-2.794 2.788-6.169 4.544-9.049 4.637.903 3.804 2.642 11.338 3.332 15.659.832 3.703-.138 6.155-3.646 6.55-3.521-.307-4.546-2.729-3.815-6.454.578-4.346 2.131-11.947 2.933-15.771-3.659-.281-7.092-2.717-10.05-7.124-2.812 2.717-8.404 8.061-11.77 10.859-2.759 2.606-5.364 3.023-7.494.207-1.532-3.185.027-5.302 3.604-6.574 4.023-1.716 11.301-4.244 15.008-5.509-5.774-8.725-12.051-17.139-15.717-26.907-11.652 1.192-22.958.882-33.888-1.059-29.063 53.337-31.221 118.544 18.933 129.555 75.356 16.54 123.979-126.277 198.286-84.944 2.841 1.58 1.493 5.209-1.654 4.137-75.457-26.079-112.407 120.461-194.979 107.275-33.567-6.718-53.34-23.938-66.436-47.568-22.021-39.735.654-94.597-.026-117.759-13.027-1.99-25.554-8.23-37.639-18.222-9.449 4.48-18.836 7.52-28.317 9.28 3.347 2.162 8.911 5.799 12.175 8.253 3.17 2.087 4.174 4.525 1.923 7.246-2.748 2.223-5.166 1.191-7.226-1.997-2.572-3.491-6.611-9.842-8.71-13.181-2.597.39-5.063.483-7.265.18.129 3.537.395 12.585.198 17.127.08 3.796-1.355 6.005-4.874 5.697-3.389-1-3.914-3.577-2.458-7.082 1.474-4.3 5.011-12.598 6.426-15.855-3.631-.661-6.46-2.488-7.838-5.956-3.152 2.255-9.613 6.824-13.382 9.113-3.113 2.171-5.749 2.201-7.443-.897-1.047-3.375.807-5.24 4.531-5.973 4.283-1.12 12.139-2.601 15.936-3.293-.884-2.827-.791-7.418.923-9.62-3.494-1.609-10.778-5.015-14.651-7.168-3.428-1.631-4.758-3.907-2.904-6.912 2.416-2.58 4.953-1.892 7.432.982 3.101 3.173 8.316 9.317 10.786 12.262 2.482-2.708 6.851-3.501 11.715-2.844-.384-3.628-1.252-12.331-1.375-16.852-.346-3.78.931-6.086 4.462-6.024 3.451.759 4.156 3.294 2.949 6.892-1.165 4.374-4.03 12.675-5.24 16.103 10.659 2.536 22.637-9.894 32.368-9.813 9.554-.616 19.109.629 28.663 3.388-25.592-19.716-46.91-51.4-65.443-90.884-.935 7.143-2.572 15.198-6.883 19.945-9.114 10.546-19.811 17.122-30.37 24.491 3.354 2.164 9.063 5.892 12.375 8.381 3.169 2.088 4.174 4.526 1.923 7.246-2.748 2.223-5.168 1.193-7.226-1.997-2.527-3.432-6.407-9.523-8.527-12.889-2.54 1.16-5.116 1.634-7.399 1.322.127 3.952.328 11.386.148 15.694.081 3.794-1.356 6.006-4.873 5.697-3.389-1-3.915-3.577-2.458-7.082 1.408-4.084 4.316-10.95 5.876-14.583-3.117-.828-5.583-3.743-6.143-8.051-2.608 1.885-10.61 7.574-14.527 9.936-3.113 2.172-5.75 2.201-7.443-.897-1.047-3.375.807-5.241 4.531-5.973 4.421-1.175 14.32-3.014 17.372-3.553-.414-3.322.117-6.202 1.45-8.462-1.722-.763-12.77-5.88-16.615-8.066-3.427-1.632-4.757-3.907-2.904-6.912 2.416-2.581 4.953-1.893 7.433.981 3.125 3.137 10.934 12.405 12.148 13.893 1.935-3.193 5.497-5.12 10.27-5.263-.402-3.871-1.166-11.668-1.292-16.063-.346-3.779.931-6.086 4.462-6.025 3.451.761 4.155 3.294 2.949 6.893-1.132 4.221-3.629 11.496-4.921 15.195z" fill-rule="evenodd"/></g></g></g></svg>