<?xml version="1.0"?>
<svg xmlns="http://www.w3.org/2000/svg" id="line" viewBox="0 0 64 64"><path d="M32,4A28,28,0,1,0,60,32,28.03146,28.03146,0,0,0,32,4Zm0,54A25.98247,25.98247,0,0,1,12.93353,14.3476l7.377,7.377c-.19245.16193-.392.31457-.56885.49609a2.41777,2.41777,0,0,0,.00586,3.40039l2.71118,2.71161A25.05116,25.05116,0,0,0,19.7,39.26a11.02429,11.02429,0,0,0-8.41,3.1.9959.9959,0,0,0,0,1.41L13.53,46a4.16847,4.16847,0,0,0,3.26,1.21c-.00995.1-.00995.21-.00995.32-.17322,2.129,2.17114,3.81293,3.45,5.18a1.00446,1.00446,0,0,0,1.41,0,10.94883,10.94883,0,0,0,3.1-8.41,24.92936,24.92936,0,0,0,13.70526-4.44068L49.6524,51.06647A25.8982,25.8982,0,0,1,32,58Zm6.58588-20.82819L26.79321,25.37915a20.93339,20.93339,0,0,1,6.29706-5.35907A23.17307,23.17307,0,0,1,46.87,17.13,22.59371,22.59371,0,0,1,38.58588,37.17181Zm5.35046-2.595a6.24523,6.24523,0,0,1-1.83282,4.21228c-.43732.436-.9571-.46838-1.3451-.77771A24.04829,24.04829,0,0,0,43.93634,34.57678ZM22.68,43.41a9.757,9.757,0,0,1-1.78,7.14L19.41,49.06a2.18042,2.18042,0,0,1,0-3.06.95977.95977,0,0,0,.29-.7,1.00149,1.00149,0,0,0-1.7-.71,2.17281,2.17281,0,0,1-3.06,0L13.45,43.1a9.75671,9.75671,0,0,1,7.14-1.78,1.00231,1.00231,0,0,0,1.11-1.01A22.80614,22.80614,0,0,1,25.6087,27.02277L36.97107,38.38513A21.90874,21.90874,0,0,1,23.69,42.3.99889.99889,0,0,0,22.68,43.41Zm2.69269-19.45135-1.82715-1.82715a6.67644,6.67644,0,0,1,3.63629-.13385A24.2309,24.2309,0,0,0,25.37268,23.95862Zm-1.22955,1.59857c-.229.32306-.455.64709-.66144.97028L21.16162,24.207a.41157.41157,0,0,1-.1206-.29,3.86366,3.86366,0,0,1,.688-.77392ZM51.06647,49.6524l-8.79193-8.79193a2.3837,2.3837,0,0,0,1.243-.65734A8.3882,8.3882,0,0,0,45.62,32.06a24.75476,24.75476,0,0,0,3.10992-16.01,1.00714,1.00714,0,0,0-.77991-.78,24.31666,24.31666,0,0,0-15.79,2.98,23.05316,23.05316,0,0,0-3.2752,2.2345,8.2665,8.2665,0,0,0-6.85419.13208l-7.683-7.683A25.98247,25.98247,0,0,1,51.06647,49.6524Z"/><path d="M41.33783,28.499a8.53287,8.53287,0,0,1-5.84119-5.83014,1.00026,1.00026,0,0,0-1.94244.47858,10.38515,10.38515,0,0,0,7.54932,7.32324A1.00222,1.00222,0,0,0,41.33783,28.499Z"/><path d="M39.26,22.04a1.25013,1.25013,0,0,0-.00006-2.5A1.25013,1.25013,0,0,0,39.26,22.04Z"/></svg>
