<svg fill="none" height="512" viewBox="0 0 24 24" width="512" xmlns="http://www.w3.org/2000/svg"><g fill="rgb(0,0,0)"><path d="m15.7997 2.21048c-.41-.41-1.12-.13-1.12.44v3.49c0 1.46 1.24 2.67 2.75 2.67.95.01 2.27.01 3.4.01.57 0 .87-.67.47-1.07-1.44-1.45-4.02-4.06-5.5-5.54z"/><path d="m20.5 10.19h-2.89c-2.37 0-4.3-1.93-4.3-4.3v-2.89c0-.55-.45-1-1-1h-4.24c-3.08 0-5.57 2-5.57 5.57v8.86c0 3.57 2.49 5.57 5.57 5.57h7.86c3.08 0 5.57-2 5.57-5.57v-5.24c0-.55-.45-1-1-1zm-7.5 5.56h-4.19l.72.72c.29.29.29.77 0 1.06-.15.15-.34.22-.53.22s-.38-.07-.53-.22l-2-2c-.07-.07-.11-.14-.15-.22-.01-.02-.02-.05-.03-.07-.02-.06-.03-.12-.04-.18 0-.03 0-.05 0-.08 0-.08.02-.16.05-.24 0-.01 0-.01.01-.02.03-.08.09-.16.15-.22.01-.01.01-.02.02-.02l2-2c.29-.29.77-.29 1.06 0s.29.77 0 1.06l-.72.72h4.18c.41 0 .75.34.75.75s-.34.74-.75.74z"/></g></svg>