<?xml version="1.0" standalone="no"?>
<!DOCTYPE svg PUBLIC "-//W3C//DTD SVG 20010904//EN"
 "http://www.w3.org/TR/2001/REC-SVG-20010904/DTD/svg10.dtd">
<svg version="1.0" xmlns="http://www.w3.org/2000/svg"
 width="512.000000pt" height="512.000000pt" viewBox="0 0 512.000000 512.000000"
 preserveAspectRatio="xMidYMid meet">

<g transform="translate(0.000000,512.000000) scale(0.100000,-0.100000)"
fill="#000000" stroke="none">
<path d="M2473 5106 c-200 -65 -348 -294 -409 -631 -25 -137 -25 -412 0 -548
10 -54 16 -99 14 -100 -204 -103 -312 -180 -438 -312 l-104 -110 -48 47 c-26
25 -74 59 -105 75 -51 25 -69 28 -154 28 -90 0 -99 -2 -175 -39 -65 -32 -97
-57 -185 -145 -125 -126 -222 -267 -314 -456 -124 -256 -170 -452 -129 -554
30 -77 107 -95 199 -49 86 44 230 183 356 343 l51 65 71 0 c40 0 78 -4 85 -9
10 -6 9 -30 -8 -122 -27 -147 -36 -398 -21 -544 20 -183 65 -358 147 -575 l17
-46 -48 -79 c-137 -226 -240 -534 -219 -654 15 -82 53 -120 121 -123 95 -3
252 126 452 372 l20 25 58 -56 c142 -138 369 -262 564 -309 45 -10 83 -21 85
-23 2 -2 28 -111 58 -243 30 -131 59 -251 65 -266 25 -65 90 -89 130 -49 24
24 32 50 82 291 61 298 43 263 151 290 210 51 410 158 563 302 36 33 67 59 68
57 37 -52 157 -186 226 -251 98 -93 173 -138 234 -138 52 0 73 13 98 62 50 97
0 338 -119 574 -28 55 -66 126 -85 158 l-35 57 39 96 c44 107 90 270 116 413
27 145 24 494 -5 653 -12 66 -22 122 -22 127 0 11 93 20 135 13 28 -4 44 -16
71 -52 127 -167 279 -313 374 -361 49 -25 114 -29 150 -10 30 16 60 86 60 143
1 228 -208 666 -431 902 -143 150 -257 210 -399 210 -75 -1 -92 -5 -147 -33
-34 -17 -81 -51 -105 -74 l-43 -43 -103 107 c-110 114 -232 207 -365 277 -45
24 -82 46 -82 50 0 3 9 59 19 124 26 166 18 436 -17 587 -81 342 -253 554
-461 566 -35 2 -79 -2 -103 -10z m178 -136 c85 -44 167 -157 220 -302 35 -96
69 -244 69 -305 l0 -42 -42 15 c-79 28 -212 45 -343 45 -131 0 -264 -17 -343
-45 -49 -18 -47 -24 -27 99 44 268 160 484 289 541 47 20 130 17 177 -6z m65
-721 c43 -6 114 -22 157 -36 l80 -25 -7 -81 c-8 -99 -24 -198 -36 -216 -7 -12
-19 -11 -71 2 -172 43 -379 43 -557 0 -40 -9 -74 -14 -77 -11 -11 10 -35 181
-35 245 l0 62 53 19 c122 46 333 63 493 41z m59 -474 c147 -31 347 -120 436
-194 l30 -26 -162 -283 -162 -282 -360 2 -359 3 -159 275 c-87 151 -159 280
-159 285 0 12 123 92 195 128 87 42 227 87 320 102 108 17 268 13 380 -10z
m-685 -855 c0 -3 -78 -141 -173 -305 l-173 -300 -233 -3 -234 -2 6 94 c23 353
189 748 416 988 l74 79 158 -273 c87 -150 159 -275 159 -278z m1445 329 c169
-241 282 -559 302 -851 l6 -88 -235 0 -234 0 -172 299 c-95 164 -172 304 -172
310 0 10 244 445 297 530 l15 23 59 -58 c33 -33 93 -107 134 -165z m-2191 157
c24 -14 59 -43 80 -66 37 -41 37 -42 20 -68 -69 -105 -149 -271 -188 -388
l-17 -51 -52 9 c-67 13 -167 4 -211 -19 -19 -10 -65 -56 -102 -103 -89 -111
-239 -259 -292 -288 -53 -29 -59 -19 -43 72 27 153 140 413 259 591 110 167
269 309 376 336 50 13 125 2 170 -25z m2662 -6 c124 -62 250 -196 363 -384
113 -191 211 -449 211 -557 l0 -49 -42 21 c-50 25 -229 204 -308 306 -73 95
-101 108 -244 108 l-108 0 -27 75 c-39 106 -90 213 -144 300 -52 85 -51 89 16
144 92 75 182 87 283 36z m-1078 -567 c10 -16 91 -155 180 -309 l162 -281
-177 -307 -178 -306 -355 0 -356 0 -175 302 c-96 166 -173 308 -173 314 2 13
302 537 336 587 l19 27 349 0 349 0 19 -27z m-1014 -957 c97 -167 176 -307
176 -310 0 -12 -313 -546 -320 -546 -5 0 -39 33 -77 74 -226 242 -388 633
-410 988 l-6 98 230 0 231 0 176 -304z m1923 206 c-12 -205 -93 -496 -175
-632 -5 -8 -17 -33 -27 -55 -29 -69 -140 -227 -217 -309 l-74 -79 -157 274
c-86 151 -157 280 -157 286 0 10 284 509 336 591 14 22 17 22 246 22 l231 0
-6 -98z m-761 -862 c90 -157 162 -289 161 -295 -5 -15 -106 -80 -192 -123
-349 -173 -765 -148 -1087 65 -40 26 -77 51 -81 54 -7 5 294 537 326 577 7 9
87 12 360 10 l350 -3 163 -285z m-1532 -140 c9 -7 16 -16 16 -21 0 -16 -147
-185 -222 -254 -41 -38 -94 -81 -118 -94 l-43 -24 6 69 c8 96 55 234 137 402
l70 142 70 -103 c38 -57 76 -109 84 -117z m2261 57 c30 -61 68 -155 85 -207
32 -98 51 -230 33 -230 -20 0 -89 53 -161 123 -74 73 -202 219 -202 232 0 4
15 25 34 48 18 23 55 75 81 115 57 85 48 91 130 -81z m-1191 -584 c-5 -33 -58
-272 -60 -270 -3 2 -64 275 -64 282 0 1 28 0 63 -1 34 -2 62 -7 61 -11z"/>
<path d="M2325 4695 c-30 -29 -31 -45 -6 -76 14 -18 31 -23 79 -27 55 -4 63
-2 86 21 31 32 32 46 5 81 -18 23 -28 26 -80 26 -50 0 -64 -4 -84 -25z"/>
<path d="M2630 4700 c-51 -51 -7 -110 80 -110 64 0 100 24 100 68 0 41 -33 62
-100 62 -47 0 -64 -4 -80 -20z"/>
</g>
</svg>
