<svg id="Seagull" enable-background="new 0 0 64 64" viewBox="0 0 64 64" xmlns="http://www.w3.org/2000/svg"><path d="m48.72385 41.57533c0 .6564-.53212 1.18852-1.18852 1.18852s-1.18852-.53212-1.18852-1.18852.53212-1.18852 1.18852-1.18852 1.18852.53212 1.18852 1.18852zm12.37757 5.05869c-.26677.56902-.729.7469-1.24473.7469-.48014 0-.99576-.16008-1.4581-.28456-.32005-.10669-.6934-.19557-1.08465-.28445-1.26904-.3003-2.60189-.26948-3.98055.06349-.64271 1.03082-1.74874 2.08746-3.6746 3.12761-3.84803 2.07335-7.60924 2.88776-14.37108 3.11176-.44627.01389-.89429.02258-1.34577.02258-7.72038 0-16.02681-2.14281-19.0205-4.93854-5.77898.17537-9.89443-.6755-12.58944-2.62382-.30041-.2188-2.90947-2.18102-2.21488-4.11545.49142-1.37008 2.10895-1.30757 4.78399-1.19643 1.01497.03994 2.22616.0764 3.63531.08162 4.7675-.02779 10.04812-.84393 13.3865-1.66702-1.70175-4.78746-3.01626-8.05812-3.55283-8.82651-.82309-1.17473-1.83025-2.07769-3.65789-3.7178-1.13305-1.01671-2.57346-2.30951-4.47403-4.11545-2.45538-2.3399-6.97716-7.88968-6.30081-10.11845.47753-1.42912 2.02386-1.61492 9.93612 1.00021 9.10956 2.99976 11.67694 4.24742 13.22848 5.50116 1.7088 1.40915 4.18795 4.98944 6.8364 9.19421 2.64812-4.209 5.11924-7.77887 6.82099-9.18032 1.56478-1.26242 4.14312-2.52495 13.24725-5.51223 7.9128-2.61383 9.45978-2.43606 9.92212-1.03136.6934 2.25829-3.84087 7.80611-6.29473 10.15329-1.90264 1.79595-3.34293 3.09397-4.48098 4.10753-1.81364 1.63587-2.8272 2.54275-3.64519 3.71638-.46299.67799-1.56033 3.33903-2.91272 7.03935 1.34327.27762 2.53016.67093 3.67319 1.21347 1.4059.6692 2.43302 1.58258 3.08224 2.68807 2.72703.28825 4.92736 1.31451 6.16829 2.28846.99578.78239 2.15162 2.40057 1.5826 3.5563zm-14.38986-29.28741c3.54882 1.25124 5.80417 3.77477 6.54869 6.30754.88474-.80562 1.90806-1.74744 3.14682-2.9277 3.09397-2.93399 5.60122-6.82815 5.81459-8.09068-.56902-.03549-2.32938.19568-7.66383 1.95603-3.51333 1.15692-6.01201 2.03894-7.84627 2.75481zm-11.72447 11.92872c1.364 2.20826 2.75166 4.52624 4.08441 6.7525l.21358.35598c2.18547-.03679 3.97143.03429 5.53415.22075 1.18037-3.26545 2.52744-6.75609 3.2305-7.76976.8932-1.28087 1.9073-2.21466 3.65832-3.7751-.26633-2.73039-2.93779-5.82024-7.66861-6.57148-1.01801.49251-1.65768.90058-2.14205 1.29574-1.62013 1.3194-4.2142 5.15571-6.9103 9.49137zm-23.52296-8.54498c1.24961 1.18743 2.28336 2.13576 3.17602 2.9442.73692-2.53862 2.96883-5.07149 6.52492-6.32805-1.83437-.71695-4.3337-1.60071-7.84811-2.75807-5.37353-1.77468-7.11521-1.97958-7.67957-1.94833.18926 1.1947 2.72018 5.12956 5.82674 8.09025zm40.91052 22.91541c-.05904-1.73474-1.02452-3.05967-2.8704-3.93833-2.61861-1.24158-5.52894-1.6566-10.6967-1.53505-.32298-.02258-.61992-.15802-.78315-.43238l-.47927-.79878c-4.013-6.70714-9.00971-15.05351-11.56841-17.16333-.48404-.39114-1.12426-.79823-2.14574-1.29183-4.72376.75483-7.39261 3.8412-7.65938 6.56952 1.74049 1.56283 2.76371 2.50443 3.65626 3.77629.8665 1.24332 2.70456 6.21485 4.09374 10.16533.08162.23269.06338.48795-.05036.70675-.11374.21706-.31256.37856-.54959.44454-3.3323.92902-9.37697 1.94312-14.77481 1.97438-1.43259.00174-2.67852-.04168-3.7178-.08335-1.31104-.0521-2.79573-.11287-3.09006.09377-.08769.31604.82135 1.41002 1.63576 2.00216 2.41978 1.74863 6.30428 2.50053 11.86708 2.27131h.0356c.24832 0 .48621.10419.65465.28825 2.22443 2.42065 10.97106 4.94375 19.2966 4.6416 6.45448-.21358 10.00905-.97242 13.58619-2.89991 3.65355-1.9709 3.59451-3.7369 3.55979-4.79094zm6.94862 1.85032c-.17777-.28456-.46234-.6935-.88908-1.01356-.90015-.71717-2.45288-1.43574-4.37397-1.78955.05057.2888.08205.58606.09258.89201v.00174c.01432.43162-.00792.88213-.08162 1.34284.4784-.06533.95452-.10918 1.42901-.10918.7469 0 1.49369.08889 2.205.24897.42674.08889.83568.21337 1.17353.30226.14229.05328.30226.08888.44455.12447z"/></svg>