<svg id="Seagull" enable-background="new 0 0 64 64" viewBox="0 0 64 64" xmlns="http://www.w3.org/2000/svg"><path d="m52.33217 26.00261c-1.44472 1.31659-2.32245 2.15782-3.09046 3.27328-.54858.78632-1.62754 3.47452-2.83442 6.69288-1.64585-.27423-3.52932-.38395-5.81516-.38395h-.60349c-1.60924-2.6882-3.29158-5.50432-4.93743-8.1193 2.56018-4.0231 4.93743-7.4244 6.52837-8.7411.34745-.27423.7314-.54858 1.24348-.82281.47547.0365.95095.09141 1.31659.14621 5.23008.76812 8.0645 4.26083 8.17422 7.20497.0183.27435.0183.53039.0183.74982zm2.56007-12.7825c-4.29733 1.42642-7.16835 2.46877-9.14335 3.27339 4.46196 1.06066 7.25988 4.0231 8.1011 6.93062.09141.27435.18282.60349.27423.96925.98744-.87784 2.15782-1.95669 3.60254-3.32819 3.18187-3.03566 6.67458-8.02789 6.23572-9.4725-.20112-.6035-1.46291-.87784-9.07024 1.62743zm4.84602 30.88627c-1.00575-.78632-2.54188-1.49952-4.33394-1.90178.16452.53027.25604 1.09716.27435 1.68235.0182.6949-.0183 1.46291-.23774 2.24923 1.07885-.09141 2.01149.0183 2.7795.20124 1.55444.34745 2.59679.89603 2.87103.31084.27435-.54858-.42056-1.79206-1.3532-2.54188zm-37.52435-27.61288c-4.97393 1.18857-7.88157 4.718-8.32043 7.95467-1.00575-.89603-2.19443-1.99319-3.65734-3.36469-3.18187-3.05396-6.67458-8.02789-6.23572-9.4908.20113-.60349 1.44461-.87784 9.05183 1.62743 4.29744 1.42642 7.16847 2.45047 9.16166 3.27339zm27.50327 33.22691c-3.82197 2.0481-7.58903 2.85272-14.37343 3.07215-8.70438.31096-17.95745-2.24923-20.55424-5.04715-4.00479.14632-9.36278-.0548-12.78239-2.52357-.43886-.31084-2.39555-1.95658-1.93839-3.18187.38406-1.11546 2.99905-.51197 7.79015-.54858 5.26658-.01831 11.42919-1.00574 14.94021-1.99319-1.60924-4.6449-3.3465-9.17996-4.0779-10.22232-.76801-1.09716-1.64585-1.93839-3.05385-3.21848-.0183-.31084-.0183-.60349-.0183-.80462.10972-2.94413 2.92583-6.51006 8.1741-7.20497.16463-.0183.71321-.07311 1.33501-.14621.49366.29254.87773.54858 1.20687.82281 2.87103 2.35906 8.26563 11.4658 12.59957 18.70737 5.54081-.12802 8.59477.32915 11.41088 1.66404 1.92008.91433 3.4013 2.45047 3.47452 4.84602.05481 1.40802-.07321 3.58415-4.13281 5.77857zm-.53038-7.86326c0-.6766-.54858-1.22518-1.22518-1.22518s-1.22518.54858-1.22518 1.22518c0 .65829.54858 1.20687 1.22518 1.20687s1.22518-.54857 1.22518-1.20687z"/></svg>