<?xml version="1.0" standalone="no"?>
<!DOCTYPE svg PUBLIC "-//W3C//DTD SVG 20010904//EN"
 "http://www.w3.org/TR/2001/REC-SVG-20010904/DTD/svg10.dtd">
<svg version="1.0" xmlns="http://www.w3.org/2000/svg"
 width="512.000000pt" height="512.000000pt" viewBox="0 0 512.000000 512.000000"
 preserveAspectRatio="xMidYMid meet">

<g transform="translate(0.000000,512.000000) scale(0.100000,-0.100000)"
fill="#000000" stroke="none">
<path d="M2980 5105 c-704 -86 -1305 -561 -1555 -1230 -81 -218 -116 -418
-116 -665 0 -305 56 -553 187 -826 46 -96 167 -290 236 -377 l22 -28 -190
-190 -191 -191 -67 21 c-86 26 -136 26 -222 0 l-69 -21 -478 -476 c-547 -546
-531 -526 -532 -677 0 -122 27 -178 145 -295 117 -118 173 -145 295 -145 151
1 131 -15 677 532 l476 478 21 69 c26 86 26 136 0 222 l-21 67 191 191 190
190 28 -22 c142 -113 360 -237 535 -306 96 -38 317 -92 428 -106 136 -16 385
-14 514 5 423 63 810 262 1102 568 719 752 709 1924 -21 2660 -420 423 -998
624 -1585 552z m533 -335 c124 -24 276 -75 394 -131 297 -141 584 -428 730
-729 417 -859 -6 -1882 -908 -2198 -313 -110 -703 -112 -1016 -6 -238 80 -432
202 -619 389 -337 336 -495 756 -462 1234 32 486 293 932 703 1203 212 141
427 220 695 258 106 15 360 4 483 -20z m-2250 -3508 c31 -32 57 -62 57 -67 0
-13 -862 -875 -875 -875 -13 0 -125 112 -125 125 0 13 862 875 875 875 6 0 36
-26 68 -58z"/>
</g>
</svg>
