<?xml version="1.0" standalone="no"?>
<!DOCTYPE svg PUBLIC "-//W3C//DTD SVG 20010904//EN"
 "http://www.w3.org/TR/2001/REC-SVG-20010904/DTD/svg10.dtd">
<svg version="1.0" xmlns="http://www.w3.org/2000/svg"
 width="512.000000pt" height="512.000000pt" viewBox="0 0 512.000000 512.000000"
 preserveAspectRatio="xMidYMid meet">

<g transform="translate(0.000000,512.000000) scale(0.100000,-0.100000)"
fill="#000000" stroke="none">
<path d="M1215 5113 c-196 -47 -635 -170 -679 -190 -166 -77 -268 -275 -238
-460 16 -96 61 -181 130 -245 56 -51 368 -232 502 -291 l56 -25 193 -728 c170
-637 192 -730 181 -748 -45 -71 -49 -98 -25 -186 8 -30 15 -60 15 -66 0 -6
-91 -35 -202 -64 -112 -29 -220 -61 -240 -72 -50 -24 -90 -86 -96 -146 -5 -59
63 -327 90 -354 34 -34 101 -18 119 28 7 20 1 56 -26 158 -37 140 -39 154 -27
173 9 14 411 125 424 117 4 -3 8 -11 8 -19 0 -35 44 -127 81 -168 84 -96 229
-128 347 -77 66 28 144 111 166 176 19 56 21 137 5 200 -6 25 -9 47 -6 50 3 3
96 30 207 59 141 38 208 52 220 45 16 -9 27 -44 127 -425 37 -142 63 -298 63
-386 l0 -56 -113 -6 c-325 -17 -594 -131 -860 -363 l-89 -76 -142 12 -142 12
-26 42 c-35 55 -80 147 -108 221 -12 33 -33 70 -47 83 -40 37 -91 26 -112 -26
-10 -25 -8 -38 13 -95 14 -36 45 -108 71 -158 45 -92 46 -108 7 -109 -7 0 -49
-14 -93 -31 -112 -43 -239 -131 -338 -235 l-84 -87 -187 -47 c-205 -52 -230
-62 -277 -112 -121 -126 -86 -326 72 -411 l40 -22 2365 0 2365 0 40 22 c89 47
145 138 145 233 0 90 -57 187 -134 227 -16 8 -113 37 -216 63 l-187 47 -79 83
c-44 45 -107 102 -140 126 -74 53 -112 57 -143 18 -40 -51 -28 -80 54 -139 35
-25 98 -83 140 -129 42 -46 89 -89 103 -95 15 -5 101 -28 192 -51 91 -22 178
-46 193 -52 70 -28 89 -113 38 -170 l-29 -33 -2342 0 -2342 0 -29 33 c-51 57
-33 142 38 170 15 6 102 30 193 52 91 22 177 45 192 51 15 6 60 47 100 92 112
124 243 211 377 251 74 22 217 38 263 31 l38 -7 -55 -50 c-64 -58 -73 -98 -32
-136 46 -44 62 -35 289 164 236 206 317 268 428 324 183 92 323 124 540 124
217 0 357 -32 540 -124 111 -56 192 -118 428 -324 229 -200 246 -210 290 -163
39 41 30 78 -33 135 l-55 50 38 7 c21 3 78 1 127 -5 82 -10 91 -10 114 8 36
27 40 80 9 109 -35 33 -168 46 -324 31 l-122 -11 -88 77 c-211 184 -426 294
-660 338 l-64 13 0 65 c-1 110 -27 271 -75 457 -112 436 -118 450 -195 492
-63 35 -106 31 -326 -28 -105 -28 -198 -51 -207 -51 -11 0 -19 17 -28 54 -20
92 -62 145 -131 168 -5 2 -54 177 -111 390 -66 248 -110 394 -121 407 -38 42
-126 11 -126 -44 0 -10 46 -188 101 -397 56 -208 99 -381 96 -384 -10 -11
-112 -33 -118 -26 -4 4 -90 320 -192 702 l-185 695 60 18 c33 10 62 16 64 14
3 -3 25 -83 50 -178 36 -137 51 -179 70 -196 28 -26 42 -28 77 -12 54 24 53
44 -9 275 l-56 212 28 38 c71 93 266 432 286 498 70 231 -83 490 -323 545 -45
11 -138 13 -174 4z m166 -159 c70 -21 158 -106 182 -179 20 -57 22 -128 6
-176 -7 -19 -68 -127 -136 -241 -84 -141 -137 -218 -165 -242 -57 -49 -124
-70 -209 -64 -64 5 -79 12 -274 119 -114 63 -226 131 -250 151 -103 90 -120
249 -39 374 51 79 90 96 434 188 173 47 333 85 356 85 22 1 65 -6 95 -15z
m393 -2571 c31 -103 86 -330 86 -358 0 -48 -22 -88 -66 -121 -67 -51 -174 -30
-217 43 -19 33 -111 363 -103 370 4 4 270 80 288 82 4 1 9 -7 12 -16z"/>
<path d="M970 4739 c-162 -43 -306 -87 -320 -97 -59 -43 -75 -134 -33 -190 10
-14 106 -74 213 -135 205 -115 252 -131 310 -107 37 15 40 20 179 249 121 200
129 226 91 289 -25 40 -76 72 -115 71 -16 0 -163 -36 -325 -80z m290 -83 c0
-3 -41 -73 -91 -156 -88 -146 -92 -151 -112 -137 -12 7 -82 46 -155 87 -73 40
-130 75 -128 78 5 4 458 129 479 131 4 1 7 -1 7 -3z"/>
</g>
</svg>
