<?xml version="1.0" standalone="no"?>
<!DOCTYPE svg PUBLIC "-//W3C//DTD SVG 20010904//EN"
 "http://www.w3.org/TR/2001/REC-SVG-20010904/DTD/svg10.dtd">
<svg version="1.0" xmlns="http://www.w3.org/2000/svg"
 width="512.000000pt" height="512.000000pt" viewBox="0 0 512.000000 512.000000"
 preserveAspectRatio="xMidYMid meet">

<g transform="translate(0.000000,512.000000) scale(0.100000,-0.100000)"
fill="#000000" stroke="none">
<path d="M355 5106 c-28 -7 -73 -23 -100 -36 -64 -30 -175 -141 -203 -203 -55
-118 -52 14 -52 -2307 0 -1895 2 -2153 15 -2205 46 -174 183 -308 353 -344 37
-8 351 -11 1035 -11 1073 0 1041 -2 1151 58 102 55 191 170 222 286 20 76 20
4356 0 4432 -31 116 -120 231 -222 286 -111 60 -77 58 -1159 57 -744 0 -1002
-4 -1040 -13z m2062 -312 c15 -11 38 -36 51 -54 20 -31 22 -44 22 -181 l0
-149 -1095 0 -1095 0 0 138 c0 123 2 143 23 182 16 33 34 51 67 68 l45 22 977
-2 c973 -3 977 -3 1005 -24z m73 -2074 l0 -1390 -1095 0 -1095 0 0 1390 0
1390 1095 0 1095 0 0 -1390z m0 -1999 c0 -303 0 -309 -23 -341 -12 -18 -35
-43 -50 -54 -28 -21 -32 -21 -1005 -24 l-977 -2 -45 22 c-33 17 -51 35 -67 68
-22 43 -23 53 -23 342 l0 298 1095 0 1095 0 0 -309z"/>
<path d="M1264 3755 c-98 -18 -135 -30 -237 -82 -196 -101 -340 -288 -392
-513 -19 -84 -19 -256 0 -357 41 -217 169 -503 336 -753 220 -329 375 -428
540 -347 162 79 425 458 560 806 107 277 132 500 79 707 -72 280 -311 482
-639 539 -99 18 -151 18 -247 0z m221 -300 c157 -33 289 -125 345 -239 88
-179 52 -422 -115 -761 -78 -159 -183 -325 -261 -413 l-47 -53 -43 42 c-161
158 -378 568 -430 812 -16 79 -18 203 -3 266 33 147 141 266 288 322 108 40
164 45 266 24z"/>
<path d="M1299 3147 c-167 -89 -133 -343 51 -387 193 -46 333 182 207 335 -61
75 -173 97 -258 52z"/>
<path d="M1315 822 c-63 -41 -95 -93 -95 -157 0 -130 142 -215 260 -155 55 28
83 72 88 141 5 69 -16 119 -66 157 -46 35 -142 43 -187 14z"/>
<path d="M3834 3491 c-128 -23 -217 -52 -325 -107 -98 -51 -147 -96 -159 -148
-28 -125 101 -227 210 -167 97 54 181 92 235 106 270 67 588 34 778 -82 50
-31 72 -38 112 -38 86 0 145 61 145 152 0 90 -89 160 -295 232 -196 69 -481
90 -701 52z"/>
<path d="M3935 2955 c-123 -23 -240 -77 -289 -135 -35 -42 -42 -91 -21 -145
21 -56 63 -87 125 -93 41 -4 57 1 111 31 139 77 323 75 462 -3 82 -46 148 -38
206 24 19 20 26 40 29 84 5 72 -19 112 -97 158 -136 82 -343 113 -526 79z"/>
<path d="M3145 2266 c-40 -18 -73 -56 -85 -97 -6 -21 -10 -377 -10 -929 l0
-896 23 -44 c13 -26 36 -53 57 -65 34 -20 52 -20 945 -23 l910 -2 44 22 c25
13 54 36 65 51 21 28 21 35 21 962 0 927 0 934 -21 961 -11 15 -33 37 -48 48
-27 21 -36 21 -949 23 -753 2 -927 0 -952 -11z m1673 -1018 l-3 -733 -730 0
-730 0 -3 733 -2 732 735 0 735 0 -2 -732z"/>
<path d="M3953 1711 c-232 -66 -384 -303 -345 -537 49 -297 354 -481 635 -385
235 81 374 336 312 574 -69 265 -341 422 -602 348z m215 -302 c113 -55 135
-208 42 -292 -21 -20 -57 -41 -80 -47 -141 -38 -271 110 -212 242 47 106 149
146 250 97z"/>
</g>
</svg>
