<svg id="Capa_1" enable-background="new 0 0 510.646 510.646" height="512" viewBox="0 0 510.646 510.646" width="512" xmlns="http://www.w3.org/2000/svg"><g><path d="m495.53 283.323h-176c-8.284 0-15 6.716-15 15v176c0 8.284 6.716 15 15 15h176c8.284 0 15-6.716 15-15v-176c0-8.284-6.716-15-15-15zm-88 151.33c-26.649 0-48.331-21.681-48.331-48.331s21.681-48.331 48.331-48.331 48.331 21.681 48.331 48.331-21.682 48.331-48.331 48.331z"/><circle cx="407.53" cy="386.323" r="18.331"/><g><path d="m440.276 253.547c-3.117 0-6.261-.968-8.953-2.974-10.964-8.173-36.419-8.247-46.958-.138-6.566 5.052-15.984 3.824-21.035-2.742-5.052-6.566-3.824-15.984 2.742-21.035 21.087-16.223 61.511-16.289 83.18-.138 6.642 4.951 8.013 14.349 3.063 20.991-2.945 3.95-7.463 6.036-12.039 6.036z"/><path d="m466.988 206.381c-3.064 0-6.155-.935-8.82-2.877-23.911-17.419-77.531-17.488-100.655-.128-6.626 4.974-16.028 3.635-21.001-2.99-4.974-6.625-3.635-16.028 2.99-21.001 16.129-12.109 40.824-19.041 67.799-19.041h.391c26.899.066 51.736 6.96 68.142 18.913 6.696 4.878 8.169 14.261 3.291 20.956-2.937 4.03-7.506 6.168-12.137 6.168z"/></g><path d="m.116 464.694c0 25.338 20.614 45.952 45.952 45.952h186.524c25.338 0 45.952-20.614 45.952-45.952v-56.81h-278.428zm139.213-22.653c9.513 0 17.224 7.712 17.224 17.224s-7.712 17.224-17.224 17.224-17.224-7.712-17.224-17.224 7.712-17.224 17.224-17.224z"/><path d="m.116 377.884h278.427v-277.241h-278.427zm86.817-223.164c14.335-12.683 33.653-19.957 53-19.957l.526.009c1.94.068 19.475.935 37.532 10.279 17.915 9.271 39.27 28.426 39.27 67.034 0 32.067-19.022 68.498-27.201 82.673-7.267 12.595-15.03 23.675-22.449 32.041-10.264 11.574-19.059 16.965-27.679 16.965-8.701 0-17.285-5.27-27.834-17.086-7.379-8.266-15.483-19.659-22.819-32.08-8.383-14.194-27.881-50.493-27.881-80.937 0-23.441 9.068-44.373 25.535-58.941z"/><path d="m139.937 312.232c5.476-4.801 15.935-17.34 26.742-37.102 12.887-23.567 20.582-47.135 20.582-63.045 0-19.149-7.542-32.361-23.058-40.39-11.419-5.91-23.002-6.83-24.608-6.931-19.505.149-48.197 13.227-48.197 48.896 0 14.763 7.879 37.607 21.078 61.108 11.221 19.98 21.914 32.634 27.461 37.464zm-.608-117.996c11.562 0 20.934 9.372 20.934 20.935 0 11.562-9.372 20.933-20.934 20.933s-20.932-9.373-20.932-20.933c-.001-11.563 9.371-20.935 20.932-20.935z"/><path d="m278.543 45.952c0-25.338-20.614-45.952-45.952-45.952h-186.524c-25.338 0-45.951 20.614-45.951 45.952v24.691h278.427z"/></g></svg>