<svg id="Layer_1" viewBox="0 0 64 64" xmlns="http://www.w3.org/2000/svg" data-name="Layer 1"><path d="m53.812 36.035a4.006 4.006 0 0 0 4.493-1.166 4.177 4.177 0 0 0 -.273-5.622 2.642 2.642 0 0 0 1.18-.8 2.788 2.788 0 0 0 -.326-3.885 2.69 2.69 0 0 0 -.7-.431 3.3 3.3 0 0 0 2.014-1.131 3.485 3.485 0 0 0 -.407-4.857c-.051-.044-.109-.073-.161-.113a4.9 4.9 0 0 0 -1.285-5.644 4.712 4.712 0 0 0 -5.688-.4c-.048-.046-.086-.1-.137-.144a3.357 3.357 0 0 0 -4.786.354 3.407 3.407 0 0 0 -.785 2.2 2.741 2.741 0 0 0 -.529-.639 2.674 2.674 0 0 0 -4.422 1.589 4.022 4.022 0 0 0 -5.509.608 4.163 4.163 0 0 0 -.429 4.69 5.344 5.344 0 0 0 -5.784 1.633 5.577 5.577 0 0 0 .651 7.772 5.453 5.453 0 0 0 2.336 1.2 4.9 4.9 0 0 0 1.544 4.871 4.751 4.751 0 0 0 2.631 1.14 4.875 4.875 0 0 0 1.525 2.458 4.721 4.721 0 0 0 4.978.785 5.581 5.581 0 0 0 1.529 2.156 5.372 5.372 0 0 0 7.658-.566 5.55 5.55 0 0 0 .682-6.058z"/><path d="m35 45.5v9.5h-4v-9l2-1z"/><path d="m42.002 34.263-6.169 7.225-1.196-1.679-2.17-.538 6.493-7.605z"/><path d="m62 56h-60a1 1 0 0 1 0-2h60a1 1 0 0 1 0 2z"/><path d="m24 21h-22a1 1 0 0 1 0-2h22a4 4 0 1 0 -4-4 1 1 0 0 1 -2 0 6 6 0 1 1 6 6z"/><path d="m21 32a5.006 5.006 0 0 1 -5-5 1 1 0 0 1 2 0 3 3 0 1 0 3-3h-15a1 1 0 0 1 0-2h15a5 5 0 0 1 0 10z"/><path d="m13 18h-9a1 1 0 0 1 0-2h7a1 1 0 0 1 -1-1 3 3 0 1 1 3 3zm-2-2h2a1 1 0 1 0 -1-1 1 1 0 0 1 -1 1z"/><path d="m11 28h-4a1 1 0 0 1 0-2h4a1 1 0 0 1 0 2z"/><path d="m27 39h-6a1 1 0 0 1 0-2h6a1 1 0 0 1 0 2z"/><path d="m38 10h-5a1 1 0 0 1 0-2h5a1 1 0 0 1 0 2z"/><path d="m8 11h-4a1 1 0 0 1 0-2h4a1 1 0 0 1 0 2z"/></svg>