<svg height="512pt" viewBox="-1 0 512 512.00013" width="512pt" xmlns="http://www.w3.org/2000/svg"><path d="m121 137v73.789062l-24.394531-24.394531c-5.855469-5.859375-15.355469-5.859375-21.210938 0-5.859375 5.855469-5.859375 15.355469 0 21.210938l50 50c2.929688 2.929687 6.765625 4.394531 10.605469 4.394531s7.679688-1.464844 10.605469-4.394531l50-50c5.859375-5.855469 5.859375-15.355469 0-21.210938-5.855469-5.859375-15.355469-5.859375-21.210938 0l-24.394531 24.394531v-73.789062c0-8.285156-6.714844-15-15-15s-15 6.714844-15 15zm0 0"/><path d="m25.609375 75.605469 24.390625-24.390625v73.785156c0 8.285156 6.714844 15 15 15s15-6.714844 15-15v-73.785156l24.394531 24.390625c2.929688 2.929687 6.765625 4.394531 10.605469 4.394531s7.679688-1.464844 10.605469-4.394531c5.859375-5.855469 5.859375-15.355469 0-21.210938l-50-50c-5.855469-5.859375-15.355469-5.859375-21.210938 0l-50 50c-5.859375 5.855469-5.859375 15.355469 0 21.210938 5.855469 5.859375 15.355469 5.859375 21.214844 0zm0 0"/><path d="m395.054688 229.953125c29.449218 0 58.898437-11.210937 81.316406-33.628906 44.839844-44.839844 44.839844-117.796875 0-162.636719-32.292969-32.292969-80.660156-42.417969-123.21875-25.796875-6.636719 2.59375-10.53125 9.496094-9.324219 16.515625 1.207031 7.023438 7.1875 12.226562 14.3125 12.449219 10.207031.320312 19.804687 4.46875 27.015625 11.683593 7.554688 7.554688 11.714844 17.597657 11.714844 28.28125 0 10.6875-4.160156 20.730469-11.714844 28.285157-15.597656 15.597656-40.972656 15.597656-56.570312 0-7.210938-7.210938-11.359376-16.804688-11.679688-27.015625-.226562-7.121094-5.425781-13.101563-12.449219-14.3125-7.023437-1.203125-13.921875 2.6875-16.515625 9.324218-16.625 42.558594-6.5 90.925782 25.796875 123.21875 22.417969 22.421876 51.867188 33.632813 81.316407 33.632813zm0 0"/><path d="m498.320312 292.371094c-6.828124-1.546875-13.824218 1.835937-16.851562 8.152344-8.425781 17.601562-26.667969 28.976562-46.46875 28.976562s-38.042969-11.375-46.46875-28.976562c-2.496094-5.207032-7.757812-8.523438-13.53125-8.523438s-11.035156 3.3125-13.527344 8.523438c-8.429687 17.601562-26.671875 28.976562-46.472656 28.976562s-38.042969-11.375-46.46875-28.976562c-2.496094-5.207032-7.757812-8.523438-13.53125-8.523438s-11.035156 3.3125-13.527344 8.523438c-8.429687 17.601562-26.671875 28.976562-46.472656 28.976562s-38.042969-11.375-46.46875-28.976562c-2.496094-5.207032-7.757812-8.523438-13.53125-8.523438s-11.035156 3.3125-13.527344 8.523438c-8.429687 17.601562-26.671875 28.976562-46.472656 28.976562s-38.042969-11.375-46.46875-28.976562c-3.027344-6.320313-10.023438-9.707032-16.851562-8.152344-6.832032 1.554687-11.679688 7.625-11.679688 14.628906v72.59375c.515625-.921875 1.011719-1.863281 1.472656-2.820312 2.492188-5.210938 7.753906-8.523438 13.527344-8.523438s11.035156 3.3125 13.53125 8.523438c8.425781 17.601562 26.667969 28.976562 46.46875 28.976562s38.042969-11.375 46.472656-28.976562c2.492188-5.210938 7.753906-8.523438 13.527344-8.523438s11.035156 3.3125 13.53125 8.523438c8.425781 17.601562 26.667969 28.976562 46.46875 28.976562s38.042969-11.375 46.472656-28.976562c2.492188-5.210938 7.753906-8.523438 13.527344-8.523438s11.035156 3.3125 13.53125 8.523438c8.425781 17.601562 26.667969 28.976562 46.46875 28.976562s38.042969-11.375 46.472656-28.976562c2.492188-5.210938 7.753906-8.523438 13.527344-8.523438s11.035156 3.3125 13.53125 8.523438c8.425781 17.601562 26.667969 28.976562 46.46875 28.976562s38.042969-11.375 46.472656-28.976562c2.492188-5.210938 7.753906-8.523438 13.527344-8.523438s11.035156 3.3125 13.53125 8.523438c.457031.957031.953125 1.898437 1.46875 2.820312v-72.59375c0-7.003906-4.847656-13.078125-11.679688-14.628906zm0 0"/><path d="m495 409.578125c-15.199219 16.355469-36.941406 26.171875-60 26.171875s-44.800781-9.8125-60-26.171875c-15.199219 16.355469-36.941406 26.171875-60 26.171875s-44.800781-9.8125-60-26.171875c-15.199219 16.355469-36.941406 26.171875-60 26.171875s-44.800781-9.8125-60-26.171875c-15.199219 16.355469-36.941406 26.171875-60 26.171875s-44.800781-9.8125-60-26.171875c-4.476562 4.816406-9.523438 9.0625-15 12.660156v74.761719c0 8.285156 6.714844 15 15 15h480c8.285156 0 15-6.714844 15-15v-74.761719c-5.476562-3.597656-10.523438-7.84375-15-12.660156zm0 0"/></svg>