<?xml version="1.0" standalone="no"?>
<!DOCTYPE svg PUBLIC "-//W3C//DTD SVG 20010904//EN"
 "http://www.w3.org/TR/2001/REC-SVG-20010904/DTD/svg10.dtd">
<svg version="1.0" xmlns="http://www.w3.org/2000/svg"
 width="512.000000pt" height="512.000000pt" viewBox="0 0 512.000000 512.000000"
 preserveAspectRatio="xMidYMid meet">

<g transform="translate(0.000000,512.000000) scale(0.100000,-0.100000)"
fill="#000000" stroke="none">
<path d="M595 5104 c-44 -23 -543 -522 -566 -566 -24 -48 -24 -89 1 -138 35
-69 124 -98 193 -64 18 9 89 73 160 142 l127 127 0 -383 c0 -356 1 -385 19
-420 22 -43 84 -82 130 -82 51 0 108 35 131 80 19 37 20 58 20 422 l0 383 128
-127 c70 -69 141 -133 159 -142 122 -61 258 75 197 197 -22 44 -520 544 -566
568 -45 23 -92 24 -133 3z"/>
<path d="M3774 5104 c-104 -17 -234 -59 -268 -85 -110 -87 -46 -269 95 -269
88 0 206 -56 273 -130 213 -236 79 -610 -237 -662 -221 -37 -427 126 -456 360
-5 40 -17 84 -26 98 -58 90 -201 84 -256 -11 -30 -51 -68 -201 -81 -316 -38
-340 84 -683 331 -930 552 -552 1477 -406 1833 288 259 502 111 1117 -348
1454 -236 174 -569 252 -860 203z m442 -325 c211 -65 387 -212 492 -410 255
-479 10 -1056 -513 -1215 -80 -24 -106 -27 -235 -27 -129 0 -155 3 -233 26
-204 63 -365 182 -478 355 -49 75 -102 197 -114 266 l-8 39 47 -32 c63 -44
158 -87 236 -108 85 -22 252 -22 340 0 232 60 420 239 498 475 21 65 25 96 26
197 0 167 -34 279 -126 413 -34 50 -29 51 68 21z"/>
<path d="M1298 3879 c-23 -12 -46 -35 -58 -59 -19 -37 -20 -58 -20 -422 l0
-383 -127 127 c-71 69 -142 133 -160 142 -69 34 -158 5 -193 -64 -25 -49 -25
-90 -1 -138 24 -46 524 -544 568 -566 41 -20 85 -20 126 0 44 22 544 520 568
566 24 48 24 89 -1 138 -35 69 -124 98 -193 64 -18 -9 -89 -73 -159 -142
l-128 -127 0 383 c0 364 -1 385 -20 422 -37 73 -127 99 -202 59z"/>
<path d="M90 2181 c-42 -22 -80 -83 -80 -130 0 -74 118 -247 233 -341 77 -64
217 -133 321 -160 108 -27 283 -28 392 0 109 27 245 97 332 169 l72 61 73 -61
c86 -72 222 -142 331 -169 109 -27 283 -27 392 0 109 27 245 97 332 169 l72
61 73 -61 c86 -72 222 -142 331 -169 109 -27 283 -27 392 0 109 27 245 97 332
169 l72 61 73 -61 c39 -33 113 -81 162 -105 127 -62 221 -84 365 -84 144 0
239 22 365 84 146 72 248 167 337 313 52 86 59 140 26 197 -42 72 -123 94
-198 56 -29 -15 -49 -38 -79 -87 -98 -170 -259 -263 -451 -263 -192 0 -353 93
-451 263 -85 145 -213 145 -298 0 -98 -170 -259 -263 -451 -263 -192 0 -353
93 -451 263 -85 145 -213 145 -298 0 -98 -170 -259 -263 -451 -263 -192 0
-353 93 -451 263 -85 145 -213 145 -298 0 -98 -170 -259 -263 -451 -263 -192
0 -353 93 -451 263 -59 100 -137 132 -219 88z"/>
<path d="M116 1430 c-66 -21 -114 -98 -103 -167 10 -61 85 -173 177 -263 136
-134 284 -206 478 -231 221 -28 471 51 636 202 l56 51 57 -52 c122 -109 279
-179 451 -201 221 -28 471 51 636 202 l56 51 57 -52 c122 -109 279 -179 451
-201 221 -28 471 51 636 202 l56 51 57 -52 c170 -152 414 -229 635 -201 194
25 342 97 478 231 84 83 161 194 175 253 18 72 -34 158 -107 177 -78 21 -134
-11 -189 -107 -72 -125 -202 -218 -351 -249 -210 -45 -434 58 -548 251 -51 88
-108 123 -175 111 -47 -9 -88 -46 -126 -113 -72 -125 -202 -218 -351 -249
-210 -45 -434 58 -548 251 -51 88 -108 123 -175 111 -47 -9 -88 -46 -126 -113
-72 -125 -202 -218 -351 -249 -210 -45 -434 58 -548 251 -51 88 -108 123 -175
111 -47 -9 -88 -46 -126 -113 -96 -167 -303 -277 -489 -258 -181 17 -308 102
-423 279 -18 27 -43 58 -57 68 -31 23 -85 30 -124 18z"/>
<path d="M83 650 c-60 -36 -86 -106 -63 -174 19 -59 103 -177 172 -242 202
-193 466 -270 734 -215 144 30 286 103 387 200 l47 45 48 -45 c138 -134 353
-219 552 -219 199 0 414 85 553 219 l47 45 48 -45 c138 -134 353 -219 552
-219 199 0 414 85 553 219 l47 45 48 -45 c100 -97 242 -170 386 -200 268 -55
532 22 734 215 71 67 156 187 173 246 30 100 -38 190 -144 190 -60 0 -101 -30
-149 -110 -118 -199 -346 -297 -567 -245 -133 32 -258 125 -329 245 -48 81
-88 110 -152 110 -64 0 -104 -29 -152 -110 -118 -199 -346 -297 -567 -245
-133 32 -258 125 -329 245 -48 81 -88 110 -152 110 -64 0 -104 -29 -152 -110
-118 -199 -346 -297 -567 -245 -133 32 -258 125 -329 245 -48 81 -88 110 -152
110 -64 0 -104 -29 -152 -110 -118 -199 -346 -297 -567 -245 -133 32 -258 125
-329 245 -22 36 -54 75 -72 88 -42 28 -112 30 -157 2z"/>
</g>
</svg>
