<?xml version="1.0" standalone="no"?>
<!DOCTYPE svg PUBLIC "-//W3C//DTD SVG 20010904//EN"
 "http://www.w3.org/TR/2001/REC-SVG-20010904/DTD/svg10.dtd">
<svg version="1.0" xmlns="http://www.w3.org/2000/svg"
 width="512.000000pt" height="512.000000pt" viewBox="0 0 512.000000 512.000000"
 preserveAspectRatio="xMidYMid meet">

<g transform="translate(0.000000,512.000000) scale(0.100000,-0.100000)"
fill="#000000" stroke="none">
<path d="M2710 4059 c-331 -20 -664 -141 -954 -346 -172 -122 -386 -364 -471
-532 -24 -48 -29 -53 -40 -38 -23 31 -84 201 -125 346 -23 79 -54 170 -70 201
-60 120 -174 211 -299 240 -75 18 -224 16 -298 -3 -214 -56 -374 -231 -433
-478 -35 -149 -21 -272 47 -401 45 -87 103 -138 234 -208 129 -69 168 -105
288 -259 161 -208 338 -356 532 -449 l75 -35 -53 -131 c-83 -208 -156 -485
-170 -648 -9 -110 34 -189 131 -241 40 -22 49 -22 486 -22 486 0 492 1 556 58
67 58 76 91 86 296 4 102 10 186 12 188 2 2 39 -1 82 -7 44 -7 245 -14 447
-17 262 -4 370 -9 372 -17 2 -6 8 -86 12 -177 8 -160 10 -168 38 -214 21 -33
47 -57 85 -79 l55 -31 450 0 450 0 47 23 c63 31 104 80 124 148 15 52 15 63
-1 157 -26 161 -90 404 -139 527 -5 13 12 15 121 16 248 1 440 78 599 238 72
73 134 177 134 223 0 43 -28 81 -68 93 -33 10 -50 7 -152 -25 -157 -49 -245
-59 -345 -40 -19 4 -20 12 -20 157 -1 273 -69 495 -224 725 -343 508 -958 800
-1601 762z m50 -373 l0 -234 -82 -58 c-135 -93 -266 -201 -383 -315 l-110
-108 -60 71 c-77 90 -279 287 -373 362 -85 69 -88 59 43 161 228 177 471 284
760 336 55 9 124 18 153 18 l52 1 0 -234z m413 203 c180 -37 375 -114 535
-211 102 -61 287 -208 275 -217 -134 -111 -210 -181 -343 -318 l-160 -165 -96
92 c-129 123 -254 226 -380 312 l-104 72 0 235 0 234 86 -7 c48 -3 132 -16
187 -27z m-2424 -110 c55 -16 135 -88 166 -149 14 -27 47 -126 75 -222 50
-170 126 -350 174 -413 l24 -31 -24 -94 c-28 -109 -41 -259 -33 -385 6 -98 25
-147 81 -211 l32 -36 -37 16 c-177 73 -356 228 -539 463 -98 126 -163 182
-293 250 -116 62 -156 98 -190 175 -55 121 -44 262 31 414 60 122 158 202 284
231 64 15 186 11 249 -8z m912 -480 c158 -131 455 -440 445 -464 -17 -44 -62
-384 -81 -609 l-7 -79 -66 7 c-185 19 -448 88 -541 143 -67 39 -119 90 -132
131 -15 46 -15 236 0 322 32 177 120 377 233 528 33 45 64 82 68 82 4 0 40
-28 81 -61z m2462 19 c135 -168 227 -369 262 -572 17 -103 20 -254 4 -309 -24
-89 -160 -172 -371 -226 -127 -33 -337 -67 -359 -59 -11 4 -18 44 -27 159 -11
143 -52 450 -67 510 -6 23 3 38 66 110 132 151 423 428 451 429 4 0 22 -19 41
-42z m-1153 -82 c108 -78 262 -210 368 -319 l84 -84 23 -139 c13 -77 31 -213
39 -304 9 -91 18 -186 21 -212 l5 -46 -52 -6 c-119 -13 -937 -18 -1112 -7 -99
6 -181 13 -184 16 -11 10 33 414 65 594 16 87 20 98 66 152 82 99 317 299 471
403 80 53 58 58 206 -48z m1900 -989 c-113 -108 -268 -172 -443 -184 l-89 -6
25 49 c13 27 30 67 37 89 16 51 62 99 88 91 89 -29 266 -23 378 12 32 10 61
17 64 14 3 -2 -24 -32 -60 -65z m-3356 -147 c5 -5 6 -16 2 -25 -5 -14 -9 -15
-22 -4 -8 7 -20 21 -25 32 -10 17 -8 18 13 12 12 -4 27 -11 32 -15z m2691 10
c-3 -5 -11 -10 -16 -10 -6 0 -7 5 -4 10 3 6 11 10 16 10 6 0 7 -4 4 -10z
m-107 -163 c65 -158 106 -282 136 -421 52 -232 53 -269 6 -311 -21 -19 -36
-20 -291 -20 l-269 0 -27 27 c-26 27 -27 30 -34 199 -8 188 -21 299 -50 454
-10 55 -19 105 -19 110 0 7 51 16 123 24 67 6 172 22 232 35 61 13 117 24 126
25 12 1 30 -32 67 -122z m-2381 104 c30 -9 276 -44 394 -56 l56 -6 -18 -87
c-29 -140 -49 -315 -56 -486 -6 -156 -7 -160 -34 -190 l-27 -31 -244 -3 c-263
-4 -307 2 -334 44 -43 64 39 424 162 715 25 60 51 109 58 109 6 0 25 -4 43 -9z
m-306 -96 l38 -40 -30 -85 c-69 -194 -123 -460 -117 -567 l5 -73 -46 0 c-117
0 -157 36 -147 131 19 186 95 451 195 683 l21 48 22 -28 c12 -16 38 -47 59
-69z m2018 -90 c11 -60 18 -112 13 -116 -32 -30 -725 -51 -990 -30 -185 15
-193 17 -187 45 2 11 12 62 21 111 9 50 18 92 19 95 2 3 250 5 553 5 l549 0
22 -110z m42 -267 c0 -7 4 -92 9 -188 5 -96 12 -185 15 -197 7 -22 5 -23 -41
-23 -68 0 -122 17 -139 43 -11 18 -27 194 -30 342 0 5 38 15 85 21 47 6 88 12
93 12 4 1 7 -4 8 -10z"/>
<path d="M494 3548 c-52 -25 -51 -103 2 -127 37 -16 52 -14 79 14 32 31 32 69
0 100 -26 27 -47 30 -81 13z"/>
</g>
</svg>
