<svg id="Tortoise" enable-background="new 0 0 64 64" viewBox="0 0 64 64" xmlns="http://www.w3.org/2000/svg"><g><circle cx="6.588" cy="20.439" r=".918"/><path d="m63.758 33.36797c-.56999-.73997-1.43995-.42998-2.36991-.10998-.81998.28997-1.95996.68998-3.28993.68998-.00995 0-.00995 0-.01995 0-.48753 0-.97952-.07678-1.47261-.1867.02484-.12213.06225-.23986.07507-.36614.45824-4.55239-1.15242-9.11956-4.53329-12.85795-4.16367-4.60537-10.42212-7.35454-16.73959-7.35454-6.31753 0-12.57427 2.74917-16.73874 7.35363-1.23604 1.36641-2.22917 2.8453-2.97731 4.39194-.64634-1.13027-1.25075-2.71347-1.81201-4.98976-.87997-3.56989-2.8699-4.70986-4.38986-5.04981-2.76992-.61003-6.40975 0-8.2997 3.52985-1.93994 3.6499-1.14998 6.30978-.15002 7.89975.74997 1.17995 1.84997 1.73993 2.8099 2.2299.48001.23997.93995.46994 1.32995.75997.82999.61997 1.52998 1.54993 2.20995 2.45988.43999.59001.89993 1.20998 1.40992 1.73999 1.95995 2.06988 4.0999 3.41986 6.17978 4.28983-1.41993 3.05989-2.37992 6.3298-2.84988 9.69968-.10998.83994.14001 1.67993.68998 2.31993.54997.62998 1.34993.99997 2.18993.99997h9.93966c.77994 0 1.50996-.30999 2.05993-.86002.54997-.54997.84995-1.27992.84995-2.04992-.01001-1.03994.03003-2.07994.10998-3.10988.02002-.27001.05005-.53996.08001-.80997 2.15996.29998 4.61984.45 7.35973.45 1.37001 0 2.66995-.04004 3.88988-.11999.02002.15997.04004.32.04998.47997.08002 1.01999.11999 2.06993.11999 3.09987-.00995.78.30004 1.50996.84 2.05993.54997.55003 1.27998.86002 2.05993.86002h9.93966c.84 0 1.63996-.36998 2.18993-.99997.54997-.64.79996-1.47999.68998-2.31993-.35997-2.61991-1.01999-5.17981-1.96996-7.62974.50999.08001 1.05001.11999 1.60999.11999.45995 0 .92996-.03003 1.41993-.09003 2.46989-.32 4.65981-1.3899 6.16977-3.00984 1.00997-1.08 2.06993-2.56994 1.33998-3.51991zm-11.38963 4.48983c-.02002-.03998-.03997-.09002-.05999-.13-.02118-.0423-.04297-.08453-.06342-.12683.13263-.04669.25842-.09552.38494-.14404-.08654.13409-.1643.27471-.26153.40087zm2.57676-4.63796c-.12548 1.23922-1.69739 3.10353-9.36265 3.97307-.23186-3.45325-.60496-6.46529-1.08926-8.79486 1.21169-1.45033 2.46946-2.81008 3.7578-4.02873.86343-.82602 1.79144-1.61908 2.81106-2.41105 2.89615 3.32123 4.28269 7.30425 3.88305 11.26157zm-27.97132 4.1428c.22997-3.42981.61167-6.44857 1.11483-8.79095 1.21688-1.32954 2.50962-2.57089 3.85491-3.6817 1.1097-.91678 2.27781-1.75061 3.46942-2.51243 1.18697.75889 2.35545 1.5929 3.46942 2.51328 1.34584 1.11037 2.64426 2.35752 3.8709 3.69659.48662 2.28257.86124 5.29535 1.09439 8.7746-2.31487.1947-5.09187.30956-8.4399.30956-3.34522 0-6.12033-.11462-8.43397-.30895zm16.52927-10.50251c-1.12502-1.18508-2.29338-2.30998-3.50995-3.3144-1.19173-.98343-2.44132-1.87542-3.71239-2.68435v-5.91093c5.04792.21758 9.97683 2.30876 13.57271 5.73753-1.01229.79374-1.93902 1.5907-2.80343 2.41782-1.21176 1.1456-2.39958 2.40904-3.54694 3.75433zm-8.96484-5.99405c-1.27266.81052-2.5203 1.70172-3.70458 2.67966-1.21877 1.0057-2.38487 2.1278-3.50488 3.30732-1.15481-1.3539-2.31913-2.59091-3.54242-3.7481-.90927-.85788-1.86065-1.65668-2.82559-2.41557 3.59692-3.43006 8.52802-5.52221 13.57747-5.73906zm-14.78367 1.0909c.96853.75504 1.92327 1.55555 2.83511 2.41575 1.29769 1.22725 2.52939 2.54929 3.75695 4.01805-.60728 2.9042-.93619 6.22574-1.11062 8.80261-7.66929-.86935-9.24034-2.7341-9.36644-3.97356-.39799-3.95744.98795-7.94216 3.885-11.26285zm-.92501 16.38078-.01001-.01001c-.24249-.27276-.45366-.56938-.64756-.87668.286.11004.59379.21349.91098.31408-.08551.18884-.17834.38494-.25341.57261zm-8.69972-6.08975c-.42998-.46001-.84-1.00998-1.27999-1.58997-.74997-.99997-1.52991-2.03991-2.57987-2.81991-.50998-.38-1.05995-.65996-1.58996-.92997-.85996-.43999-1.60993-.81998-2.07995-1.56995-1.06991-1.68995-.99997-3.77984.21001-6.04978 1.21999-2.2899 3.26991-2.76992 4.75985-2.76992.65995 0 1.20998.10003 1.52991.16003 1.45997.33001 2.46995 1.56995 2.9999 3.69988.79178 3.18367 1.6836 5.23194 2.76248 6.62239-.68119 2.07555-.94382 4.23514-.72654 6.39431.10589 1.04379.62644 1.94427 1.56824 2.7092-.02093-.00934-.04156-.01892-.06427-.02649-1.86992-.78995-3.77988-1.99993-5.50981-3.82982zm4.87984 16.81942c-.34001 0-.65-.14001-.86996-.40001-.23003-.26-.33001-.59001-.28002-.92996.43999-3.22987 1.35994-6.34975 2.72995-9.2697.00995-.01995.01996-.04998.02997-.07.03003.01001.06.02002.09002.03003.23998.35997.49998.71.79996 1.04995.17999.21001.37999.41002.58995.60997-.89993 2.37992-1.52992 4.85988-1.87994 7.40978-.06994.53996.01001 1.07992.22002 1.56995h-1.42995zm11.52957-7.07977c-.07995.56998-.14996 1.14998-.20996 1.71991-.04004.32-.07.62998-.09002.94998-.08996 1.07998-.13 2.16991-.13 3.24989 0 .30999-.11999.60001-.33995.81998-.22002.22002-.50999.34002-.81998.34002h-5.84984c-.33995 0-.64994-.14001-.86996-.40001-.22997-.24999-.32994-.59001-.27996-.92996.29998-2.2299.83994-4.40988 1.59992-6.50978.19-.55998 1.01999-2.51993 1.12997-2.75991.03699-.07855.07763-.15643.11554-.23565 1.73914.39922 3.83696.6926 6.28732.88791-.21014.95057-.39678 1.90519-.54308 2.86762zm8.86969.69999c-2.68991 0-5.05982-.14001-7.13971-.42003.13983-1.01754.34136-2.02587.57298-3.02663 1.98357.11285 4.1594.17309 6.56557.17309 2.63736 0 5.01741-.06708 7.1477-.20281.22594.9808.42632 1.96899.57322 2.96639-.72001.11999-1.47993.21001-2.27995.27996-.55998.06-1.14993.10003-1.74994.13-1.15993.07-2.38987.10003-3.68987.10003zm6.95978 6.37978c-.30999 0-.59996-.11999-.81998-.34002-.21996-.21996-.33995-.50999-.33995-.81998 0-1.08993-.04004-2.17992-.13-3.24989-.01001-.15997-.03003-.30999-.04004-.46995.80002-.07001 1.56995-.16003 2.29997-.28002.03998.29998.06994.59001.08996.88998.09002 1.02993.13 2.06993.11999 3.10988 0 .40001.08001.79996.23998 1.15999h-1.41993zm11.08964-1.32997c.04999.33995-.05005.67997-.28002.92996-.21996.26-.52995.40001-.86996.40001h-5.84977c-.30999 0-.60002-.11999-.81998-.34002-.22002-.21996-.34002-.50999-.34002-.81998 0-1.07998-.03997-2.16991-.13-3.24989-.02997-.35997-.06-.71994-.09998-1.06997-.05999-.56999-.13-1.13992-.22002-1.7099-.13763-.9407-.32653-1.87372-.53709-2.80264 2.45701-.21661 4.52505-.5421 6.23508-.97403.05944.12268.12439.24236.18182.36674.11999.24999.81998 1.89996 1.00998 2.41996.81997 2.1999 1.39997 4.49987 1.71996 6.84976zm7.68974-12.03956c-1.24001 1.32991-3.05989 2.19988-5.12983 2.46989-.62998.08001-1.23.09997-1.78998.06.42247-.69675.73405-1.43214.95718-2.18139.25548-.21429.4702-.44164.66038-.67716.73777.19824 1.47645.32037 2.22234.32866h.02996c1.49 0 2.7499-.40001 3.63989-.71-.16997.21997-.36998.46996-.58994.71z"/></g></svg>