<svg id="Tortoise" enable-background="new 0 0 64 64" viewBox="0 0 64 64" xmlns="http://www.w3.org/2000/svg"><path d="m14.32102 36.7089c-.98744-.89603-1.53602-1.95669-1.66404-3.18187-.29265-2.99904.21943-5.99809 1.48122-8.79589-.6218-1.20698-1.18868-2.79792-1.71895-4.91912-.65829-2.59679-1.97499-4.09631-3.80366-4.49856-2.65159-.58519-5.83346.0183-7.5158 3.14526-1.48122 2.79792-1.38981 5.26657-.18282 7.18677.96914 1.53602 2.70639 1.84686 4.02298 2.81611 1.55444 1.17038 2.57849 3.09045 3.84027 4.42535 1.77376 1.86528 3.69395 3.12706 5.59572 3.98648-.01831-.05482-.03662-.10973-.05492-.16453zm-8.50325-15.6717c-.51208 0-.93264-.42056-.93264-.95094 0-.51197.42056-.93264.93264-.93264.53027 0 .95083.42067.95083.93264.00001.53038-.42055.95094-.95083.95094zm56.79845 15.37905c-2.15782 2.30414-5.06545 2.7065-5.81516 2.81622-.51208.0731-.98755.09141-1.46302.09141.58519-.84123 1.00586-1.71895 1.28009-2.61498.6218-.54858 1.07896-1.17038 1.33501-1.86528.27423.03661.54858.05492.84111.05492 2.79792 0 4.7363-1.49952 5.13855-.95094.32916.42055-.62168 1.71895-1.31658 2.46865zm-47.21624 14.04416h-.91433c-1.26179 0-2.24923-1.13377-2.0664-2.39555.36576-2.7247 1.13377-5.99797 2.743-9.47249.31084.58519.71321 1.15207 1.18868 1.70065.07311.09152.16452.18293.25593.25604-.85942 2.34075-1.44461 4.7728-1.79206 7.25987-.12803.93253.0731 1.86517.58518 2.65148zm28.14324 0h-.89603c-1.17037 0-2.10301-.95083-2.10301-2.1029 0-.89603-.0183-1.82867-.10971-2.79792.82292-.0548 1.60924-.14621 2.37725-.25593.0731 1.02405.10971 2.0298.10971 3.05384-.00001.74972.20112 1.48123.62179 2.10291zm-26.36949-12.06917c.07322.03661.14633.05491.23774.09141-.0365.05491-.0548.09141-.0731.14632-.05492-.0731-.10972-.16462-.16464-.23773zm25.45515 5.08375c-2.0481.27423-4.42546.42056-7.15016.42056-2.46866 0-4.62647-.10971-6.54655-.34745.12791-1.06066.31084-2.10302.53027-3.14537 1.84697.10972 3.84016.14633 6.01628.14633 2.41386 0 4.60828-.0548 6.61977-.16452.21944 1.02405.40237 2.0481.53039 3.09045zm-15.03171-3.16366c-.29254 1.48122-.53028 3.09045-.65829 4.7728-.09141 1.13388-.12802 2.23103-.12802 3.27339 0 1.15207-.93264 2.1029-2.10301 2.1029h-6.01628c-1.26179 0-2.24923-1.13377-2.0664-2.39555.34745-2.61498 1.07896-5.70544 2.54188-9.01532 2.21271.60348 5.01052 1.02404 8.43012 1.26178zm25.27221 10.14908h-6.01628c-1.17038 0-2.10301-.95083-2.10301-2.1029 0-1.04235-.03661-2.13951-.12802-3.27339-.12802-1.70065-.36576-3.30989-.6766-4.8093 3.4379-.27435 6.23582-.71321 8.39363-1.3715 1.49952 3.36469 2.23092 6.51006 2.59668 9.16154.18283 1.26178-.80461 2.39555-2.0664 2.39555zm-30.57528-26.31445c1.33489 1.26179 2.59668 2.63329 3.85847 4.13281-.6949 3.34638-1.04235 7.22315-1.20698 9.94785-6.08939-.65829-10.18559-2.12121-10.45993-4.88251-.45717-4.55337 1.20687-8.85069 4.16931-12.2521l.09152.07322c1.20686.89602 2.39554 1.90176 3.54761 2.98073zm-2.39555-4.35225c1.24348.91434 2.45035 1.93839 3.62073 3.05385 1.26179 1.17037 2.45035 2.46866 3.63903 3.85846 1.15207-1.22518 2.35894-2.37725 3.60254-3.4196 1.22518-1.00574 2.50527-1.92008 3.82185-2.743v-7.00383c-5.59573.23773-10.9171 2.61509-14.68415 6.25412zm5.92486.51198c-.40236.27434-.91433.21943-1.13377-.12802-.23774-.32915-.10971-.82281.29254-1.09716.38406-.25604.89603-.20113 1.13377.12802.21943.34745.09141.84123-.29254 1.09716zm3.41961-1.15208c-.98755.43897-2.02979.25604-2.32244-.42056-.31084-.6766.23774-1.57263 1.22518-2.01149.98755-.43897 2.0116-.25604 2.32244.42056.29264.6766-.25605 1.59094-1.22518 2.01149zm13.78812 9.32628c.54858 2.54188.95094 5.94317 1.18868 9.91135v.01831c-2.65159.21943-5.59572.31084-8.74109.31084-3.12695 0-6.08939-.09141-8.74098-.31084v-.03661c.23774-3.89507.65829-7.29637 1.20687-9.91135 1.26179-1.3715 2.57849-2.65159 3.96818-3.78536 1.13388-.95094 2.34075-1.81036 3.56593-2.57837 1.22529.76801 2.43216 1.62743 3.56593 2.57837 1.3898 1.13376 2.72469 2.41385 3.98648 3.80366zm-2.83442-5.19347c-1.22518-1.00574-2.52357-1.92008-3.82197-2.76131v-6.98553c5.59572.23774 10.91721 2.61509 14.68426 6.25413-1.33489 1.00574-2.50526 1.99319-3.60254 3.05385-1.24348 1.17037-2.46865 2.48696-3.63903 3.85846-1.17025-1.22517-2.35893-2.37724-3.62072-3.4196zm16.2752 10.05768c-.27435 2.76131-4.38885 4.22422-10.46004 4.88251-.23774-3.94987-.65829-7.35117-1.18868-9.92966 1.24359-1.49952 2.54188-2.90752 3.85857-4.151 1.07885-1.02405 2.23092-2.0116 3.56593-2.99904l.0548-.03661c2.96243 3.4013 4.62658 7.68043 4.16942 12.2338z"/></svg>