<?xml version="1.0" standalone="no"?>
<!DOCTYPE svg PUBLIC "-//W3C//DTD SVG 20010904//EN"
 "http://www.w3.org/TR/2001/REC-SVG-20010904/DTD/svg10.dtd">
<svg version="1.0" xmlns="http://www.w3.org/2000/svg"
 width="512.000000pt" height="512.000000pt" viewBox="0 0 512.000000 512.000000"
 preserveAspectRatio="xMidYMid meet">

<g transform="translate(0.000000,512.000000) scale(0.100000,-0.100000)"
fill="#000000" stroke="none">
<path d="M2631 5104 c-127 -34 -227 -118 -287 -239 -107 -216 -18 -482 197
-589 135 -68 270 -68 406 -1 162 80 251 238 240 428 -4 75 -10 99 -40 160 -98
197 -311 296 -516 241z"/>
<path d="M1396 4313 c-96 -29 -167 -96 -200 -190 -10 -28 -23 -177 -41 -450
-14 -224 -28 -418 -31 -430 -2 -13 -21 -29 -51 -44 -106 -51 -164 -145 -177
-285 -13 -155 53 -274 187 -332 49 -21 52 -18 52 66 l0 77 174 415 c195 466
209 496 254 527 17 13 155 64 305 114 l274 91 -4 102 c-5 112 -23 162 -82 224
-34 37 -104 76 -151 86 -34 7 -422 46 -445 45 -8 0 -37 -7 -64 -16z"/>
<path d="M2258 4057 c4 -32 6 -34 65 -46 131 -27 242 -115 300 -238 30 -64 32
-75 32 -178 0 -176 -1 -178 -367 -573 l-96 -103 -7 -107 c-3 -59 -11 -127 -17
-152 -22 -93 -89 -196 -162 -248 -25 -18 -49 -44 -52 -58 -4 -14 4 -240 16
-502 l23 -477 -248 -535 c-239 -513 -249 -537 -249 -595 0 -178 186 -297 346
-221 81 39 92 58 368 653 145 313 267 584 271 603 7 28 -16 618 -34 889 l-4
53 54 -4 c29 -3 55 -7 57 -9 2 -2 64 -186 139 -409 l136 -405 51 -600 c56
-644 57 -654 118 -718 48 -51 99 -71 177 -71 127 0 222 79 240 201 4 21 -19
322 -49 668 l-56 630 -110 330 -110 329 30 445 c17 244 32 446 34 448 2 3 16
-12 31 -31 15 -20 50 -46 78 -60 29 -13 212 -63 407 -111 327 -81 358 -87 396
-76 188 52 216 293 45 381 -14 7 -164 48 -334 91 -208 52 -316 84 -328 96 -9
10 -71 80 -137 157 l-120 138 1 87 c0 69 -4 96 -23 139 -31 71 -110 143 -181
165 -49 15 -559 57 -689 57 l-46 0 4 -33z"/>
<path d="M2110 3822 c-353 -186 -465 -250 -491 -283 -40 -50 -369 -847 -369
-893 0 -143 157 -246 285 -187 74 34 89 61 249 442 l152 363 88 47 c47 26 139
75 204 109 l117 62 -62 -59 -63 -58 -5 -125 -6 -125 48 51 c254 273 272 299
281 399 9 114 -42 224 -130 282 -33 22 -55 28 -112 31 -70 4 -72 3 -186 -56z"/>
<path d="M2068 3243 c-10 -10 -85 -181 -168 -378 -83 -198 -160 -375 -171
-394 l-20 -34 56 6 c139 14 263 123 288 252 9 44 39 518 35 545 -3 22 -3 22
-20 3z"/>
</g>
</svg>
