<?xml version="1.0" standalone="no"?>
<!DOCTYPE svg PUBLIC "-//W3C//DTD SVG 20010904//EN"
 "http://www.w3.org/TR/2001/REC-SVG-20010904/DTD/svg10.dtd">
<svg version="1.0" xmlns="http://www.w3.org/2000/svg"
 width="512.000000pt" height="512.000000pt" viewBox="0 0 512.000000 512.000000"
 preserveAspectRatio="xMidYMid meet">

<g transform="translate(0.000000,512.000000) scale(0.100000,-0.100000)"
fill="#000000" stroke="none">
<path d="M2996 4464 c-187 -60 -285 -238 -286 -516 0 -99 15 -208 38 -268 9
-22 4 -31 -43 -81 -159 -167 -178 -405 -56 -689 l40 -93 -48 -56 c-70 -81
-145 -196 -206 -318 -60 -119 -125 -287 -125 -324 0 -29 163 -217 199 -231 28
-10 46 -3 109 45 29 22 54 38 56 36 111 -143 117 -149 151 -149 37 0 63 20 69
53 40 189 103 399 165 542 26 61 33 70 53 67 13 -2 73 -4 133 -5 98 -1 117 2
174 26 l65 26 34 -39 c102 -120 306 -149 597 -86 l110 24 39 -35 c65 -59 118
-78 221 -78 104 0 144 16 212 85 121 120 131 329 23 479 -11 16 -20 33 -20 38
0 4 23 23 50 42 73 49 164 150 195 218 113 237 -67 642 -355 801 -63 35 -76
47 -111 107 -109 187 -261 324 -416 376 -129 43 -352 8 -525 -83 l-78 -40 -66
42 c-138 87 -289 119 -398 84z m256 -166 c40 -20 98 -54 128 -77 31 -23 65
-41 80 -41 14 0 54 20 89 45 75 52 146 81 249 101 193 37 281 8 427 -140 65
-65 104 -116 141 -181 48 -86 53 -92 118 -126 94 -49 166 -108 221 -181 84
-111 135 -246 135 -358 0 -110 -82 -221 -224 -304 -36 -21 -71 -45 -77 -52
-22 -27 -11 -64 44 -149 68 -104 86 -169 68 -242 -24 -92 -84 -143 -171 -143
-59 0 -109 24 -156 75 -50 54 -58 55 -209 20 -150 -35 -320 -44 -399 -21 -74
22 -111 59 -119 118 -6 46 -35 78 -69 78 -11 0 -45 -18 -76 -40 -30 -22 -78
-47 -106 -55 -57 -17 -172 -20 -181 -5 -4 6 21 57 55 113 l62 104 69 -21 69
-20 27 20 c30 23 40 62 24 92 -7 13 -36 28 -79 41 -121 36 -185 117 -200 253
-6 50 -12 65 -33 81 -33 24 -77 13 -97 -24 -11 -22 -9 -109 4 -143 2 -6 -23
-26 -56 -44 -33 -19 -96 -60 -139 -92 l-79 -58 -30 76 c-43 111 -55 177 -50
278 6 121 49 205 132 261 76 50 80 67 41 175 -49 136 -51 318 -5 452 57 168
196 218 372 134z m-104 -1355 l20 -28 -60 -100 c-116 -192 -221 -432 -279
-632 -17 -59 -33 -115 -35 -123 -4 -10 -17 0 -45 33 -53 61 -75 61 -152 0
l-60 -47 -38 45 c-21 24 -39 49 -39 56 0 23 91 227 140 314 68 117 171 250
256 328 71 65 238 181 260 181 7 0 21 -12 32 -27z"/>
<path d="M3730 3930 c-48 -48 -6 -120 71 -120 30 0 48 -8 84 -40 52 -45 91
-52 120 -20 35 39 16 95 -48 144 -73 56 -189 74 -227 36z"/>
<path d="M3350 3641 c-50 -10 -108 -40 -125 -65 -46 -65 34 -138 100 -92 32
22 82 29 120 16 69 -23 128 38 91 95 -9 14 -27 30 -39 34 -36 14 -110 19 -147
12z"/>
<path d="M4050 3441 c-52 -11 -79 -29 -86 -55 -9 -36 -2 -57 27 -78 22 -17 30
-18 72 -7 42 12 52 11 99 -9 66 -27 83 -27 108 -2 27 27 26 71 -3 98 -46 43
-146 68 -217 53z"/>
<path d="M2044 4202 c-6 -4 -17 -18 -23 -30 -21 -39 2 -80 53 -92 102 -26 136
-59 143 -139 4 -36 0 -53 -19 -81 -49 -73 -9 -70 -815 -70 l-722 0 -20 -26
c-28 -35 -26 -59 4 -90 l25 -24 737 2 c728 3 739 3 784 24 59 27 116 85 143
143 26 57 27 167 2 224 -40 92 -146 167 -236 167 -25 0 -50 -4 -56 -8z"/>
<path d="M235 4125 c-14 -13 -25 -33 -25 -45 0 -11 11 -32 25 -45 l24 -25 334
0 334 0 21 23 c28 30 28 68 -1 95 -23 22 -28 22 -356 22 l-332 0 -24 -25z"/>
<path d="M1152 4130 c-13 -12 -22 -33 -22 -50 0 -51 32 -70 117 -70 65 0 77 3
98 25 14 13 25 34 25 45 0 12 -11 32 -25 45 -21 22 -33 25 -98 25 -60 0 -77
-4 -95 -20z"/>
<path d="M165 3456 c-30 -31 -32 -55 -4 -90 l20 -26 726 0 c718 0 726 0 763
-21 56 -31 74 -71 71 -152 -2 -45 -57 -97 -121 -111 -83 -19 -112 -73 -64
-121 25 -25 112 -19 172 11 98 49 152 141 152 258 -1 103 -57 193 -154 244
l-51 27 -743 3 -742 3 -25 -25z"/>
<path d="M166 3099 c-32 -25 -35 -70 -6 -99 16 -16 33 -20 95 -20 67 0 79 3
100 25 32 31 32 59 0 90 -21 22 -33 25 -93 25 -55 0 -75 -4 -96 -21z"/>
<path d="M559 3102 c-15 -13 -22 -30 -22 -52 0 -22 7 -39 22 -52 22 -17 48
-18 357 -18 321 0 335 1 354 20 20 20 26 65 12 86 -20 31 -54 34 -375 34 -301
0 -326 -1 -348 -18z"/>
<path d="M2603 1742 c-13 -2 -40 -27 -65 -62 -24 -33 -45 -60 -48 -60 -3 0
-41 23 -85 50 -44 28 -87 50 -98 50 -10 0 -29 -11 -42 -25 -25 -24 -25 -27
-25 -187 0 -227 28 -481 76 -700 l6 -27 -391 -3 c-352 -3 -392 -5 -407 -20
-23 -22 -22 -73 1 -98 18 -20 27 -20 1681 -20 l1663 0 21 27 c15 19 19 35 15
53 -14 58 43 55 -915 58 l-879 2 -50 103 c-86 176 -146 378 -171 579 -6 48
-13 94 -16 103 -6 15 -206 166 -234 175 -8 3 -25 4 -37 2z m128 -235 c10 -8
20 -44 29 -107 24 -178 80 -371 159 -544 17 -38 31 -70 31 -72 0 -2 -109 -4
-243 -4 l-243 0 -22 108 c-35 172 -52 306 -59 477 l-6 159 28 -18 c83 -54 94
-59 123 -47 15 7 45 36 66 66 l39 54 41 -30 c23 -16 48 -35 57 -42z"/>
</g>
</svg>
