<svg clip-rule="evenodd" fill-rule="evenodd" height="512" image-rendering="optimizeQuality" shape-rendering="geometricPrecision" text-rendering="geometricPrecision" viewBox="0 0 18062 18062" width="512" xmlns="http://www.w3.org/2000/svg"><g id="Layer_x0020_1"><path d="m9023 16074c-979 0-1895-341-2666-930 53-59 104-129 134-182 7-10 13-22 18-35l1261-2176h2519l1477 2346c-787 618-1730 977-2743 977zm-1637-3537-1437 2261c-1107-1044-1836-2637-1892-4429h2071l631 1088zm-1250-2609h-2079c55-1796 781-3388 1884-4434l1442 2271zm1622-2397-1475-2334c787-625 1729-989 2740-989 1015 0 1960 363 2747 985l-30 48c-80-3-160 40-202 114l-1248 2176zm2905 233 1440-2285c1114 1045 1846 2645 1901 4449h-2093zm1256 2605h2086c-56 1806-789 3402-1906 4444l-1436-2280zm-4145 1941h2514l1250-2161-1250-2162h-2514l-1250 2162z"/><path d=""/><path d="m1863 10002c-177 0-324-118-383-309-250-794 985-3441 2265-4059 297-143 808-269 1330 101-444 551-1380 2735-1448 2752-720 941-1294 1456-1676 1515-44 0-74 0-88 0z"/><path d="m16184 10002c-29 0-44 0-73 0-397-59-956-574-1677-1515-97-48-957-2142-1445-2747 365-209 855-310 1328-91 1309 632 2514 3235 2264 4044-59 206-206 309-397 309z"/><path d="m4142 16060c-147 0-265-59-338-192-254-398 77-1448 585-2365 294 560 667 1077 1118 1527-545 640-980 996-1306 1044 0-14-30-14-59-14z"/><path d="m13905 16060c-29 0-44 0-73 0-324-48-745-379-1288-1018 452-446 825-959 1119-1515 492 911 801 1946 551 2327-44 147-162 206-309 206z"/><path d="m7261 4079c-32-223-52-452-59-683 33-25 58-59 72-99 397-177 1235-265 1749-265 515 0 1353 88 1750 265 14 42 38 77 71 103-7 230-27 456-60 675-554-221-1147-341-1761-341s-1207 121-1762 345zm1365-2223h-279c-118 0-221-103-221-221s103-221 221-221h279c118 0 221 103 221 221s-88 221-221 221zm1074 0h-280c-117 0-220-103-220-221s103-221 220-221h280c117 0 220 103 220 221s-103 221-220 221zm-2488 1002c104-1636 869-2855 1811-2855 960 0 1716 1228 1813 2860-508-175-1286-272-1827-272-523 0-1289 95-1797 267z"/><path d="m9023 18059c-250 0-294-176-514-1191-24-111-50-230-78-357 195 25 393 37 592 37 190 0 377-11 561-33-27 126-52 244-75 353-191 1015-221 1191-486 1191z"/></g></svg>