<svg clip-rule="evenodd" fill-rule="evenodd" height="512" image-rendering="optimizeQuality" shape-rendering="geometricPrecision" text-rendering="geometricPrecision" viewBox="0 0 7111 7111" width="512" xmlns="http://www.w3.org/2000/svg"><g id="Layer_x0020_1"><g id="_615746904"><g><g><path d="m3553 6328c-1077 0-1957-1047-1957-2332 0-1291 880-2339 1957-2339 1082 0 1962 1048 1962 2339 0 1290-880 2332-1962 2332zm0-4492c-985 0-1783 973-1783 2165 0 1193 798 2160 1783 2160 984 0 1788-967 1788-2160 0-1198-804-2165-1788-2165z"   stroke-width="50"/></g><g><path d="m2470 4082h-787c-47 0-87-40-87-86 0-47 40-87 87-87h787c46 0 87 40 87 87 0 46-41 86-87 86zm538-937c-29 0-58-18-75-47l-527-909c-23-40-11-92 29-121 41-23 93-12 122 29l527 914c23 41 11 93-35 116-6 12-23 18-41 18z"   stroke-width="50"/></g><g><path d="m4097 3145c-18 0-29-6-41-12-40-23-58-75-35-116l521-909c24-40 76-58 116-34 41 23 58 75 35 115l-521 909c-12 29-41 47-75 47zm-1089 0c-29 0-58-18-75-47l-527-909c-23-40-11-92 29-121 41-23 93-12 122 29l527 914c23 41 11 93-35 116-6 12-23 18-41 18z"   stroke-width="50"/></g><g><path d="m5428 4082h-787c-46 0-87-40-87-86 0-47 41-87 87-87h787c46 0 87 40 87 87 0 46-41 86-87 86zm-1331-937c-18 0-29-6-41-12-40-23-58-75-35-116l521-909c24-40 76-58 116-34 41 23 58 75 35 115l-521 909c-12 29-41 47-75 47z"   stroke-width="50"/></g><g><path d="m4618 5929c-29 0-58-17-76-46l-521-909c-23-41-11-93 35-116 41-23 93-12 116 35l521 909c23 40 12 92-35 115-11 12-23 12-40 12zm810-1847h-787c-46 0-87-40-87-86 0-47 41-87 87-87h787c46 0 87 40 87 87 0 46-41 86-87 86z"   stroke-width="50"/></g><g><path d="m4618 5929c-29 0-58-17-76-46l-521-909c-23-41-11-93 35-116 41-23 93-12 116 35l521 909c23 40 12 92-35 115-11 12-23 12-40 12zm-2131 0c-17 0-29-6-46-12-40-23-58-75-29-121l527-909c23-41 75-58 116-35 40 23 58 76 34 116l-526 909c-18 40-47 52-76 52z"   stroke-width="50" /></g><g><path d="m2487 5929c-17 0-29-6-46-12-40-23-58-75-29-121l527-909c23-41 75-58 116-35 40 23 58 76 34 116l-526 909c-18 40-47 52-76 52zm-17-1847h-787c-47 0-87-40-87-86 0-47 40-87 87-87h787c46 0 87 40 87 87 0 46-41 86-87 86z"   stroke-width="50"/></g><g><path d="m4097 5020h-1089c-29 0-58-17-75-40l-272-469-272-469c-17-29-17-58 0-87l544-944c17-29 46-46 75-46h1089c29 0 58 17 75 46l544 944c17 29 17 58 0 87l-544 938c-12 23-41 40-75 40zm-1037-174h990l492-850-492-851h-990l-492 851z"   stroke-width="50"/></g><g><path d="m733 3938c-69 0-127-47-150-122-99-313 388-1355 891-1598 157-75 463-139 730 261 29 40 17 92-23 121-41 29-93 18-122-23-168-254-353-307-579-162-457 301-793 1187-735 1349 46-12 208-93 556-538 5-6 11-12 17-18 23-17 162-104 492-11 46 11 75 63 58 110-17 46-64 75-110 58-208-58-307-29-330-24-284 371-509 573-660 597-17 0-29 0-35 0z"   stroke-width="50"/></g><g><path d="m6372 3938c-12 0-18 0-29 0-156-24-376-226-660-597-23-11-122-40-330 24-46 11-93-12-110-58-12-47 11-93 58-110 330-93 463-6 492 11 6 6 11 12 17 18 348 457 510 526 550 538 58-156-272-1042-723-1337-226-151-417-99-591 156-29 41-81 52-121 23-41-29-53-81-24-121 272-406 573-336 736-261 515 249 989 1274 891 1592-23 81-81 122-156 122z"   stroke-width="50"/></g><g><path d="m1631 6323c-58 0-105-23-134-76-121-191 99-764 371-1157 29-41 81-52 122-24 40 29 52 82 23 122-278 405-406 857-371 961 46-12 209-87 556-538 0-6 6-6 6-12 11-12 34-23 58-29 46-11 92 17 104 64 11 40-12 87-52 104-284 365-504 567-660 590 0-5-12-5-23-5z"   stroke-width="50"/></g><g><path d="m5474 6323c-11 0-17 0-28 0-157-23-371-215-660-591-41-17-64-63-47-110 18-46 64-69 110-52 18 6 29 12 29 12 12 5 23 17 29 23 347 451 504 527 550 538 35-104-93-556-370-961-29-40-18-92 23-121 40-29 92-18 121 23 272 393 487 972 365 1158-17 58-64 81-122 81z"   stroke-width="50"/></g><g><path d="m4102 1935c-5 0-17 0-28-6-47-18-70-64-58-110 52-162 81-353 81-556 0-585-249-1088-544-1088-296 0-545 503-545 1094 0 191 29 388 76 556 11 46-12 92-58 110-47 11-93-12-110-58-52-185-81-394-81-602 0-718 318-1274 718-1274 405 0 717 556 717 1268 0 214-29 423-86 608-12 34-47 58-82 58z"   stroke-width="50"/></g><g><path d="m3396 731h-110c-46 0-87-41-87-87 0-47 41-87 87-87h110c47 0 87 40 87 87 0 46-35 87-87 87z"   stroke-width="50"/></g><g><path d="m3819 731h-110c-46 0-87-41-87-87 0-47 41-87 87-87h110c46 0 87 40 87 87 0 46-41 87-87 87z"   stroke-width="50"/></g><g><path d="m4184 1356c-41 0-70-23-82-58-156-70-347-104-549-104-203 0-394 34-550 104-12 35-47 58-81 58-47 0-87-41-87-87v-29c0-35 17-64 46-75 185-93 423-145 666-145 249 0 486 52 671 145 29 17 47 46 47 75v29c5 46-29 87-81 87z"   stroke-width="50"/></g><g><path d="m3553 7110c-99 0-116-69-203-469-23-110-52-237-87-394-11-46 17-92 64-104 46-11 92 18 104 64 35 150 64 284 87 394 11 52 23 98 29 138 11-46 17-92 29-138 23-110 52-238 87-394 11-46 57-75 104-64 46 12 75 58 63 104-34 151-63 284-86 394-76 400-87 469-191 469z"   stroke-width="50"/></g></g></g></g></svg>