<svg id="Layer_1" enable-background="new 0 0 64 64" height="512" viewBox="0 0 64 64" width="512" xmlns="http://www.w3.org/2000/svg"><path d="m55.2 36.4-2.7 1.2c0 .4 0 .8-.1 1.2-.1.5-.1 1.1-.2 1.6l2 1.1c.5.3.6.9.4 1.4-.3.5-.9.6-1.4.4l-1.5-.9c-.3 1-.6 1.9-1.1 2.9l2.8 1.9c.5.3.6.9.3 1.4s-.9.6-1.4.3l-2.6-1.7c-.4.7-.8 1.4-1.2 2.1l.9 1.7c.3.5.1 1.1-.4 1.4s-1.1.1-1.4-.4l-.4-.8c-.6.5-1.3.9-2 1.1v2.3c0 .6-.4 1-1 1s-1-.4-1-1v-2.1c-.7-.1-1.4-.3-2-.7l-3 1.4c-.5.2-1.1 0-1.3-.5s0-1.1.5-1.3l2.3-1.1c-.8-1.2-1.1-2.6-.8-4l-2.9-1.8c-.5-.3-.6-.9-.3-1.4s.9-.6 1.4-.3l2.6 1.6c.8-1.3 1.3-2.8 1.6-4.4l-2.5-.9c-.5-.2-.8-.8-.6-1.3s.8-.8 1.3-.6l2.1.8c.1-1.5 0-3-.2-4.5l-2.5-.7c-.5-.2-.8-.7-.7-1.2.2-.5.7-.8 1.2-.7l1.4.4c-.2-.7-.5-1.4-.8-2.1h-3.4c-.6 0-1-.4-1-1s.4-1 1-1h2.2c-.6-1.1-1-2.1-1.4-3.2l-1.7.8c-.5.2-1.1 0-1.3-.5s0-1.1.5-1.3l2-.9c-.2-1.1-.3-2.2-.3-3.2l-2 .4c-.5.1-1.1-.2-1.2-.8-.1-.5.2-1.1.8-1.2l2.6-.5c.1-.7.2-1.3.4-1.9.2-.7.4-1.4.7-2l-1.6-.6c-.5-.2-.8-.8-.6-1.3s.8-.8 1.3-.6l1.8.7c.4-.8.8-1.5 1.3-2.2l-1.5-1.1c-.4-.3-.5-1-.2-1.4s1-.5 1.4-.2l1.4 1c.2-.3.4-.5.5-.7v-.1c.2-.3.4-.5.5-.7.2-.3.4-.5.6-.8l-1.1-1.3c-.4-.4-.3-1 .1-1.4s1-.3 1.4.1l1.3 1.5c1.1-.4 2.4-.4 3.5 0l1.7-1.6c.4-.4 1-.3 1.4.1s.3 1-.1 1.4l-1.3 1.2c1 .9 1.5 2.2 1.5 3.5h1.5c.6 0 1 .4 1 1s-.4 1-1 1h-1.7c-.1.4-.3.7-.6 1.1-.1.2-.3.4-.4.6s-.1.1-.1.1l2 1.2c.5.3.6.9.3 1.4s-.9.6-1.4.3l-2.1-1.3c-.6.9-1.1 1.7-1.5 2.6h1.2c.6 0 1 .4 1 1s-.4 1-1 1h-1.4v.2 2.3h2.5c.6 0 1 .4 1 1s-.4 1-1 1h-2.3c.1.8.2 1.2.4 1.6s.4.7.7 1.1l.1.1c.1.2.3.4.5.6l2.3-.9c.5-.2 1.1.1 1.3.6s-.1 1.1-.6 1.3l-2 .7c.5 1 1 1.9 1.4 2.9h.2 2.2c.6 0 1 .4 1 1s-.4 1-1 1h-1.8c.2.9.4 1.7.5 2.6l2-.9c.5-.2 1.1 0 1.3.5s0 1.1-.5 1.3zm-24.7 6.3h-2.1c-.1-1.7-.5-3.5-1.2-5.2l1.6-1.2c.4-.3.5-1 .2-1.4s-1-.5-1.4-.2l-1.2.9c-.3-.5-.5-1-.8-1.5s-.6-.9-.9-1.3l3.1-1.4c.5-.2.7-.8.5-1.3s-.8-.7-1.3-.5l-3.1 1.4c-.1.1-.2.1-.3.2-.3-.7-.5-1.9-.6-5h1.3c.6 0 1-.4 1-1s-.4-1-1-1h-1.3c.2-1.3.8-2.3 1.7-3.6l2.2.8c.5.2 1.1-.1 1.3-.6s-.1-1.1-.6-1.3l-1.7-.6c0-.1.1-.1.1-.2.1-.2.3-.4.4-.6.8-1.1 1-2.4.8-3.7l2.4-1.3c.5-.3.7-.9.4-1.4s-.9-.7-1.4-.4l-2.2 1.2c-.4-.6-.8-1.1-1.4-1.5-.4-.3-.9-.5-1.3-.7l1.3-3.1c.2-.5 0-1.1-.5-1.3s-1.1 0-1.3.5l-1.5 3.6c-.8.1-1.5.3-2.2.7l-1.6-2.7c-.3-.5-.9-.6-1.4-.4s-.6 1-.4 1.4l2 3.3c-.2.2-.3.5-.5.7v.1c-.8 1.1-1.6 2.3-2.5 3.7l-4.3-3.4c-.4-.3-1.1-.3-1.4.2-.3.4-.3 1.1.2 1.4l4.6 3.7c-.4.9-.8 1.9-1.1 2.9v.1l-2.5-.8c-.6-.2-1.2.1-1.4.7-.2.5.1 1.1.7 1.3l2.7.9c-.2 1.7-.2 3.4.2 5.2l-3.2-1.5c-.5-.2-1.1 0-1.3.5s0 1.1.5 1.3l4.6 2.2c.1 0 .1 0 .2.1.4 1 .9 2 1.4 3h-2.6c-.6 0-1 .4-1 1s.4 1 1 1h3.7c.3.7.6 1.5.8 2.3h-3.1c-.6 0-1 .4-1 1s.4 1 1 1h3.5c.3 2.1.2 4.2-.2 6.2l-2.7-2.1c-.4-.3-1.1-.2-1.4.2s-.2 1.1.2 1.4l3.1 2.2c.1 0 .1.1.2.1-.3.9-.7 1.7-1.1 2.4-.1.2-.2.4-.3.5l-2.2-1.3c-.5-.3-1.1-.1-1.4.3-.3.5-.1 1.1.3 1.4l2.8 1.7c0 1.2.4 2.4 1.2 3.3l-1.5 3.3c-.2.5 0 1.1.5 1.3s1.1 0 1.3-.5l1.3-2.9c1.1.5 2.3.6 3.4.4l.6 2.3c.1.5.7.8 1.2.7s.8-.7.7-1.2l-.5-2.6c.5-.4.9-.8 1.3-1.4.1-.2.3-.4.4-.7l.9.8c.4.4 1.1.3 1.4-.1.4-.4.3-1.1-.1-1.4l-1.2-1c.5-.9.9-1.8 1.3-2.7l2.1.9c.5.2 1.1 0 1.3-.5s0-1.1-.5-1.3l-2.2-.9c.4-1.4.7-2.7.9-4.1 0-.3 0-.6.1-.8h2.1c.6 0 1-.4 1-1-.1-.7-.6-1.1-1.1-1.1z"/></svg>