<svg fill="none" height="512" viewBox="0 0 64 64" width="512" xmlns="http://www.w3.org/2000/svg"><g clip-rule="evenodd" fill="rgb(0,0,0)" fill-rule="evenodd"><path d="m43.3276 2.34176c-.367-.41582-1.0049-.45826-1.4248-.09479-.4198.36347-.4627.99521-.0957 1.41104l1.1241 1.27361c-.238.22663-.4572.47957-.6532.75806-.1681.23891-.3438.4856-.5266.74226l-.0367.05149c-.1704.23929-.3467.48672-.5266.74193l-1.4106-1.02727c-.4492-.32719-1.0813-.23173-1.4116.2132-.3304.44494-.234 1.07087.2153 1.39805l1.4752 1.07441c-.4461.68309-.8895 1.40685-1.3019 2.16675l-1.7977-.6769c-.5212-.1963-1.1044.0631-1.3026.5793s.0637 1.0938.585 1.2901l1.6345.6155c-.2828.6595-.5309 1.3405-.7294 2.0405-.1819.6417-.3213 1.2874-.4167 1.9377l-2.5897.5221c-.5464.1102-.8992.6382-.788 1.1794s.6444.8906 1.1908.7804l2.0332-.4099c-.0023 1.0617.1122 2.1375.3489 3.2308l-2.0202.8754c-.5109.2213-.7439.811-.5203 1.3169.2235.506.8188.7367 1.3297.5154l1.756-.7609c.3549 1.0354.8179 2.0875 1.3934 3.1588h-2.2634c-.5577 0-1.0097.4477-1.0097 1 0 .5522.452 1 1.0097 1h3.3946c.3342.654.6185 1.342.8531 2.0535l-1.3838-.3995c-.5353-.1546-1.0959.1499-1.2519.6801-.1561.5302.1514 1.0854.6867 1.2399l2.5134.7257c.2605 1.4623.3324 2.9723.2181 4.4509l-2.0932-.7802c-.5219-.1945-1.1043.0668-1.3007.5837s.0675 1.0936.5894 1.2881l2.5248.9411c-.3152 1.5738-.8541 3.0649-1.6137 4.368l-2.6084-1.5866c-.4752-.289-1.097-.1418-1.3888.3288-.2919.4706-.1432 1.0864.332 1.3755l2.8532 1.7354c-.3058 1.3832-.0068 2.8342.8086 3.9859l-2.2768 1.0737c-.5035.2375-.7173.8342-.4776 1.3328.2398.4987.8423.7104 1.3458.473l3.0116-1.4203c.6319.3661 1.3121.5826 1.9979.6594v2.1388c0 .5523.4521 1 1.0097 1 .5577 0 1.0097-.4477 1.0097-1v-2.3133c.7342-.2139 1.4217-.5908 2.002-1.1165l.4525.844c.2616.4877.8729.6732 1.3654.4141.4925-.259.6797-.8644.4182-1.3522l-.9059-1.6893c.4261-.7113.8237-1.4174 1.19-2.1196l2.62 1.7298c.464.3063 1.0909.1822 1.4003-.2774.3093-.4595.1839-1.0804-.2801-1.3867l-2.8588-1.8875c.4261-.9591.7881-1.9138 1.0782-2.8682l1.5262.8637c.4842.274 1.101.1074 1.3777-.3721s.1084-1.0904-.3757-1.3644l-2.0246-1.1457c.1052-.5433.1854-1.0875.2393-1.6334.0394-.3987.0646-.7972.0754-1.1958l2.7566-1.2428c.5075-.2288.7317-.8218.5006-1.3244-.231-.5027-.8298-.7247-1.3373-.4958l-2.0049.9038c-.0919-.864-.2541-1.731-.4898-2.604h1.7837c.5576 0 1.0097-.4477 1.0097-1s-.4521-1-1.0097-1h-2.2587c-.0629 0-.1245.0057-.1842.0166-.3732-.9462-.8336-1.9019-1.3852-2.8706l1.9354-.7454c.5197-.2002.7772-.7797.5751-1.2944-.2021-.5148-.7873-.7698-1.307-.5696l-2.3043.8875c-.1651-.2255-.3176-.4221-.4556-.5999l-.0765-.0987c-.3374-.436-.5482-.727-.7161-1.114-.1593-.3673-.2921-.8496-.3896-1.6167h2.372c.5577 0 1.0097-.4477 1.0097-1s-.452-1-1.0097-1h-2.5183c-.0237-.64-.0361-1.3883-.0361-2.2687 0-.0692.0009-.1376.0029-.2051h1.5835c.5577 0 1.0097-.4478 1.0097-1 0-.5523-.452-1-1.0097-1h-1.1937c.323-.853.8322-1.6487 1.4787-2.5662l2.0934 1.2642c.4761.2875 1.0974.1383 1.3877-.3332.2903-.4716.1397-1.0869-.3364-1.3744l-1.9745-1.1924c.0284-.0402.057-.0807.0858-.1214l.0045-.0063c.1324-.1879.2688-.3813.4089-.5803.2414-.3431.434-.7054.579-1.079h1.8226c.5577 0 1.0097-.44775 1.0097-1.00003 0-.55229-.452-1-1.0097-1h-1.4882c-.0493-1.27991-.5874-2.52857-1.5618-3.45454l1.3148-1.20178c.4098-.37456.4354-1.00722.0572-1.41308-.3782-.40585-1.017-.43122-1.4268-.05665l-1.7187 1.57088c-1.1672-.42691-2.4375-.40756-3.5705.01554zm7.3033 34.38104c-.085-2.6515-.9127-5.3676-2.6906-8.3022-.4009-.6617-.7467-1.1077-1.0693-1.5237l-.0742-.0957c-.3442-.4448-.6931-.906-.9686-1.5412-.5368-1.2374-.7361-3.0003-.7361-6.6748 0-2.8587 1.3653-4.7382 2.8411-6.7698.2156-.2968.4338-.5971.6502-.904l.0007-.0009.0055-.0079c.1321-.1872.2673-.3789.406-.5761.974-1.38401.6307-3.288-.7668-4.25265-1.3975-.96464-3.32-.62464-4.294.75941-.1711.24308-.3492.49313-.5303.74751l-.0029.00397c-1.6049 2.25346-3.4732 4.89246-4.313 7.85496-1.0316 3.6384-.5173 7.5055 2.1765 11.9519 3.2545 5.3721 3.2331 13.1638.018 18.3381-.0503.0809-.0963.1631-.138.2466-.0201.1267-.0653.2517-.1374.3679-.0113.0183-.0232.0361-.0355.0535-.4247 1.308.0869 2.7822 1.3212 3.5345 1.4508.8842 3.3506.4362 4.2434-1.0006 2.2876-3.6817 3.705-7.0201 4.0298-10.3082.0436-.4421.0677-.885.0712-1.3294-.0601-.1905-.0595-.3886-.0069-.5712z"/><path d="m25.0698 7.39437c.2178-.5084-.0217-1.09544-.535-1.31119-.5134-.21575-1.1061.02148-1.324.52988l-1.5505 3.61844c-.7678.077-1.5156.3252-2.1807.7336l-1.7614-2.94376c-.2843-.47513-.9037-.63205-1.3834-.35049-.4798.28156-.6382.89497-.3539 1.37009l1.9976 3.33866c-.1662.2361-.3397.4798-.5202.7332l-.0367.0515c-.7734 1.0858-1.6659 2.3389-2.485 3.7282l-4.3256-3.4473c-.4345-.3462-1.07008-.2781-1.41969.1521-.34961.4303-.28083 1.0598.15362 1.4061l4.62427 3.6853c-.4454.9197-.833 1.8858-1.118 2.8912-.0112.0393-.0222.0787-.033.1181l-2.5346-.7972c-.53149-.1672-1.0992.124-1.268.6504s.12522 1.0886.65672 1.2558l2.74078.862c-.2305 1.6942-.1629 3.4205.2256 5.1928l-3.19159-1.5182c-.50268-.2391-1.10591-.0293-1.34734.4685-.24143.4979-.02965 1.0953.47303 1.3344l4.6787 2.2255c.0543.0258.1099.0464.166.062.3832.9954.8657 2.0064 1.4514 3.0354h-2.6323c-.5576 0-1.0097.4477-1.0097 1s.4521 1 1.0097 1h3.7256c.3326.7279.6066 1.4923.8224 2.2798h-3.096c-.5576 0-1.0097.4477-1.0097 1s.4521 1 1.0097 1h3.5133c.3018 2.0611.2349 4.1974-.1945 6.1912l-2.7317-1.9332c-.4537-.3211-1.0844-.2171-1.4086.2322-.3242.4494-.2192 1.074.2345 1.395l3.1609 2.237c.0523.037.107.0684.1633.0942-.3106.8512-.696 1.657-1.1557 2.3968-.1102.1772-.2079.3585-.2935.5429l-2.2189-1.3239c-.4777-.285-1.0982-.1326-1.386.3405-.2877.4731-.1338 1.0876.3439 1.3726l2.7968 1.6688c-.0105 1.2128.42 2.4082 1.2334 3.3446l-1.5223 3.2737c-.2333.5016-.0118 1.0956.4948 1.3266.5065.231 1.1064.0112 1.3397-.4905l1.3294-2.8588c1.1059.5334 2.3303.636 3.46.3581l.6352 2.3423c.1447.5334.6985.8496 1.2371.7064.5386-.1433.8579-.6918.7133-1.2252l-.7322-2.6998c.4902-.3678.921-.8301 1.2627-1.3801.1382-.2223.2737-.4441.4065-.6654l.9408.7884c.4257.3568 1.0628.3042 1.423-.1174s.3071-1.0526-.1186-1.4094l-1.2357-1.0355c.4933-.9194.9339-1.8319 1.3154-2.7411l2.0998.8789c.5137.215 1.1061-.0232 1.3231-.5319.2171-.5087-.0233-1.0954-.537-1.3104l-2.1832-.9138c.4472-1.3657.75-2.7296.8857-4.104.0276-.2791.0482-.5581.0618-.837h2.1045c.5577 0 1.0098-.4478 1.0098-1 0-.5523-.4521-1-1.0098-1h-2.1293c-.1278-1.7266-.5344-3.4627-1.2461-5.2321l1.589-1.1541c.4497-.3266.5469-.9524.2172-1.3978-.3298-.4453-.9617-.5416-1.4114-.215l-1.2493.9073c-.2561-.4959-.5362-.995-.8408-1.4978-.3187-.5259-.6114-.939-.8694-1.2826.0163-.0064.0325-.0132.0486-.0204l3.0846-1.3886c.5077-.2285.7321-.8214.5014-1.3242-.2308-.5027-.8294-.7251-1.3371-.4965l-3.0845 1.3885c-.125.0563-.2328.1346-.3208.2282-.0038-.0084-.0075-.0169-.0112-.0254-.3192-.7359-.532-1.9328-.567-4.9575h1.3168c.5577 0 1.0097-.4477 1.0097-1s-.452-1-1.0097-1h-1.2364c.2157-1.2935.8282-2.3309 1.7079-3.5881l2.2717.8081c.5249.1867 1.1032-.0834 1.2916-.6031.1886-.5198-.0841-1.0925-.6089-1.2792l-1.7435-.6201c.0408-.0574.0818-.1154.1232-.1741l.0115-.0163c.1303-.1847.2643-.3748.4018-.5702.7802-1.1085 1.0496-2.4187.8577-3.6565l2.4573-1.3379c.4887-.2661.667-.8741.3984-1.3581-.2687-.4839-.8826-.6606-1.3713-.3945l-2.1904 1.1926c-.3555-.5685-.8314-1.076-1.4205-1.4827-.4202-.29-.8691-.5088-1.3321-.6589zm-9.9292 53.60553.9174.4178s-.0002.0005-.9174-.4178zm8.7951-48.2452c-1.3975-.9646-3.32-.6246-4.2941.7594-.1713.2435-.3497.4939-.5311.7487l-.0009.0013-.0011.0015c-1.605 2.2535-3.4732 4.8925-4.3131 7.8549-1.0315 3.6384-.5173 7.5056 2.1766 11.952 3.2545 5.372 3.2331 13.1638.0179 18.3381-.8927 1.4367-.4404 3.3183 1.0104 4.2024 1.4507.8842 3.3506.4362 4.2433-1.0005 2.2877-3.6817 3.7051-7.0201 4.0298-10.3082.3221-3.2605-.4215-6.5638-2.6262-10.2028-.4009-.6618-.7468-1.1078-1.0694-1.5238l-.0741-.0957c-.3442-.4448-.6931-.9059-.9687-1.5411-.5367-1.2375-.736-3.0004-.736-6.6748 0-2.8587 1.3653-4.7382 2.8411-6.7698.2157-.2969.4337-.5971.6502-.904l.0038-.0055c.1328-.1882.2688-.3811.4084-.5794.974-1.384.6307-3.288-.7668-4.2527z"/></g></svg>